<?xml version="1.0" encoding="utf-8" standalone="no"?>
<!DOCTYPE svg PUBLIC "-//W3C//DTD SVG 1.1//EN"
  "http://www.w3.org/Graphics/SVG/1.1/DTD/svg11.dtd">
<svg xmlns:xlink="http://www.w3.org/1999/xlink" width="582.4pt" height="294.4pt" viewBox="0 0 582.4 294.4" xmlns="http://www.w3.org/2000/svg" version="1.1">
 <metadata>
  <rdf:RDF xmlns:dc="http://purl.org/dc/elements/1.1/" xmlns:cc="http://creativecommons.org/ns#" xmlns:rdf="http://www.w3.org/1999/02/22-rdf-syntax-ns#">
   <cc:Work>
    <dc:type rdf:resource="http://purl.org/dc/dcmitype/StillImage"/>
    <dc:date>2026-04-08T13:24:53.207604</dc:date>
    <dc:format>image/svg+xml</dc:format>
    <dc:creator>
     <cc:Agent>
      <dc:title>Matplotlib v3.8.0, https://matplotlib.org/</dc:title>
     </cc:Agent>
    </dc:creator>
   </cc:Work>
  </rdf:RDF>
 </metadata>
 <defs>
  <style type="text/css">*{stroke-linejoin: round; stroke-linecap: butt}</style>
 </defs>
 <g id="figure_1">
  <g id="patch_1">
   <path d="M 0 294.4 
L 582.4 294.4 
L 582.4 0 
L 0 0 
L 0 294.4 
z
" style="fill: none; opacity: 0"/>
  </g>
  <g id="axes_1">
   <g id="patch_2">
    <path d="M 7.2 287.2 
L 7.2 43.721739 
L 575.2 43.721739 
L 575.2 287.2 
z
" clip-path="url(#p77b241fb68)" style="fill: #50b866; opacity: 0.06; stroke: #50b866; stroke-linejoin: miter"/>
   </g>
   <g id="line2d_1">
    <path d="M 7.2 43.721739 
L 575.2 43.721739 
" clip-path="url(#p77b241fb68)" style="fill: none; stroke-dasharray: 5.55,2.4; stroke-dashoffset: 0; stroke: #cccccc; stroke-width: 1.5"/>
   </g>
   <g id="line2d_2">
    <path d="M 7.2 287.2 
L 224.266783 287.091985 
L 236.04092 286.85905 
L 243.286543 286.508337 
L 248.418859 286.058443 
L 252.645473 285.475354 
L 256.268284 284.743584 
L 259.287294 283.901597 
L 262.004402 282.899635 
L 264.41961 281.756143 
L 266.532916 280.50874 
L 268.646223 278.975507 
L 270.457629 277.38455 
L 272.269035 275.485837 
L 274.08044 273.219835 
L 275.589945 271.000068 
L 277.09945 268.427848 
L 278.608954 265.447212 
L 280.118459 261.993311 
L 281.627964 257.991001 
L 283.137469 253.353205 
L 284.646973 247.979021 
L 286.156478 241.751527 
L 287.665983 234.535232 
L 289.175488 226.173137 
L 290.684992 216.48331 
L 292.194497 205.254936 
L 293.704002 192.243724 
L 295.213507 177.166596 
L 296.723012 159.695526 
L 298.232516 139.450406 
L 299.742021 115.990771 
L 301.251526 88.806223 
L 302.761031 57.30532 
L 304.270535 20.802715 
L 305.075334 -1 
L 305.075334 -1 
" clip-path="url(#p77b241fb68)" style="fill: none; stroke: #e86450; stroke-width: 2.2; stroke-linecap: square"/>
   </g>
   <g id="line2d_3">
    <path d="M 7.2 287.2 
L 378.538169 287.090369 
L 398.765533 286.85198 
L 411.143472 286.494339 
L 420.2005 286.016345 
L 427.144222 285.440293 
L 432.88034 284.758228 
L 438.012656 283.926633 
L 442.541171 282.960554 
L 446.465883 281.895455 
L 450.088694 280.676215 
L 453.409605 279.313878 
L 456.428614 277.829998 
L 459.145723 276.257204 
L 461.862831 274.42041 
L 464.278039 272.530413 
L 466.693247 270.360901 
L 469.108454 267.870535 
L 471.221761 265.391128 
L 473.335068 262.593686 
L 475.448374 259.437414 
L 477.561681 255.876285 
L 479.674987 251.858366 
L 481.788294 247.325066 
L 483.901601 242.210275 
L 486.014907 236.439406 
L 488.128214 229.928304 
L 490.241521 222.582016 
L 492.354827 214.293414 
L 494.468134 204.941627 
L 496.581441 194.390278 
L 498.392846 184.275396 
L 500.204252 173.058141 
L 502.015658 160.618373 
L 503.827064 146.822854 
L 505.638469 131.523829 
L 507.449875 114.557436 
L 509.261281 95.741959 
L 511.072686 74.875875 
L 512.884092 51.735696 
L 514.695498 26.073582 
L 516.422411 -1 
L 516.422411 -1 
" clip-path="url(#p77b241fb68)" style="fill: none; stroke: #50b866; stroke-width: 2.2; stroke-linecap: square"/>
   </g>
  </g>
 </g>
 <defs>
  <clipPath id="p77b241fb68">
   <rect x="7.2" y="7.2" width="568" height="280"/>
  </clipPath>
 </defs>
</svg>
