<?xml version="1.0" encoding="utf-8" standalone="no"?>
<!DOCTYPE svg PUBLIC "-//W3C//DTD SVG 1.1//EN"
  "http://www.w3.org/Graphics/SVG/1.1/DTD/svg11.dtd">
<svg xmlns:xlink="http://www.w3.org/1999/xlink" width="364.4pt" height="197.733333pt" viewBox="0 0 364.4 197.733333" xmlns="http://www.w3.org/2000/svg" version="1.1">
 <metadata>
  <rdf:RDF xmlns:dc="http://purl.org/dc/elements/1.1/" xmlns:cc="http://creativecommons.org/ns#" xmlns:rdf="http://www.w3.org/1999/02/22-rdf-syntax-ns#">
   <cc:Work>
    <dc:type rdf:resource="http://purl.org/dc/dcmitype/StillImage"/>
    <dc:date>2026-04-07T18:38:43.863068</dc:date>
    <dc:format>image/svg+xml</dc:format>
    <dc:creator>
     <cc:Agent>
      <dc:title>Matplotlib v3.10.8, https://matplotlib.org/</dc:title>
     </cc:Agent>
    </dc:creator>
   </cc:Work>
  </rdf:RDF>
 </metadata>
 <defs>
  <style type="text/css">*{stroke-linejoin: round; stroke-linecap: butt}</style>
 </defs>
 <g id="figure_1">
  <g id="patch_1">
   <path d="M 0 197.733333 
L 364.4 197.733333 
L 364.4 0 
L 0 0 
L 0 197.733333 
z
" style="fill: none; opacity: 0"/>
  </g>
  <g id="axes_1">
   <g id="patch_2">
    <path d="M 15.533333 182.2 
L 348.866667 182.2 
L 348.866667 15.533333 
L 15.533333 15.533333 
L 15.533333 182.2 
z
" clip-path="url(#p5b1901f540)" style="fill: none; stroke-dasharray: 5.55,2.4; stroke-dashoffset: 0; stroke: #7f8c8d; stroke-width: 1.5; stroke-linejoin: miter"/>
   </g>
   <g id="patch_3">
    <path d="M 283.866667 182.2 
L 347.2 182.2 
Q 348.866667 182.2 348.866667 180.533333 
L 348.866667 133.866667 
Q 348.866667 132.2 347.2 132.2 
L 283.866667 132.2 
Q 282.2 132.2 282.2 133.866667 
L 282.2 180.533333 
Q 282.2 182.2 283.866667 182.2 
z
" clip-path="url(#p5b1901f540)" style="fill: #e74c3c; opacity: 0.85; stroke: #ffffff; stroke-width: 0.8; stroke-linejoin: miter"/>
   </g>
   <g id="patch_4">
    <path d="M 67.2 182.2 
L 147.2 182.2 
Q 148.866667 182.2 148.866667 180.533333 
L 148.866667 150.533333 
Q 148.866667 148.866667 147.2 148.866667 
L 67.2 148.866667 
Q 65.533333 148.866667 65.533333 150.533333 
L 65.533333 180.533333 
Q 65.533333 182.2 67.2 182.2 
z
" clip-path="url(#p5b1901f540)" style="fill: #3498db; opacity: 0.85; stroke: #ffffff; stroke-width: 0.8; stroke-linejoin: miter"/>
   </g>
   <g id="patch_5">
    <path d="M 150.533333 182.2 
L 180.533333 182.2 
Q 182.2 182.2 182.2 180.533333 
L 182.2 83.866667 
Q 182.2 82.2 180.533333 82.2 
L 150.533333 82.2 
Q 148.866667 82.2 148.866667 83.866667 
L 148.866667 180.533333 
Q 148.866667 182.2 150.533333 182.2 
z
" clip-path="url(#p5b1901f540)" style="fill: #2ecc71; opacity: 0.85; stroke: #ffffff; stroke-width: 0.8; stroke-linejoin: miter"/>
   </g>
   <g id="patch_6">
    <path d="M 17.2 182.2 
L 47.2 182.2 
Q 48.866667 182.2 48.866667 180.533333 
L 48.866667 117.2 
Q 48.866667 115.533333 47.2 115.533333 
L 17.2 115.533333 
Q 15.533333 115.533333 15.533333 117.2 
L 15.533333 180.533333 
Q 15.533333 182.2 17.2 182.2 
z
" clip-path="url(#p5b1901f540)" style="fill: #f39c12; opacity: 0.85; stroke: #ffffff; stroke-width: 0.8; stroke-linejoin: miter"/>
   </g>
   <g id="patch_7">
    <path d="M 167.2 48.866667 
L 263.866667 48.866667 
Q 265.533333 48.866667 265.533333 47.2 
L 265.533333 17.2 
Q 265.533333 15.533333 263.866667 15.533333 
L 167.2 15.533333 
Q 165.533333 15.533333 165.533333 17.2 
L 165.533333 47.2 
Q 165.533333 48.866667 167.2 48.866667 
z
" clip-path="url(#p5b1901f540)" style="fill: #9b59b6; opacity: 0.85; stroke: #ffffff; stroke-width: 0.8; stroke-linejoin: miter"/>
   </g>
   <g id="patch_8">
    <path d="M 183.866667 182.2 
L 280.533333 182.2 
Q 282.2 182.2 282.2 180.533333 
L 282.2 133.866667 
Q 282.2 132.2 280.533333 132.2 
L 183.866667 132.2 
Q 182.2 132.2 182.2 133.866667 
L 182.2 180.533333 
Q 182.2 182.2 183.866667 182.2 
z
" clip-path="url(#p5b1901f540)" style="fill: #1abc9c; opacity: 0.85; stroke: #ffffff; stroke-width: 0.8; stroke-linejoin: miter"/>
   </g>
   <g id="patch_9">
    <path d="M 50.533333 148.866667 
L 80.533333 148.866667 
Q 82.2 148.866667 82.2 147.2 
L 82.2 117.2 
Q 82.2 115.533333 80.533333 115.533333 
L 50.533333 115.533333 
Q 48.866667 115.533333 48.866667 117.2 
L 48.866667 147.2 
Q 48.866667 148.866667 50.533333 148.866667 
z
" clip-path="url(#p5b1901f540)" style="fill: #e67e22; opacity: 0.85; stroke: #ffffff; stroke-width: 0.8; stroke-linejoin: miter"/>
   </g>
   <g id="patch_10">
    <path d="M 233.866667 132.2 
L 313.866667 132.2 
Q 315.533333 132.2 315.533333 130.533333 
L 315.533333 50.533333 
Q 315.533333 48.866667 313.866667 48.866667 
L 233.866667 48.866667 
Q 232.2 48.866667 232.2 50.533333 
L 232.2 130.533333 
Q 232.2 132.2 233.866667 132.2 
z
" clip-path="url(#p5b1901f540)" style="fill: #3498db; opacity: 0.85; stroke: #ffffff; stroke-width: 0.8; stroke-linejoin: miter"/>
   </g>
   <g id="patch_11">
    <path d="M 183.866667 132.2 
L 213.866667 132.2 
Q 215.533333 132.2 215.533333 130.533333 
L 215.533333 83.866667 
Q 215.533333 82.2 213.866667 82.2 
L 183.866667 82.2 
Q 182.2 82.2 182.2 83.866667 
L 182.2 130.533333 
Q 182.2 132.2 183.866667 132.2 
z
" clip-path="url(#p5b1901f540)" style="fill: #e74c3c; opacity: 0.85; stroke: #ffffff; stroke-width: 0.8; stroke-linejoin: miter"/>
   </g>
   <g id="patch_12">
    <path d="M 317.2 132.2 
L 347.2 132.2 
Q 348.866667 132.2 348.866667 130.533333 
L 348.866667 33.866667 
Q 348.866667 32.2 347.2 32.2 
L 317.2 32.2 
Q 315.533333 32.2 315.533333 33.866667 
L 315.533333 130.533333 
Q 315.533333 132.2 317.2 132.2 
z
" clip-path="url(#p5b1901f540)" style="fill: #2ecc71; opacity: 0.85; stroke: #ffffff; stroke-width: 0.8; stroke-linejoin: miter"/>
   </g>
   <g id="patch_13">
    <path d="M 150.533333 82.2 
L 230.533333 82.2 
Q 232.2 82.2 232.2 80.533333 
L 232.2 50.533333 
Q 232.2 48.866667 230.533333 48.866667 
L 150.533333 48.866667 
Q 148.866667 48.866667 148.866667 50.533333 
L 148.866667 80.533333 
Q 148.866667 82.2 150.533333 82.2 
z
" clip-path="url(#p5b1901f540)" style="fill: #f39c12; opacity: 0.85; stroke: #ffffff; stroke-width: 0.8; stroke-linejoin: miter"/>
   </g>
   <g id="patch_14">
    <path d="M 17.2 115.533333 
L 147.2 115.533333 
Q 148.866667 115.533333 148.866667 113.866667 
L 148.866667 17.2 
Q 148.866667 15.533333 147.2 15.533333 
L 17.2 15.533333 
Q 15.533333 15.533333 15.533333 17.2 
L 15.533333 113.866667 
Q 15.533333 115.533333 17.2 115.533333 
z
" clip-path="url(#p5b1901f540)" style="fill: #9b59b6; opacity: 0.85; stroke: #ffffff; stroke-width: 0.8; stroke-linejoin: miter"/>
   </g>
  </g>
 </g>
 <defs>
  <clipPath id="p5b1901f540">
   <rect x="7.2" y="7.2" width="350" height="183.333333"/>
  </clipPath>
 </defs>
</svg>
