<?xml version="1.0" encoding="UTF-8" standalone="no"?>
<!DOCTYPE svg PUBLIC "-//W3C//DTD SVG 1.1//EN"
 "http://www.w3.org/Graphics/SVG/1.1/DTD/svg11.dtd">
<!-- Generated by graphviz version 14.1.3 (0)
 -->
<!-- Title: G Pages: 1 -->
<svg width="687pt" height="470pt"
 viewBox="0.00 0.00 687.00 470.00" xmlns="http://www.w3.org/2000/svg" xmlns:xlink="http://www.w3.org/1999/xlink">
<g id="graph0" class="graph" transform="scale(1 1) rotate(0) translate(4 465.75)">
<title>G</title>
<polygon fill="white" stroke="none" points="-4,4 -4,-465.75 683.2,-465.75 683.2,4 -4,4"/>
<text xml:space="preserve" text-anchor="middle" x="339.6" y="-445.4" font-family="Helvetica,sans-Serif" font-size="13.00">Worst ordering &#160;— &#160;27 explored / 31 total</text>
<text xml:space="preserve" text-anchor="middle" x="339.6" y="-430.4" font-family="Helvetica,sans-Serif" font-size="13.00">Items: D(w=3,v=4), C(w=4,v=7), B(w=5,v=9), A(w=6,v=11) &#160;∣ &#160;Capacity: 9</text>
<!-- n1 -->
<g id="node1" class="node">
<title>n1</title>
<path fill="#e3f2fd" stroke="#1565c0" stroke-width="1.2" d="M82.14,-221C82.14,-221 6,-221 6,-221 3,-221 0,-218 0,-215 0,-215 0,-209 0,-209 0,-206 3,-203 6,-203 6,-203 82.14,-203 82.14,-203 85.14,-203 88.14,-206 88.14,-209 88.14,-209 88.14,-215 88.14,-215 88.14,-218 85.14,-221 82.14,-221"/>
<text xml:space="preserve" text-anchor="middle" x="44.07" y="-209.28" font-family="Helvetica,sans-Serif" font-size="8.00" fill="#1565c0">∅ ∣ 0$ ∣ 0kg ∣ ≤31$</text>
</g>
<!-- n2 -->
<g id="node2" class="node">
<title>n2</title>
<path fill="#e3f2fd" stroke="#1565c0" stroke-width="1.2" d="M217.53,-275C217.53,-275 137.64,-275 137.64,-275 134.64,-275 131.64,-272 131.64,-269 131.64,-269 131.64,-263 131.64,-263 131.64,-260 134.64,-257 137.64,-257 137.64,-257 217.53,-257 217.53,-257 220.53,-257 223.53,-260 223.53,-263 223.53,-263 223.53,-269 223.53,-269 223.53,-272 220.53,-275 217.53,-275"/>
<text xml:space="preserve" text-anchor="middle" x="177.58" y="-263.27" font-family="Helvetica,sans-Serif" font-size="8.00" fill="#1565c0">{D} ∣ 4$ ∣ 3kg ∣ ≤31$</text>
</g>
<!-- n1&#45;&gt;n2 -->
<g id="edge1" class="edge">
<title>n1&#45;&gt;n2</title>
<path fill="none" stroke="#555555" d="M68.28,-221.53C90.44,-230.63 123.9,-244.37 147.76,-254.16"/>
<polygon fill="#555555" stroke="#555555" points="146.92,-255.71 152.21,-255.99 148.25,-252.47 146.92,-255.71"/>
<text xml:space="preserve" text-anchor="middle" x="109.89" y="-242.22" font-family="Helvetica,sans-Serif" font-size="7.00" fill="#555555"> +D </text>
</g>
<!-- n17 -->
<g id="node17" class="node">
<title>n17</title>
<path fill="#e3f2fd" stroke="#1565c0" stroke-width="1.2" d="M215.65,-167C215.65,-167 139.51,-167 139.51,-167 136.51,-167 133.51,-164 133.51,-161 133.51,-161 133.51,-155 133.51,-155 133.51,-152 136.51,-149 139.51,-149 139.51,-149 215.65,-149 215.65,-149 218.65,-149 221.65,-152 221.65,-155 221.65,-155 221.65,-161 221.65,-161 221.65,-164 218.65,-167 215.65,-167"/>
<text xml:space="preserve" text-anchor="middle" x="177.58" y="-155.28" font-family="Helvetica,sans-Serif" font-size="8.00" fill="#1565c0">∅ ∣ 0$ ∣ 0kg ∣ ≤27$</text>
</g>
<!-- n1&#45;&gt;n17 -->
<g id="edge16" class="edge">
<title>n1&#45;&gt;n17</title>
<path fill="none" stroke="#555555" d="M68.28,-202.47C90.44,-193.37 123.9,-179.63 147.76,-169.84"/>
<polygon fill="#555555" stroke="#555555" points="148.25,-171.53 152.21,-168.01 146.92,-168.29 148.25,-171.53"/>
<text xml:space="preserve" text-anchor="middle" x="109.89" y="-188.22" font-family="Helvetica,sans-Serif" font-size="7.00" fill="#555555"> −D </text>
</g>
<!-- n3 -->
<g id="node3" class="node">
<title>n3</title>
<path fill="#e3f2fd" stroke="#1565c0" stroke-width="1.2" d="M364.92,-356C364.92,-356 273.03,-356 273.03,-356 270.03,-356 267.03,-353 267.03,-350 267.03,-350 267.03,-344 267.03,-344 267.03,-341 270.03,-338 273.03,-338 273.03,-338 364.92,-338 364.92,-338 367.92,-338 370.92,-341 370.92,-344 370.92,-344 370.92,-350 370.92,-350 370.92,-353 367.92,-356 364.92,-356"/>
<text xml:space="preserve" text-anchor="middle" x="318.97" y="-344.27" font-family="Helvetica,sans-Serif" font-size="8.00" fill="#1565c0">{D,C} ∣ 11$ ∣ 7kg ∣ ≤31$</text>
</g>
<!-- n2&#45;&gt;n3 -->
<g id="edge2" class="edge">
<title>n2&#45;&gt;n3</title>
<path fill="none" stroke="#555555" d="M194.85,-275.45C220.03,-290.08 268.46,-318.23 296.49,-334.52"/>
<polygon fill="#555555" stroke="#555555" points="295.3,-335.85 300.51,-336.85 297.06,-332.82 295.3,-335.85"/>
<text xml:space="preserve" text-anchor="middle" x="245.28" y="-308.1" font-family="Helvetica,sans-Serif" font-size="7.00" fill="#555555"> +C </text>
</g>
<!-- n10 -->
<g id="node10" class="node">
<title>n10</title>
<path fill="#e3f2fd" stroke="#1565c0" stroke-width="1.2" d="M358.92,-275C358.92,-275 279.03,-275 279.03,-275 276.03,-275 273.03,-272 273.03,-269 273.03,-269 273.03,-263 273.03,-263 273.03,-260 276.03,-257 279.03,-257 279.03,-257 358.92,-257 358.92,-257 361.92,-257 364.92,-260 364.92,-263 364.92,-263 364.92,-269 364.92,-269 364.92,-272 361.92,-275 358.92,-275"/>
<text xml:space="preserve" text-anchor="middle" x="318.97" y="-263.27" font-family="Helvetica,sans-Serif" font-size="8.00" fill="#1565c0">{D} ∣ 4$ ∣ 3kg ∣ ≤24$</text>
</g>
<!-- n2&#45;&gt;n10 -->
<g id="edge9" class="edge">
<title>n2&#45;&gt;n10</title>
<path fill="none" stroke="#555555" d="M223.84,-266C237.35,-266 252.27,-266 266.16,-266"/>
<polygon fill="#555555" stroke="#555555" points="265.96,-267.75 270.96,-266 265.96,-264.25 265.96,-267.75"/>
<text xml:space="preserve" text-anchor="middle" x="245.28" y="-267.6" font-family="Helvetica,sans-Serif" font-size="7.00" fill="#555555"> −C </text>
</g>
<!-- n4 -->
<g id="node4" class="node">
<title>n4</title>
<path fill="#ffebee" stroke="#ef5350" stroke-width="1.2" d="M533.31,-396C533.31,-396 419.67,-396 419.67,-396 416.67,-396 413.67,-393 413.67,-390 413.67,-390 413.67,-384 413.67,-384 413.67,-381 416.67,-378 419.67,-378 419.67,-378 533.31,-378 533.31,-378 536.31,-378 539.31,-381 539.31,-384 539.31,-384 539.31,-390 539.31,-390 539.31,-393 536.31,-396 533.31,-396"/>
<text xml:space="preserve" text-anchor="middle" x="476.49" y="-385.02" font-family="Helvetica,sans-Serif" font-size="8.00" fill="#c62828">{D,C,B} ∣ 20$ ∣ 12kg ∣ ≤31$ &#160;✗</text>
</g>
<!-- n3&#45;&gt;n4 -->
<g id="edge3" class="edge">
<title>n3&#45;&gt;n4</title>
<path fill="none" stroke="#555555" d="M357.22,-356.58C379.74,-362.37 408.55,-369.78 432.1,-375.84"/>
<polygon fill="#555555" stroke="#555555" points="431.53,-377.5 436.81,-377.05 432.4,-374.11 431.53,-377.5"/>
<text xml:space="preserve" text-anchor="middle" x="392.29" y="-368.6" font-family="Helvetica,sans-Serif" font-size="7.00" fill="#555555"> +B </text>
</g>
<!-- n7 -->
<g id="node7" class="node">
<title>n7</title>
<path fill="#e3f2fd" stroke="#1565c0" stroke-width="1.2" d="M522.43,-356C522.43,-356 430.54,-356 430.54,-356 427.54,-356 424.54,-353 424.54,-350 424.54,-350 424.54,-344 424.54,-344 424.54,-341 427.54,-338 430.54,-338 430.54,-338 522.43,-338 522.43,-338 525.43,-338 528.43,-341 528.43,-344 528.43,-344 528.43,-350 528.43,-350 528.43,-353 525.43,-356 522.43,-356"/>
<text xml:space="preserve" text-anchor="middle" x="476.49" y="-344.27" font-family="Helvetica,sans-Serif" font-size="8.00" fill="#1565c0">{D,C} ∣ 11$ ∣ 7kg ∣ ≤22$</text>
</g>
<!-- n3&#45;&gt;n7 -->
<g id="edge6" class="edge">
<title>n3&#45;&gt;n7</title>
<path fill="none" stroke="#555555" d="M371.33,-347C386.19,-347 402.51,-347 417.74,-347"/>
<polygon fill="#555555" stroke="#555555" points="417.68,-348.75 422.68,-347 417.68,-345.25 417.68,-348.75"/>
<text xml:space="preserve" text-anchor="middle" x="392.29" y="-348.6" font-family="Helvetica,sans-Serif" font-size="7.00" fill="#555555"> −B </text>
</g>
<!-- n5 -->
<g id="node5" class="node">
<title>n5</title>
<path fill="#fafafa" stroke="#e0d0d0" stroke-width="0.8" d="M651.63,-423C651.63,-423 609.63,-423 609.63,-423 606.63,-423 603.63,-420 603.63,-417 603.63,-417 603.63,-411 603.63,-411 603.63,-408 606.63,-405 609.63,-405 609.63,-405 651.63,-405 651.63,-405 654.63,-405 657.63,-408 657.63,-411 657.63,-411 657.63,-417 657.63,-417 657.63,-420 654.63,-423 651.63,-423"/>
<text xml:space="preserve" text-anchor="middle" x="630.63" y="-411.27" font-family="Helvetica,sans-Serif" font-size="8.00" fill="#ddbbbb">{D,C,B,A}</text>
</g>
<!-- n4&#45;&gt;n5 -->
<g id="edge4" class="edge">
<title>n4&#45;&gt;n5</title>
<path fill="none" stroke="#e0e0e0" d="M531.56,-396.6C553.5,-400.49 578.12,-404.86 597.2,-408.25"/>
<polygon fill="#e0e0e0" stroke="#e0e0e0" points="596.73,-409.94 601.96,-409.09 597.34,-406.49 596.73,-409.94"/>
</g>
<!-- n6 -->
<g id="node6" class="node">
<title>n6</title>
<path fill="#fafafa" stroke="#e0d0d0" stroke-width="0.8" d="M651.63,-396C651.63,-396 609.63,-396 609.63,-396 606.63,-396 603.63,-393 603.63,-390 603.63,-390 603.63,-384 603.63,-384 603.63,-381 606.63,-378 609.63,-378 609.63,-378 651.63,-378 651.63,-378 654.63,-378 657.63,-381 657.63,-384 657.63,-384 657.63,-390 657.63,-390 657.63,-393 654.63,-396 651.63,-396"/>
<text xml:space="preserve" text-anchor="middle" x="630.63" y="-384.27" font-family="Helvetica,sans-Serif" font-size="8.00" fill="#ddbbbb">{D,C,B}</text>
</g>
<!-- n4&#45;&gt;n6 -->
<g id="edge5" class="edge">
<title>n4&#45;&gt;n6</title>
<path fill="none" stroke="#e0e0e0" d="M539.81,-387C559.37,-387 580.19,-387 596.85,-387"/>
<polygon fill="#e0e0e0" stroke="#e0e0e0" points="596.74,-388.75 601.74,-387 596.74,-385.25 596.74,-388.75"/>
</g>
<!-- n8 -->
<g id="node8" class="node">
<title>n8</title>
<path fill="#ffebee" stroke="#ef5350" stroke-width="1.2" d="M673.2,-369C673.2,-369 588.06,-369 588.06,-369 585.06,-369 582.06,-366 582.06,-363 582.06,-363 582.06,-357 582.06,-357 582.06,-354 585.06,-351 588.06,-351 588.06,-351 673.2,-351 673.2,-351 676.2,-351 679.2,-354 679.2,-357 679.2,-357 679.2,-363 679.2,-363 679.2,-366 676.2,-369 673.2,-369"/>
<text xml:space="preserve" text-anchor="middle" x="630.63" y="-358.02" font-family="Helvetica,sans-Serif" font-size="8.00" fill="#c62828">{D,C,A} ∣ 22$ ∣ 13kg &#160;✗</text>
</g>
<!-- n7&#45;&gt;n8 -->
<g id="edge7" class="edge">
<title>n7&#45;&gt;n8</title>
<path fill="none" stroke="#555555" d="M529,-351.4C543.86,-352.67 560.12,-354.06 575.15,-355.34"/>
<polygon fill="#555555" stroke="#555555" points="574.87,-357.08 580,-355.76 575.17,-353.59 574.87,-357.08"/>
<text xml:space="preserve" text-anchor="middle" x="560.68" y="-355.88" font-family="Helvetica,sans-Serif" font-size="7.00" fill="#555555"> +A </text>
</g>
<!-- n9 -->
<g id="node9" class="node">
<title>n9</title>
<path fill="#e3f2fd" stroke="#1565c0" stroke-width="1.2" d="M662.32,-342C662.32,-342 598.93,-342 598.93,-342 595.93,-342 592.93,-339 592.93,-336 592.93,-336 592.93,-330 592.93,-330 592.93,-327 595.93,-324 598.93,-324 598.93,-324 662.32,-324 662.32,-324 665.32,-324 668.32,-327 668.32,-330 668.32,-330 668.32,-336 668.32,-336 668.32,-339 665.32,-342 662.32,-342"/>
<text xml:space="preserve" text-anchor="middle" x="630.63" y="-330.27" font-family="Helvetica,sans-Serif" font-size="8.00" fill="#1565c0">{D,C} ∣ 11$ ∣ 7kg</text>
</g>
<!-- n7&#45;&gt;n9 -->
<g id="edge8" class="edge">
<title>n7&#45;&gt;n9</title>
<path fill="none" stroke="#555555" d="M529,-342.26C547.58,-340.55 568.35,-338.64 586.17,-337"/>
<polygon fill="#555555" stroke="#555555" points="586.27,-338.75 591.09,-336.55 585.95,-335.26 586.27,-338.75"/>
<text xml:space="preserve" text-anchor="middle" x="560.68" y="-341.18" font-family="Helvetica,sans-Serif" font-size="7.00" fill="#555555"> −A </text>
</g>
<!-- n11 -->
<g id="node11" class="node">
<title>n11</title>
<path fill="#e3f2fd" stroke="#1565c0" stroke-width="1.2" d="M522.43,-288C522.43,-288 430.54,-288 430.54,-288 427.54,-288 424.54,-285 424.54,-282 424.54,-282 424.54,-276 424.54,-276 424.54,-273 427.54,-270 430.54,-270 430.54,-270 522.43,-270 522.43,-270 525.43,-270 528.43,-273 528.43,-276 528.43,-276 528.43,-282 528.43,-282 528.43,-285 525.43,-288 522.43,-288"/>
<text xml:space="preserve" text-anchor="middle" x="476.49" y="-276.27" font-family="Helvetica,sans-Serif" font-size="8.00" fill="#1565c0">{D,B} ∣ 13$ ∣ 8kg ∣ ≤24$</text>
</g>
<!-- n10&#45;&gt;n11 -->
<g id="edge10" class="edge">
<title>n10&#45;&gt;n11</title>
<path fill="none" stroke="#555555" d="M365.37,-269.8C381.74,-271.16 400.44,-272.73 417.72,-274.17"/>
<polygon fill="#555555" stroke="#555555" points="417.38,-275.9 422.51,-274.57 417.68,-272.41 417.38,-275.9"/>
<text xml:space="preserve" text-anchor="middle" x="392.29" y="-274.1" font-family="Helvetica,sans-Serif" font-size="7.00" fill="#555555"> +B </text>
</g>
<!-- n14 -->
<g id="node14" class="node">
<title>n14</title>
<path fill="#e3f2fd" stroke="#1565c0" stroke-width="1.2" d="M516.43,-261C516.43,-261 436.54,-261 436.54,-261 433.54,-261 430.54,-258 430.54,-255 430.54,-255 430.54,-249 430.54,-249 430.54,-246 433.54,-243 436.54,-243 436.54,-243 516.43,-243 516.43,-243 519.43,-243 522.43,-246 522.43,-249 522.43,-249 522.43,-255 522.43,-255 522.43,-258 519.43,-261 516.43,-261"/>
<text xml:space="preserve" text-anchor="middle" x="476.49" y="-249.28" font-family="Helvetica,sans-Serif" font-size="8.00" fill="#1565c0">{D} ∣ 4$ ∣ 3kg ∣ ≤15$</text>
</g>
<!-- n10&#45;&gt;n14 -->
<g id="edge13" class="edge">
<title>n10&#45;&gt;n14</title>
<path fill="none" stroke="#555555" d="M365.37,-261.91C383.66,-260.27 404.85,-258.36 423.73,-256.66"/>
<polygon fill="#555555" stroke="#555555" points="423.7,-258.42 428.53,-256.23 423.39,-254.93 423.7,-258.42"/>
<text xml:space="preserve" text-anchor="middle" x="392.29" y="-261.44" font-family="Helvetica,sans-Serif" font-size="7.00" fill="#555555"> −B </text>
</g>
<!-- n12 -->
<g id="node12" class="node">
<title>n12</title>
<path fill="#ffebee" stroke="#ef5350" stroke-width="1.2" d="M672.82,-315C672.82,-315 588.43,-315 588.43,-315 585.43,-315 582.43,-312 582.43,-309 582.43,-309 582.43,-303 582.43,-303 582.43,-300 585.43,-297 588.43,-297 588.43,-297 672.82,-297 672.82,-297 675.82,-297 678.82,-300 678.82,-303 678.82,-303 678.82,-309 678.82,-309 678.82,-312 675.82,-315 672.82,-315"/>
<text xml:space="preserve" text-anchor="middle" x="630.63" y="-304.02" font-family="Helvetica,sans-Serif" font-size="8.00" fill="#c62828">{D,B,A} ∣ 24$ ∣ 14kg &#160;✗</text>
</g>
<!-- n11&#45;&gt;n12 -->
<g id="edge11" class="edge">
<title>n11&#45;&gt;n12</title>
<path fill="none" stroke="#555555" d="M529,-288.14C544.01,-290.8 560.45,-293.72 575.61,-296.41"/>
<polygon fill="#555555" stroke="#555555" points="575.3,-298.14 580.53,-297.29 575.91,-294.69 575.3,-298.14"/>
<text xml:space="preserve" text-anchor="middle" x="560.68" y="-295.72" font-family="Helvetica,sans-Serif" font-size="7.00" fill="#555555"> +A </text>
</g>
<!-- n13 -->
<g id="node13" class="node">
<title>n13</title>
<path fill="#e3f2fd" stroke="#1565c0" stroke-width="1.2" d="M662.32,-288C662.32,-288 598.93,-288 598.93,-288 595.93,-288 592.93,-285 592.93,-282 592.93,-282 592.93,-276 592.93,-276 592.93,-273 595.93,-270 598.93,-270 598.93,-270 662.32,-270 662.32,-270 665.32,-270 668.32,-273 668.32,-276 668.32,-276 668.32,-282 668.32,-282 668.32,-285 665.32,-288 662.32,-288"/>
<text xml:space="preserve" text-anchor="middle" x="630.63" y="-276.27" font-family="Helvetica,sans-Serif" font-size="8.00" fill="#1565c0">{D,B} ∣ 13$ ∣ 8kg</text>
</g>
<!-- n11&#45;&gt;n13 -->
<g id="edge12" class="edge">
<title>n11&#45;&gt;n13</title>
<path fill="none" stroke="#555555" d="M529,-279C547.58,-279 568.35,-279 586.17,-279"/>
<polygon fill="#555555" stroke="#555555" points="586.08,-280.75 591.08,-279 586.08,-277.25 586.08,-280.75"/>
<text xml:space="preserve" text-anchor="middle" x="560.68" y="-280.6" font-family="Helvetica,sans-Serif" font-size="7.00" fill="#555555"> −A </text>
</g>
<!-- n15 -->
<g id="node15" class="node">
<title>n15</title>
<path fill="#e3f2fd" stroke="#1565c0" stroke-width="1.2" d="M662.32,-261C662.32,-261 598.93,-261 598.93,-261 595.93,-261 592.93,-258 592.93,-255 592.93,-255 592.93,-249 592.93,-249 592.93,-246 595.93,-243 598.93,-243 598.93,-243 662.32,-243 662.32,-243 665.32,-243 668.32,-246 668.32,-249 668.32,-249 668.32,-255 668.32,-255 668.32,-258 665.32,-261 662.32,-261"/>
<text xml:space="preserve" text-anchor="middle" x="630.63" y="-249.28" font-family="Helvetica,sans-Serif" font-size="8.00" fill="#1565c0">{D,A} ∣ 15$ ∣ 9kg</text>
</g>
<!-- n14&#45;&gt;n15 -->
<g id="edge14" class="edge">
<title>n14&#45;&gt;n15</title>
<path fill="none" stroke="#555555" d="M522.73,-252C542.8,-252 566.33,-252 586.19,-252"/>
<polygon fill="#555555" stroke="#555555" points="585.99,-253.75 590.99,-252 585.99,-250.25 585.99,-253.75"/>
<text xml:space="preserve" text-anchor="middle" x="560.68" y="-253.6" font-family="Helvetica,sans-Serif" font-size="7.00" fill="#555555"> +A </text>
</g>
<!-- n16 -->
<g id="node16" class="node">
<title>n16</title>
<path fill="#fff3e0" stroke="#ffa726" stroke-width="1.2" d="M660.82,-234C660.82,-234 600.43,-234 600.43,-234 597.43,-234 594.43,-231 594.43,-228 594.43,-228 594.43,-222 594.43,-222 594.43,-219 597.43,-216 600.43,-216 600.43,-216 660.82,-216 660.82,-216 663.82,-216 666.82,-219 666.82,-222 666.82,-222 666.82,-228 666.82,-228 666.82,-231 663.82,-234 660.82,-234"/>
<text xml:space="preserve" text-anchor="middle" x="630.63" y="-223.03" font-family="Helvetica,sans-Serif" font-size="8.00" fill="#e65100">{D} ∣ 4$ ∣ 3kg &#160;✗</text>
</g>
<!-- n14&#45;&gt;n16 -->
<g id="edge15" class="edge">
<title>n14&#45;&gt;n16</title>
<path fill="none" stroke="#555555" d="M522.73,-243.97C543.27,-240.33 567.44,-236.04 587.59,-232.46"/>
<polygon fill="#555555" stroke="#555555" points="587.87,-234.19 592.49,-231.59 587.26,-230.74 587.87,-234.19"/>
<text xml:space="preserve" text-anchor="middle" x="560.68" y="-239.29" font-family="Helvetica,sans-Serif" font-size="7.00" fill="#555555"> −A </text>
</g>
<!-- n18 -->
<g id="node18" class="node">
<title>n18</title>
<path fill="#e3f2fd" stroke="#1565c0" stroke-width="1.2" d="M358.92,-167C358.92,-167 279.03,-167 279.03,-167 276.03,-167 273.03,-164 273.03,-161 273.03,-161 273.03,-155 273.03,-155 273.03,-152 276.03,-149 279.03,-149 279.03,-149 358.92,-149 358.92,-149 361.92,-149 364.92,-152 364.92,-155 364.92,-155 364.92,-161 364.92,-161 364.92,-164 361.92,-167 358.92,-167"/>
<text xml:space="preserve" text-anchor="middle" x="318.97" y="-155.28" font-family="Helvetica,sans-Serif" font-size="8.00" fill="#1565c0">{C} ∣ 7$ ∣ 4kg ∣ ≤27$</text>
</g>
<!-- n17&#45;&gt;n18 -->
<g id="edge17" class="edge">
<title>n17&#45;&gt;n18</title>
<path fill="none" stroke="#555555" d="M221.92,-158C236.05,-158 251.87,-158 266.53,-158"/>
<polygon fill="#555555" stroke="#555555" points="266.22,-159.75 271.22,-158 266.22,-156.25 266.22,-159.75"/>
<text xml:space="preserve" text-anchor="middle" x="245.28" y="-159.6" font-family="Helvetica,sans-Serif" font-size="7.00" fill="#555555"> +C </text>
</g>
<!-- n25 -->
<g id="node25" class="node">
<title>n25</title>
<path fill="#e3f2fd" stroke="#1565c0" stroke-width="1.2" d="M357.04,-91C357.04,-91 280.9,-91 280.9,-91 277.9,-91 274.9,-88 274.9,-85 274.9,-85 274.9,-79 274.9,-79 274.9,-76 277.9,-73 280.9,-73 280.9,-73 357.04,-73 357.04,-73 360.04,-73 363.04,-76 363.04,-79 363.04,-79 363.04,-85 363.04,-85 363.04,-88 360.04,-91 357.04,-91"/>
<text xml:space="preserve" text-anchor="middle" x="318.97" y="-79.28" font-family="Helvetica,sans-Serif" font-size="8.00" fill="#1565c0">∅ ∣ 0$ ∣ 0kg ∣ ≤20$</text>
</g>
<!-- n17&#45;&gt;n25 -->
<g id="edge24" class="edge">
<title>n17&#45;&gt;n25</title>
<path fill="none" stroke="#555555" d="M195.96,-148.53C220.89,-134.93 266.89,-109.85 294.73,-94.67"/>
<polygon fill="#555555" stroke="#555555" points="295.5,-96.25 299.06,-92.32 293.83,-93.17 295.5,-96.25"/>
<text xml:space="preserve" text-anchor="middle" x="245.28" y="-126.15" font-family="Helvetica,sans-Serif" font-size="7.00" fill="#555555"> −C </text>
</g>
<!-- n19 -->
<g id="node19" class="node">
<title>n19</title>
<path fill="#e3f2fd" stroke="#1565c0" stroke-width="1.2" d="M522.43,-180C522.43,-180 430.54,-180 430.54,-180 427.54,-180 424.54,-177 424.54,-174 424.54,-174 424.54,-168 424.54,-168 424.54,-165 427.54,-162 430.54,-162 430.54,-162 522.43,-162 522.43,-162 525.43,-162 528.43,-165 528.43,-168 528.43,-168 528.43,-174 528.43,-174 528.43,-177 525.43,-180 522.43,-180"/>
<text xml:space="preserve" text-anchor="middle" x="476.49" y="-168.28" font-family="Helvetica,sans-Serif" font-size="8.00" fill="#1565c0">{C,B} ∣ 16$ ∣ 9kg ∣ ≤27$</text>
</g>
<!-- n18&#45;&gt;n19 -->
<g id="edge18" class="edge">
<title>n18&#45;&gt;n19</title>
<path fill="none" stroke="#555555" d="M365.37,-161.8C381.74,-163.16 400.44,-164.73 417.72,-166.17"/>
<polygon fill="#555555" stroke="#555555" points="417.38,-167.9 422.51,-166.57 417.68,-164.41 417.38,-167.9"/>
<text xml:space="preserve" text-anchor="middle" x="392.29" y="-166.1" font-family="Helvetica,sans-Serif" font-size="7.00" fill="#555555"> +B </text>
</g>
<!-- n22 -->
<g id="node22" class="node">
<title>n22</title>
<path fill="#e3f2fd" stroke="#1565c0" stroke-width="1.2" d="M516.43,-153C516.43,-153 436.54,-153 436.54,-153 433.54,-153 430.54,-150 430.54,-147 430.54,-147 430.54,-141 430.54,-141 430.54,-138 433.54,-135 436.54,-135 436.54,-135 516.43,-135 516.43,-135 519.43,-135 522.43,-138 522.43,-141 522.43,-141 522.43,-147 522.43,-147 522.43,-150 519.43,-153 516.43,-153"/>
<text xml:space="preserve" text-anchor="middle" x="476.49" y="-141.28" font-family="Helvetica,sans-Serif" font-size="8.00" fill="#1565c0">{C} ∣ 7$ ∣ 4kg ∣ ≤18$</text>
</g>
<!-- n18&#45;&gt;n22 -->
<g id="edge21" class="edge">
<title>n18&#45;&gt;n22</title>
<path fill="none" stroke="#555555" d="M365.37,-153.91C383.66,-152.27 404.85,-150.36 423.73,-148.66"/>
<polygon fill="#555555" stroke="#555555" points="423.7,-150.42 428.53,-148.23 423.39,-146.93 423.7,-150.42"/>
<text xml:space="preserve" text-anchor="middle" x="392.29" y="-153.44" font-family="Helvetica,sans-Serif" font-size="7.00" fill="#555555"> −B </text>
</g>
<!-- n20 -->
<g id="node20" class="node">
<title>n20</title>
<path fill="#ffebee" stroke="#ef5350" stroke-width="1.2" d="M672.82,-207C672.82,-207 588.43,-207 588.43,-207 585.43,-207 582.43,-204 582.43,-201 582.43,-201 582.43,-195 582.43,-195 582.43,-192 585.43,-189 588.43,-189 588.43,-189 672.82,-189 672.82,-189 675.82,-189 678.82,-192 678.82,-195 678.82,-195 678.82,-201 678.82,-201 678.82,-204 675.82,-207 672.82,-207"/>
<text xml:space="preserve" text-anchor="middle" x="630.63" y="-196.03" font-family="Helvetica,sans-Serif" font-size="8.00" fill="#c62828">{C,B,A} ∣ 27$ ∣ 15kg &#160;✗</text>
</g>
<!-- n19&#45;&gt;n20 -->
<g id="edge19" class="edge">
<title>n19&#45;&gt;n20</title>
<path fill="none" stroke="#555555" d="M529,-180.14C544.01,-182.8 560.45,-185.72 575.61,-188.41"/>
<polygon fill="#555555" stroke="#555555" points="575.3,-190.14 580.53,-189.29 575.91,-186.69 575.3,-190.14"/>
<text xml:space="preserve" text-anchor="middle" x="560.68" y="-187.72" font-family="Helvetica,sans-Serif" font-size="7.00" fill="#555555"> +A </text>
</g>
<!-- n21 -->
<g id="node21" class="node">
<title>n21</title>
<path fill="#c8e6c9" stroke="#43a047" stroke-width="2" d="M666.82,-180C666.82,-180 594.43,-180 594.43,-180 591.43,-180 588.43,-177 588.43,-174 588.43,-174 588.43,-168 588.43,-168 588.43,-165 591.43,-162 594.43,-162 594.43,-162 666.82,-162 666.82,-162 669.82,-162 672.82,-165 672.82,-168 672.82,-168 672.82,-174 672.82,-174 672.82,-177 669.82,-180 666.82,-180"/>
<text xml:space="preserve" text-anchor="middle" x="630.63" y="-169.03" font-family="Helvetica,sans-Serif" font-size="8.00" fill="#1b5e20">{C,B} ∣ 16$ ∣ 9kg &#160;★</text>
</g>
<!-- n19&#45;&gt;n21 -->
<g id="edge20" class="edge">
<title>n19&#45;&gt;n21</title>
<path fill="none" stroke="#555555" d="M529,-171C546.04,-171 564.93,-171 581.69,-171"/>
<polygon fill="#555555" stroke="#555555" points="581.25,-172.75 586.25,-171 581.25,-169.25 581.25,-172.75"/>
<text xml:space="preserve" text-anchor="middle" x="560.68" y="-172.6" font-family="Helvetica,sans-Serif" font-size="7.00" fill="#555555"> −A </text>
</g>
<!-- n23 -->
<g id="node23" class="node">
<title>n23</title>
<path fill="#ffebee" stroke="#ef5350" stroke-width="1.2" d="M669.07,-153C669.07,-153 592.18,-153 592.18,-153 589.18,-153 586.18,-150 586.18,-147 586.18,-147 586.18,-141 586.18,-141 586.18,-138 589.18,-135 592.18,-135 592.18,-135 669.07,-135 669.07,-135 672.07,-135 675.07,-138 675.07,-141 675.07,-141 675.07,-147 675.07,-147 675.07,-150 672.07,-153 669.07,-153"/>
<text xml:space="preserve" text-anchor="middle" x="630.63" y="-142.03" font-family="Helvetica,sans-Serif" font-size="8.00" fill="#c62828">{C,A} ∣ 18$ ∣ 10kg &#160;✗</text>
</g>
<!-- n22&#45;&gt;n23 -->
<g id="edge22" class="edge">
<title>n22&#45;&gt;n23</title>
<path fill="none" stroke="#555555" d="M522.73,-144C540.59,-144 561.18,-144 579.5,-144"/>
<polygon fill="#555555" stroke="#555555" points="579.1,-145.75 584.1,-144 579.1,-142.25 579.1,-145.75"/>
<text xml:space="preserve" text-anchor="middle" x="560.68" y="-145.6" font-family="Helvetica,sans-Serif" font-size="7.00" fill="#555555"> +A </text>
</g>
<!-- n24 -->
<g id="node24" class="node">
<title>n24</title>
<path fill="#fff3e0" stroke="#ffa726" stroke-width="1.2" d="M660.82,-126C660.82,-126 600.43,-126 600.43,-126 597.43,-126 594.43,-123 594.43,-120 594.43,-120 594.43,-114 594.43,-114 594.43,-111 597.43,-108 600.43,-108 600.43,-108 660.82,-108 660.82,-108 663.82,-108 666.82,-111 666.82,-114 666.82,-114 666.82,-120 666.82,-120 666.82,-123 663.82,-126 660.82,-126"/>
<text xml:space="preserve" text-anchor="middle" x="630.63" y="-115.03" font-family="Helvetica,sans-Serif" font-size="8.00" fill="#e65100">{C} ∣ 7$ ∣ 4kg &#160;✗</text>
</g>
<!-- n22&#45;&gt;n24 -->
<g id="edge23" class="edge">
<title>n22&#45;&gt;n24</title>
<path fill="none" stroke="#555555" d="M522.73,-135.97C543.27,-132.33 567.44,-128.04 587.59,-124.46"/>
<polygon fill="#555555" stroke="#555555" points="587.87,-126.19 592.49,-123.59 587.26,-122.74 587.87,-126.19"/>
<text xml:space="preserve" text-anchor="middle" x="560.68" y="-131.29" font-family="Helvetica,sans-Serif" font-size="7.00" fill="#555555"> −A </text>
</g>
<!-- n26 -->
<g id="node26" class="node">
<title>n26</title>
<path fill="#e3f2fd" stroke="#1565c0" stroke-width="1.2" d="M516.06,-91C516.06,-91 436.92,-91 436.92,-91 433.92,-91 430.92,-88 430.92,-85 430.92,-85 430.92,-79 430.92,-79 430.92,-76 433.92,-73 436.92,-73 436.92,-73 516.06,-73 516.06,-73 519.06,-73 522.06,-76 522.06,-79 522.06,-79 522.06,-85 522.06,-85 522.06,-88 519.06,-91 516.06,-91"/>
<text xml:space="preserve" text-anchor="middle" x="476.49" y="-79.28" font-family="Helvetica,sans-Serif" font-size="8.00" fill="#1565c0">{B} ∣ 9$ ∣ 5kg ∣ ≤20$</text>
</g>
<!-- n25&#45;&gt;n26 -->
<g id="edge25" class="edge">
<title>n25&#45;&gt;n26</title>
<path fill="none" stroke="#555555" d="M363.29,-82C382.19,-82 404.49,-82 424.2,-82"/>
<polygon fill="#555555" stroke="#555555" points="423.99,-83.75 428.99,-82 423.99,-80.25 423.99,-83.75"/>
<text xml:space="preserve" text-anchor="middle" x="392.29" y="-83.6" font-family="Helvetica,sans-Serif" font-size="7.00" fill="#555555"> +B </text>
</g>
<!-- n29 -->
<g id="node29" class="node">
<title>n29</title>
<path fill="#fff3e0" stroke="#ffa726" stroke-width="1.2" d="M518.68,-45C518.68,-45 434.29,-45 434.29,-45 431.29,-45 428.29,-42 428.29,-39 428.29,-39 428.29,-33 428.29,-33 428.29,-30 431.29,-27 434.29,-27 434.29,-27 518.68,-27 518.68,-27 521.68,-27 524.68,-30 524.68,-33 524.68,-33 524.68,-39 524.68,-39 524.68,-42 521.68,-45 518.68,-45"/>
<text xml:space="preserve" text-anchor="middle" x="476.49" y="-34.02" font-family="Helvetica,sans-Serif" font-size="8.00" fill="#e65100">∅ ∣ 0$ ∣ 0kg ∣ ≤11$ &#160;✗</text>
</g>
<!-- n25&#45;&gt;n29 -->
<g id="edge28" class="edge">
<title>n25&#45;&gt;n29</title>
<path fill="none" stroke="#555555" d="M352.2,-72.47C376.82,-65.18 410.86,-55.12 436.93,-47.4"/>
<polygon fill="#555555" stroke="#555555" points="437.29,-49.12 441.59,-46.03 436.3,-45.77 437.29,-49.12"/>
<text xml:space="preserve" text-anchor="middle" x="392.29" y="-63.35" font-family="Helvetica,sans-Serif" font-size="7.00" fill="#555555"> −B </text>
</g>
<!-- n27 -->
<g id="node27" class="node">
<title>n27</title>
<path fill="#ffebee" stroke="#ef5350" stroke-width="1.2" d="M668.32,-99C668.32,-99 592.93,-99 592.93,-99 589.93,-99 586.93,-96 586.93,-93 586.93,-93 586.93,-87 586.93,-87 586.93,-84 589.93,-81 592.93,-81 592.93,-81 668.32,-81 668.32,-81 671.32,-81 674.32,-84 674.32,-87 674.32,-87 674.32,-93 674.32,-93 674.32,-96 671.32,-99 668.32,-99"/>
<text xml:space="preserve" text-anchor="middle" x="630.63" y="-88.03" font-family="Helvetica,sans-Serif" font-size="8.00" fill="#c62828">{B,A} ∣ 20$ ∣ 11kg &#160;✗</text>
</g>
<!-- n26&#45;&gt;n27 -->
<g id="edge26" class="edge">
<title>n26&#45;&gt;n27</title>
<path fill="none" stroke="#555555" d="M522.31,-84.36C540.51,-85.31 561.58,-86.42 580.22,-87.4"/>
<polygon fill="#555555" stroke="#555555" points="579.84,-89.13 584.92,-87.65 580.02,-85.64 579.84,-89.13"/>
<text xml:space="preserve" text-anchor="middle" x="560.68" y="-88.08" font-family="Helvetica,sans-Serif" font-size="7.00" fill="#555555"> +A </text>
</g>
<!-- n28 -->
<g id="node28" class="node">
<title>n28</title>
<path fill="#fff3e0" stroke="#ffa726" stroke-width="1.2" d="M660.45,-72C660.45,-72 600.81,-72 600.81,-72 597.81,-72 594.81,-69 594.81,-66 594.81,-66 594.81,-60 594.81,-60 594.81,-57 597.81,-54 600.81,-54 600.81,-54 660.45,-54 660.45,-54 663.45,-54 666.45,-57 666.45,-60 666.45,-60 666.45,-66 666.45,-66 666.45,-69 663.45,-72 660.45,-72"/>
<text xml:space="preserve" text-anchor="middle" x="630.63" y="-61.02" font-family="Helvetica,sans-Serif" font-size="8.00" fill="#e65100">{B} ∣ 9$ ∣ 5kg &#160;✗</text>
</g>
<!-- n26&#45;&gt;n28 -->
<g id="edge27" class="edge">
<title>n26&#45;&gt;n28</title>
<path fill="none" stroke="#555555" d="M522.31,-76.4C543.04,-73.81 567.5,-70.76 587.84,-68.22"/>
<polygon fill="#555555" stroke="#555555" points="588.04,-69.96 592.78,-67.6 587.6,-66.48 588.04,-69.96"/>
<text xml:space="preserve" text-anchor="middle" x="560.68" y="-73.53" font-family="Helvetica,sans-Serif" font-size="7.00" fill="#555555"> −A </text>
</g>
<!-- n30 -->
<g id="node30" class="node">
<title>n30</title>
<path fill="#fafafa" stroke="#e0e0e0" stroke-width="0.8" d="M651.63,-45C651.63,-45 609.63,-45 609.63,-45 606.63,-45 603.63,-42 603.63,-39 603.63,-39 603.63,-33 603.63,-33 603.63,-30 606.63,-27 609.63,-27 609.63,-27 651.63,-27 651.63,-27 654.63,-27 657.63,-30 657.63,-33 657.63,-33 657.63,-39 657.63,-39 657.63,-42 654.63,-45 651.63,-45"/>
<text xml:space="preserve" text-anchor="middle" x="630.63" y="-33.27" font-family="Helvetica,sans-Serif" font-size="8.00" fill="#cccccc">{A}</text>
</g>
<!-- n29&#45;&gt;n30 -->
<g id="edge29" class="edge">
<title>n29&#45;&gt;n30</title>
<path fill="none" stroke="#e0e0e0" d="M525.21,-36C548.59,-36 576.13,-36 597.06,-36"/>
<polygon fill="#e0e0e0" stroke="#e0e0e0" points="596.82,-37.75 601.82,-36 596.82,-34.25 596.82,-37.75"/>
</g>
<!-- n31 -->
<g id="node31" class="node">
<title>n31</title>
<path fill="#fafafa" stroke="#e0e0e0" stroke-width="0.8" d="M651.63,-18C651.63,-18 609.63,-18 609.63,-18 606.63,-18 603.63,-15 603.63,-12 603.63,-12 603.63,-6 603.63,-6 603.63,-3 606.63,0 609.63,0 609.63,0 651.63,0 651.63,0 654.63,0 657.63,-3 657.63,-6 657.63,-6 657.63,-12 657.63,-12 657.63,-15 654.63,-18 651.63,-18"/>
<text xml:space="preserve" text-anchor="middle" x="630.63" y="-5.53" font-family="Helvetica,sans-Serif" font-size="8.00" fill="#cccccc">∅</text>
</g>
<!-- n29&#45;&gt;n31 -->
<g id="edge30" class="edge">
<title>n29&#45;&gt;n31</title>
<path fill="none" stroke="#e0e0e0" d="M525.21,-27.53C548.59,-23.38 576.13,-18.49 597.06,-14.78"/>
<polygon fill="#e0e0e0" stroke="#e0e0e0" points="597.22,-16.53 601.84,-13.93 596.61,-13.08 597.22,-16.53"/>
</g>
</g>
</svg>
