<?xml version="1.0" encoding="UTF-8" standalone="no"?>
<!DOCTYPE svg PUBLIC "-//W3C//DTD SVG 1.1//EN"
 "http://www.w3.org/Graphics/SVG/1.1/DTD/svg11.dtd">
<!-- Generated by graphviz version 14.1.3 (0)
 -->
<!-- Title: G Pages: 1 -->
<svg width="709pt" height="470pt"
 viewBox="0.00 0.00 709.00 470.00" xmlns="http://www.w3.org/2000/svg" xmlns:xlink="http://www.w3.org/1999/xlink">
<g id="graph0" class="graph" transform="scale(1 1) rotate(0) translate(4 465.75)">
<title>G</title>
<polygon fill="white" stroke="none" points="-4,4 -4,-465.75 704.95,-465.75 704.95,4 -4,4"/>
<text xml:space="preserve" text-anchor="middle" x="350.47" y="-445.4" font-family="Helvetica,sans-Serif" font-size="13.00">No Pruning &#160;— &#160;31 explored / 31 total</text>
<text xml:space="preserve" text-anchor="middle" x="350.47" y="-430.4" font-family="Helvetica,sans-Serif" font-size="13.00">Items: A(w=6,v=11), B(w=5,v=9), C(w=4,v=7), D(w=3,v=4) &#160;∣ &#160;Capacity: 9</text>
<!-- n1 -->
<g id="node1" class="node">
<title>n1</title>
<path fill="#e3f2fd" stroke="#1565c0" stroke-width="1.2" d="M82.14,-221C82.14,-221 6,-221 6,-221 3,-221 0,-218 0,-215 0,-215 0,-209 0,-209 0,-206 3,-203 6,-203 6,-203 82.14,-203 82.14,-203 85.14,-203 88.14,-206 88.14,-209 88.14,-209 88.14,-215 88.14,-215 88.14,-218 85.14,-221 82.14,-221"/>
<text xml:space="preserve" text-anchor="middle" x="44.07" y="-209.28" font-family="Helvetica,sans-Serif" font-size="8.00" fill="#1565c0">∅ ∣ 0$ ∣ 0kg ∣ ≤31$</text>
</g>
<!-- n2 -->
<g id="node2" class="node">
<title>n2</title>
<path fill="#e3f2fd" stroke="#1565c0" stroke-width="1.2" d="M219.78,-275C219.78,-275 136.89,-275 136.89,-275 133.89,-275 130.89,-272 130.89,-269 130.89,-269 130.89,-263 130.89,-263 130.89,-260 133.89,-257 136.89,-257 136.89,-257 219.78,-257 219.78,-257 222.78,-257 225.78,-260 225.78,-263 225.78,-263 225.78,-269 225.78,-269 225.78,-272 222.78,-275 219.78,-275"/>
<text xml:space="preserve" text-anchor="middle" x="178.33" y="-263.27" font-family="Helvetica,sans-Serif" font-size="8.00" fill="#1565c0">{A} ∣ 11$ ∣ 6kg ∣ ≤31$</text>
</g>
<!-- n1&#45;&gt;n2 -->
<g id="edge1" class="edge">
<title>n1&#45;&gt;n2</title>
<path fill="none" stroke="#555555" d="M68.41,-221.53C90.7,-230.63 124.35,-244.37 148.35,-254.16"/>
<polygon fill="#555555" stroke="#555555" points="147.53,-255.72 152.83,-255.99 148.86,-252.48 147.53,-255.72"/>
<text xml:space="preserve" text-anchor="middle" x="109.51" y="-242.22" font-family="Helvetica,sans-Serif" font-size="7.00" fill="#555555"> +A </text>
</g>
<!-- n17 -->
<g id="node17" class="node">
<title>n17</title>
<path fill="#e3f2fd" stroke="#1565c0" stroke-width="1.2" d="M216.4,-167C216.4,-167 140.26,-167 140.26,-167 137.26,-167 134.26,-164 134.26,-161 134.26,-161 134.26,-155 134.26,-155 134.26,-152 137.26,-149 140.26,-149 140.26,-149 216.4,-149 216.4,-149 219.4,-149 222.4,-152 222.4,-155 222.4,-155 222.4,-161 222.4,-161 222.4,-164 219.4,-167 216.4,-167"/>
<text xml:space="preserve" text-anchor="middle" x="178.33" y="-155.28" font-family="Helvetica,sans-Serif" font-size="8.00" fill="#1565c0">∅ ∣ 0$ ∣ 0kg ∣ ≤20$</text>
</g>
<!-- n1&#45;&gt;n17 -->
<g id="edge16" class="edge">
<title>n1&#45;&gt;n17</title>
<path fill="none" stroke="#555555" d="M68.41,-202.47C90.7,-193.37 124.35,-179.63 148.35,-169.84"/>
<polygon fill="#555555" stroke="#555555" points="148.86,-171.52 152.83,-168.01 147.53,-168.28 148.86,-171.52"/>
<text xml:space="preserve" text-anchor="middle" x="109.51" y="-189.83" font-family="Helvetica,sans-Serif" font-size="7.00" fill="#555555"> −A </text>
</g>
<!-- n3 -->
<g id="node3" class="node">
<title>n3</title>
<path fill="#ffebee" stroke="#ef5350" stroke-width="1.2" d="M378.42,-356C378.42,-356 274.53,-356 274.53,-356 271.53,-356 268.53,-353 268.53,-350 268.53,-350 268.53,-344 268.53,-344 268.53,-341 271.53,-338 274.53,-338 274.53,-338 378.42,-338 378.42,-338 381.42,-338 384.42,-341 384.42,-344 384.42,-344 384.42,-350 384.42,-350 384.42,-353 381.42,-356 378.42,-356"/>
<text xml:space="preserve" text-anchor="middle" x="326.47" y="-345.02" font-family="Helvetica,sans-Serif" font-size="8.00" fill="#c62828">{A,B} ∣ 20$ ∣ 11kg ∣ ≤31$ &#160;✗</text>
</g>
<!-- n2&#45;&gt;n3 -->
<g id="edge2" class="edge">
<title>n2&#45;&gt;n3</title>
<path fill="none" stroke="#555555" d="M196.39,-275.45C222.78,-290.08 273.57,-318.23 302.95,-334.52"/>
<polygon fill="#555555" stroke="#555555" points="301.99,-335.98 307.21,-336.88 303.68,-332.92 301.99,-335.98"/>
<text xml:space="preserve" text-anchor="middle" x="247.15" y="-308.1" font-family="Helvetica,sans-Serif" font-size="7.00" fill="#555555"> +B </text>
</g>
<!-- n10 -->
<g id="node10" class="node">
<title>n10</title>
<path fill="#e3f2fd" stroke="#1565c0" stroke-width="1.2" d="M367.92,-275C367.92,-275 285.03,-275 285.03,-275 282.03,-275 279.03,-272 279.03,-269 279.03,-269 279.03,-263 279.03,-263 279.03,-260 282.03,-257 285.03,-257 285.03,-257 367.92,-257 367.92,-257 370.92,-257 373.92,-260 373.92,-263 373.92,-263 373.92,-269 373.92,-269 373.92,-272 370.92,-275 367.92,-275"/>
<text xml:space="preserve" text-anchor="middle" x="326.47" y="-263.27" font-family="Helvetica,sans-Serif" font-size="8.00" fill="#1565c0">{A} ∣ 11$ ∣ 6kg ∣ ≤22$</text>
</g>
<!-- n2&#45;&gt;n10 -->
<g id="edge9" class="edge">
<title>n2&#45;&gt;n10</title>
<path fill="none" stroke="#555555" d="M226.38,-266C240.98,-266 257.18,-266 272.17,-266"/>
<polygon fill="#555555" stroke="#555555" points="272.01,-267.75 277.01,-266 272.01,-264.25 272.01,-267.75"/>
<text xml:space="preserve" text-anchor="middle" x="247.15" y="-267.6" font-family="Helvetica,sans-Serif" font-size="7.00" fill="#555555"> −B </text>
</g>
<!-- n4 -->
<g id="node4" class="node">
<title>n4</title>
<path fill="#ffebee" stroke="#ef5350" stroke-width="1.2" d="M546.81,-396C546.81,-396 433.92,-396 433.92,-396 430.92,-396 427.92,-393 427.92,-390 427.92,-390 427.92,-384 427.92,-384 427.92,-381 430.92,-378 433.92,-378 433.92,-378 546.81,-378 546.81,-378 549.81,-378 552.81,-381 552.81,-384 552.81,-384 552.81,-390 552.81,-390 552.81,-393 549.81,-396 546.81,-396"/>
<text xml:space="preserve" text-anchor="middle" x="490.36" y="-385.02" font-family="Helvetica,sans-Serif" font-size="8.00" fill="#c62828">{A,B,C} ∣ 27$ ∣ 15kg ∣ ≤31$ &#160;✗</text>
</g>
<!-- n3&#45;&gt;n4 -->
<g id="edge3" class="edge">
<title>n3&#45;&gt;n4</title>
<path fill="none" stroke="#555555" d="M366.25,-356.58C389.79,-362.4 419.94,-369.85 444.51,-375.92"/>
<polygon fill="#555555" stroke="#555555" points="443.88,-377.56 449.16,-377.06 444.72,-374.17 443.88,-377.56"/>
<text xml:space="preserve" text-anchor="middle" x="406.17" y="-368.6" font-family="Helvetica,sans-Serif" font-size="7.00" fill="#555555"> +C </text>
</g>
<!-- n7 -->
<g id="node7" class="node">
<title>n7</title>
<path fill="#ffebee" stroke="#ef5350" stroke-width="1.2" d="M542.31,-356C542.31,-356 438.42,-356 438.42,-356 435.42,-356 432.42,-353 432.42,-350 432.42,-350 432.42,-344 432.42,-344 432.42,-341 435.42,-338 438.42,-338 438.42,-338 542.31,-338 542.31,-338 545.31,-338 548.31,-341 548.31,-344 548.31,-344 548.31,-350 548.31,-350 548.31,-353 545.31,-356 542.31,-356"/>
<text xml:space="preserve" text-anchor="middle" x="490.36" y="-345.02" font-family="Helvetica,sans-Serif" font-size="8.00" fill="#c62828">{A,B} ∣ 20$ ∣ 11kg ∣ ≤24$ &#160;✗</text>
</g>
<!-- n3&#45;&gt;n7 -->
<g id="edge6" class="edge">
<title>n3&#45;&gt;n7</title>
<path fill="none" stroke="#555555" d="M385.01,-347C398.13,-347 412.15,-347 425.52,-347"/>
<polygon fill="#555555" stroke="#555555" points="425.5,-348.75 430.5,-347 425.5,-345.25 425.5,-348.75"/>
<text xml:space="preserve" text-anchor="middle" x="406.17" y="-348.6" font-family="Helvetica,sans-Serif" font-size="7.00" fill="#555555"> −C </text>
</g>
<!-- n5 -->
<g id="node5" class="node">
<title>n5</title>
<path fill="#ffebee" stroke="#ef5350" stroke-width="1.2" d="M694.95,-423C694.95,-423 602.31,-423 602.31,-423 599.31,-423 596.31,-420 596.31,-417 596.31,-417 596.31,-411 596.31,-411 596.31,-408 599.31,-405 602.31,-405 602.31,-405 694.95,-405 694.95,-405 697.95,-405 700.95,-408 700.95,-411 700.95,-411 700.95,-417 700.95,-417 700.95,-420 697.95,-423 694.95,-423"/>
<text xml:space="preserve" text-anchor="middle" x="648.63" y="-412.02" font-family="Helvetica,sans-Serif" font-size="8.00" fill="#c62828">{A,B,C,D} ∣ 31$ ∣ 18kg &#160;✗</text>
</g>
<!-- n4&#45;&gt;n5 -->
<g id="edge4" class="edge">
<title>n4&#45;&gt;n5</title>
<path fill="none" stroke="#555555" d="M546.9,-396.6C560.74,-398.99 575.62,-401.56 589.59,-403.97"/>
<polygon fill="#555555" stroke="#555555" points="589.22,-405.68 594.44,-404.81 589.81,-402.23 589.22,-405.68"/>
<text xml:space="preserve" text-anchor="middle" x="574.56" y="-403.72" font-family="Helvetica,sans-Serif" font-size="7.00" fill="#555555"> +D </text>
</g>
<!-- n6 -->
<g id="node6" class="node">
<title>n6</title>
<path fill="#ffebee" stroke="#ef5350" stroke-width="1.2" d="M690.82,-396C690.82,-396 606.43,-396 606.43,-396 603.43,-396 600.43,-393 600.43,-390 600.43,-390 600.43,-384 600.43,-384 600.43,-381 603.43,-378 606.43,-378 606.43,-378 690.82,-378 690.82,-378 693.82,-378 696.82,-381 696.82,-384 696.82,-384 696.82,-390 696.82,-390 696.82,-393 693.82,-396 690.82,-396"/>
<text xml:space="preserve" text-anchor="middle" x="648.63" y="-385.02" font-family="Helvetica,sans-Serif" font-size="8.00" fill="#c62828">{A,B,C} ∣ 27$ ∣ 15kg &#160;✗</text>
</g>
<!-- n4&#45;&gt;n6 -->
<g id="edge5" class="edge">
<title>n4&#45;&gt;n6</title>
<path fill="none" stroke="#555555" d="M553.13,-387C566.61,-387 580.79,-387 593.93,-387"/>
<polygon fill="#555555" stroke="#555555" points="593.78,-388.75 598.78,-387 593.78,-385.25 593.78,-388.75"/>
<text xml:space="preserve" text-anchor="middle" x="574.56" y="-388.6" font-family="Helvetica,sans-Serif" font-size="7.00" fill="#555555"> −D </text>
</g>
<!-- n8 -->
<g id="node8" class="node">
<title>n8</title>
<path fill="#ffebee" stroke="#ef5350" stroke-width="1.2" d="M690.82,-369C690.82,-369 606.43,-369 606.43,-369 603.43,-369 600.43,-366 600.43,-363 600.43,-363 600.43,-357 600.43,-357 600.43,-354 603.43,-351 606.43,-351 606.43,-351 690.82,-351 690.82,-351 693.82,-351 696.82,-354 696.82,-357 696.82,-357 696.82,-363 696.82,-363 696.82,-366 693.82,-369 690.82,-369"/>
<text xml:space="preserve" text-anchor="middle" x="648.63" y="-358.02" font-family="Helvetica,sans-Serif" font-size="8.00" fill="#c62828">{A,B,D} ∣ 24$ ∣ 14kg &#160;✗</text>
</g>
<!-- n7&#45;&gt;n8 -->
<g id="edge7" class="edge">
<title>n7&#45;&gt;n8</title>
<path fill="none" stroke="#555555" d="M548.66,-351.77C563.45,-353 579.31,-354.32 593.91,-355.53"/>
<polygon fill="#555555" stroke="#555555" points="593.44,-357.25 598.57,-355.92 593.73,-353.76 593.44,-357.25"/>
<text xml:space="preserve" text-anchor="middle" x="574.56" y="-355.88" font-family="Helvetica,sans-Serif" font-size="7.00" fill="#555555"> +D </text>
</g>
<!-- n9 -->
<g id="node9" class="node">
<title>n9</title>
<path fill="#ffebee" stroke="#ef5350" stroke-width="1.2" d="M686.32,-342C686.32,-342 610.93,-342 610.93,-342 607.93,-342 604.93,-339 604.93,-336 604.93,-336 604.93,-330 604.93,-330 604.93,-327 607.93,-324 610.93,-324 610.93,-324 686.32,-324 686.32,-324 689.32,-324 692.32,-327 692.32,-330 692.32,-330 692.32,-336 692.32,-336 692.32,-339 689.32,-342 686.32,-342"/>
<text xml:space="preserve" text-anchor="middle" x="648.63" y="-331.02" font-family="Helvetica,sans-Serif" font-size="8.00" fill="#c62828">{A,B} ∣ 20$ ∣ 11kg &#160;✗</text>
</g>
<!-- n7&#45;&gt;n9 -->
<g id="edge8" class="edge">
<title>n7&#45;&gt;n9</title>
<path fill="none" stroke="#555555" d="M548.66,-341.87C564.97,-340.41 582.57,-338.83 598.36,-337.41"/>
<polygon fill="#555555" stroke="#555555" points="598.2,-339.19 603.03,-337 597.89,-335.7 598.2,-339.19"/>
<text xml:space="preserve" text-anchor="middle" x="574.56" y="-341.6" font-family="Helvetica,sans-Serif" font-size="7.00" fill="#555555"> −D </text>
</g>
<!-- n11 -->
<g id="node11" class="node">
<title>n11</title>
<path fill="#ffebee" stroke="#ef5350" stroke-width="1.2" d="M543.06,-288C543.06,-288 437.67,-288 437.67,-288 434.67,-288 431.67,-285 431.67,-282 431.67,-282 431.67,-276 431.67,-276 431.67,-273 434.67,-270 437.67,-270 437.67,-270 543.06,-270 543.06,-270 546.06,-270 549.06,-273 549.06,-276 549.06,-276 549.06,-282 549.06,-282 549.06,-285 546.06,-288 543.06,-288"/>
<text xml:space="preserve" text-anchor="middle" x="490.36" y="-277.02" font-family="Helvetica,sans-Serif" font-size="8.00" fill="#c62828">{A,C} ∣ 18$ ∣ 10kg ∣ ≤22$ &#160;✗</text>
</g>
<!-- n10&#45;&gt;n11 -->
<g id="edge10" class="edge">
<title>n10&#45;&gt;n11</title>
<path fill="none" stroke="#555555" d="M374.3,-269.76C390.1,-271.03 408.03,-272.47 424.95,-273.83"/>
<polygon fill="#555555" stroke="#555555" points="424.5,-275.55 429.62,-274.2 424.78,-272.06 424.5,-275.55"/>
<text xml:space="preserve" text-anchor="middle" x="406.17" y="-274.1" font-family="Helvetica,sans-Serif" font-size="7.00" fill="#555555"> +C </text>
</g>
<!-- n14 -->
<g id="node14" class="node">
<title>n14</title>
<path fill="#e3f2fd" stroke="#1565c0" stroke-width="1.2" d="M531.81,-261C531.81,-261 448.92,-261 448.92,-261 445.92,-261 442.92,-258 442.92,-255 442.92,-255 442.92,-249 442.92,-249 442.92,-246 445.92,-243 448.92,-243 448.92,-243 531.81,-243 531.81,-243 534.81,-243 537.81,-246 537.81,-249 537.81,-249 537.81,-255 537.81,-255 537.81,-258 534.81,-261 531.81,-261"/>
<text xml:space="preserve" text-anchor="middle" x="490.36" y="-249.28" font-family="Helvetica,sans-Serif" font-size="8.00" fill="#1565c0">{A} ∣ 11$ ∣ 6kg ∣ ≤15$</text>
</g>
<!-- n10&#45;&gt;n14 -->
<g id="edge13" class="edge">
<title>n10&#45;&gt;n14</title>
<path fill="none" stroke="#555555" d="M374.3,-261.95C393.6,-260.28 416.06,-258.34 435.99,-256.62"/>
<polygon fill="#555555" stroke="#555555" points="436.03,-258.37 440.86,-256.19 435.72,-254.88 436.03,-258.37"/>
<text xml:space="preserve" text-anchor="middle" x="406.17" y="-261.02" font-family="Helvetica,sans-Serif" font-size="7.00" fill="#555555"> −C </text>
</g>
<!-- n12 -->
<g id="node12" class="node">
<title>n12</title>
<path fill="#ffebee" stroke="#ef5350" stroke-width="1.2" d="M691.2,-315C691.2,-315 606.06,-315 606.06,-315 603.06,-315 600.06,-312 600.06,-309 600.06,-309 600.06,-303 600.06,-303 600.06,-300 603.06,-297 606.06,-297 606.06,-297 691.2,-297 691.2,-297 694.2,-297 697.2,-300 697.2,-303 697.2,-303 697.2,-309 697.2,-309 697.2,-312 694.2,-315 691.2,-315"/>
<text xml:space="preserve" text-anchor="middle" x="648.63" y="-304.02" font-family="Helvetica,sans-Serif" font-size="8.00" fill="#c62828">{A,C,D} ∣ 22$ ∣ 13kg &#160;✗</text>
</g>
<!-- n11&#45;&gt;n12 -->
<g id="edge11" class="edge">
<title>n11&#45;&gt;n12</title>
<path fill="none" stroke="#555555" d="M546.9,-288.6C561.94,-291.19 578.21,-294.01 593.19,-296.59"/>
<polygon fill="#555555" stroke="#555555" points="592.81,-298.3 598.04,-297.43 593.41,-294.86 592.81,-298.3"/>
<text xml:space="preserve" text-anchor="middle" x="574.56" y="-295.72" font-family="Helvetica,sans-Serif" font-size="7.00" fill="#555555"> +D </text>
</g>
<!-- n13 -->
<g id="node13" class="node">
<title>n13</title>
<path fill="#ffebee" stroke="#ef5350" stroke-width="1.2" d="M687.07,-288C687.07,-288 610.18,-288 610.18,-288 607.18,-288 604.18,-285 604.18,-282 604.18,-282 604.18,-276 604.18,-276 604.18,-273 607.18,-270 610.18,-270 610.18,-270 687.07,-270 687.07,-270 690.07,-270 693.07,-273 693.07,-276 693.07,-276 693.07,-282 693.07,-282 693.07,-285 690.07,-288 687.07,-288"/>
<text xml:space="preserve" text-anchor="middle" x="648.63" y="-277.02" font-family="Helvetica,sans-Serif" font-size="8.00" fill="#c62828">{A,C} ∣ 18$ ∣ 10kg &#160;✗</text>
</g>
<!-- n11&#45;&gt;n13 -->
<g id="edge12" class="edge">
<title>n11&#45;&gt;n13</title>
<path fill="none" stroke="#555555" d="M549.55,-279C565.35,-279 582.3,-279 597.6,-279"/>
<polygon fill="#555555" stroke="#555555" points="597.54,-280.75 602.54,-279 597.54,-277.25 597.54,-280.75"/>
<text xml:space="preserve" text-anchor="middle" x="574.56" y="-280.6" font-family="Helvetica,sans-Serif" font-size="7.00" fill="#555555"> −D </text>
</g>
<!-- n15 -->
<g id="node15" class="node">
<title>n15</title>
<path fill="#e3f2fd" stroke="#1565c0" stroke-width="1.2" d="M680.32,-261C680.32,-261 616.93,-261 616.93,-261 613.93,-261 610.93,-258 610.93,-255 610.93,-255 610.93,-249 610.93,-249 610.93,-246 613.93,-243 616.93,-243 616.93,-243 680.32,-243 680.32,-243 683.32,-243 686.32,-246 686.32,-249 686.32,-249 686.32,-255 686.32,-255 686.32,-258 683.32,-261 680.32,-261"/>
<text xml:space="preserve" text-anchor="middle" x="648.63" y="-249.28" font-family="Helvetica,sans-Serif" font-size="8.00" fill="#1565c0">{A,D} ∣ 15$ ∣ 9kg</text>
</g>
<!-- n14&#45;&gt;n15 -->
<g id="edge14" class="edge">
<title>n14&#45;&gt;n15</title>
<path fill="none" stroke="#555555" d="M538.25,-252C559.1,-252 583.5,-252 603.96,-252"/>
<polygon fill="#555555" stroke="#555555" points="603.94,-253.75 608.94,-252 603.94,-250.25 603.94,-253.75"/>
<text xml:space="preserve" text-anchor="middle" x="574.56" y="-253.6" font-family="Helvetica,sans-Serif" font-size="7.00" fill="#555555"> +D </text>
</g>
<!-- n16 -->
<g id="node16" class="node">
<title>n16</title>
<path fill="#e3f2fd" stroke="#1565c0" stroke-width="1.2" d="M675.82,-234C675.82,-234 621.43,-234 621.43,-234 618.43,-234 615.43,-231 615.43,-228 615.43,-228 615.43,-222 615.43,-222 615.43,-219 618.43,-216 621.43,-216 621.43,-216 675.82,-216 675.82,-216 678.82,-216 681.82,-219 681.82,-222 681.82,-222 681.82,-228 681.82,-228 681.82,-231 678.82,-234 675.82,-234"/>
<text xml:space="preserve" text-anchor="middle" x="648.63" y="-222.28" font-family="Helvetica,sans-Serif" font-size="8.00" fill="#1565c0">{A} ∣ 11$ ∣ 6kg</text>
</g>
<!-- n14&#45;&gt;n16 -->
<g id="edge15" class="edge">
<title>n14&#45;&gt;n16</title>
<path fill="none" stroke="#555555" d="M538.25,-243.9C560.83,-240 587.59,-235.37 608.98,-231.68"/>
<polygon fill="#555555" stroke="#555555" points="609.03,-233.45 613.66,-230.87 608.43,-230 609.03,-233.45"/>
<text xml:space="preserve" text-anchor="middle" x="574.56" y="-240.1" font-family="Helvetica,sans-Serif" font-size="7.00" fill="#555555"> −D </text>
</g>
<!-- n18 -->
<g id="node18" class="node">
<title>n18</title>
<path fill="#e3f2fd" stroke="#1565c0" stroke-width="1.2" d="M366.04,-167C366.04,-167 286.9,-167 286.9,-167 283.9,-167 280.9,-164 280.9,-161 280.9,-161 280.9,-155 280.9,-155 280.9,-152 283.9,-149 286.9,-149 286.9,-149 366.04,-149 366.04,-149 369.04,-149 372.04,-152 372.04,-155 372.04,-155 372.04,-161 372.04,-161 372.04,-164 369.04,-167 366.04,-167"/>
<text xml:space="preserve" text-anchor="middle" x="326.47" y="-155.28" font-family="Helvetica,sans-Serif" font-size="8.00" fill="#1565c0">{B} ∣ 9$ ∣ 5kg ∣ ≤20$</text>
</g>
<!-- n17&#45;&gt;n18 -->
<g id="edge17" class="edge">
<title>n17&#45;&gt;n18</title>
<path fill="none" stroke="#555555" d="M222.79,-158C238.97,-158 257.49,-158 274.31,-158"/>
<polygon fill="#555555" stroke="#555555" points="273.9,-159.75 278.9,-158 273.9,-156.25 273.9,-159.75"/>
<text xml:space="preserve" text-anchor="middle" x="247.15" y="-159.6" font-family="Helvetica,sans-Serif" font-size="7.00" fill="#555555"> +B </text>
</g>
<!-- n25 -->
<g id="node25" class="node">
<title>n25</title>
<path fill="#e3f2fd" stroke="#1565c0" stroke-width="1.2" d="M364.17,-91C364.17,-91 288.78,-91 288.78,-91 285.78,-91 282.78,-88 282.78,-85 282.78,-85 282.78,-79 282.78,-79 282.78,-76 285.78,-73 288.78,-73 288.78,-73 364.17,-73 364.17,-73 367.17,-73 370.17,-76 370.17,-79 370.17,-79 370.17,-85 370.17,-85 370.17,-88 367.17,-91 364.17,-91"/>
<text xml:space="preserve" text-anchor="middle" x="326.47" y="-79.28" font-family="Helvetica,sans-Serif" font-size="8.00" fill="#1565c0">∅ ∣ 0$ ∣ 0kg ∣ ≤11$</text>
</g>
<!-- n17&#45;&gt;n25 -->
<g id="edge24" class="edge">
<title>n17&#45;&gt;n25</title>
<path fill="none" stroke="#555555" d="M197.55,-148.53C223.8,-134.87 272.32,-109.64 301.47,-94.48"/>
<polygon fill="#555555" stroke="#555555" points="302.06,-96.15 305.69,-92.29 300.45,-93.04 302.06,-96.15"/>
<text xml:space="preserve" text-anchor="middle" x="247.15" y="-126.15" font-family="Helvetica,sans-Serif" font-size="7.00" fill="#555555"> −B </text>
</g>
<!-- n19 -->
<g id="node19" class="node">
<title>n19</title>
<path fill="#e3f2fd" stroke="#1565c0" stroke-width="1.2" d="M536.31,-180C536.31,-180 444.42,-180 444.42,-180 441.42,-180 438.42,-177 438.42,-174 438.42,-174 438.42,-168 438.42,-168 438.42,-165 441.42,-162 444.42,-162 444.42,-162 536.31,-162 536.31,-162 539.31,-162 542.31,-165 542.31,-168 542.31,-168 542.31,-174 542.31,-174 542.31,-177 539.31,-180 536.31,-180"/>
<text xml:space="preserve" text-anchor="middle" x="490.36" y="-168.28" font-family="Helvetica,sans-Serif" font-size="8.00" fill="#1565c0">{B,C} ∣ 16$ ∣ 9kg ∣ ≤20$</text>
</g>
<!-- n18&#45;&gt;n19 -->
<g id="edge18" class="edge">
<title>n18&#45;&gt;n19</title>
<path fill="none" stroke="#555555" d="M372.57,-161.62C390.81,-163.09 412.09,-164.8 431.46,-166.35"/>
<polygon fill="#555555" stroke="#555555" points="431.31,-168.09 436.44,-166.75 431.59,-164.61 431.31,-168.09"/>
<text xml:space="preserve" text-anchor="middle" x="406.17" y="-166.1" font-family="Helvetica,sans-Serif" font-size="7.00" fill="#555555"> +C </text>
</g>
<!-- n22 -->
<g id="node22" class="node">
<title>n22</title>
<path fill="#e3f2fd" stroke="#1565c0" stroke-width="1.2" d="M529.93,-153C529.93,-153 450.79,-153 450.79,-153 447.79,-153 444.79,-150 444.79,-147 444.79,-147 444.79,-141 444.79,-141 444.79,-138 447.79,-135 450.79,-135 450.79,-135 529.93,-135 529.93,-135 532.93,-135 535.93,-138 535.93,-141 535.93,-141 535.93,-147 535.93,-147 535.93,-150 532.93,-153 529.93,-153"/>
<text xml:space="preserve" text-anchor="middle" x="490.36" y="-141.28" font-family="Helvetica,sans-Serif" font-size="8.00" fill="#1565c0">{B} ∣ 9$ ∣ 5kg ∣ ≤13$</text>
</g>
<!-- n18&#45;&gt;n22 -->
<g id="edge21" class="edge">
<title>n18&#45;&gt;n22</title>
<path fill="none" stroke="#555555" d="M372.57,-154.1C392.83,-152.35 416.86,-150.27 437.83,-148.46"/>
<polygon fill="#555555" stroke="#555555" points="437.89,-150.21 442.72,-148.03 437.59,-146.72 437.89,-150.21"/>
<text xml:space="preserve" text-anchor="middle" x="406.17" y="-153.02" font-family="Helvetica,sans-Serif" font-size="7.00" fill="#555555"> −C </text>
</g>
<!-- n20 -->
<g id="node20" class="node">
<title>n20</title>
<path fill="#ffebee" stroke="#ef5350" stroke-width="1.2" d="M691.2,-207C691.2,-207 606.06,-207 606.06,-207 603.06,-207 600.06,-204 600.06,-201 600.06,-201 600.06,-195 600.06,-195 600.06,-192 603.06,-189 606.06,-189 606.06,-189 691.2,-189 691.2,-189 694.2,-189 697.2,-192 697.2,-195 697.2,-195 697.2,-201 697.2,-201 697.2,-204 694.2,-207 691.2,-207"/>
<text xml:space="preserve" text-anchor="middle" x="648.63" y="-196.03" font-family="Helvetica,sans-Serif" font-size="8.00" fill="#c62828">{B,C,D} ∣ 20$ ∣ 12kg &#160;✗</text>
</g>
<!-- n19&#45;&gt;n20 -->
<g id="edge19" class="edge">
<title>n19&#45;&gt;n20</title>
<path fill="none" stroke="#555555" d="M542.53,-179.84C558.86,-182.66 576.98,-185.79 593.52,-188.65"/>
<polygon fill="#555555" stroke="#555555" points="592.81,-190.3 598.04,-189.43 593.41,-186.86 592.81,-190.3"/>
<text xml:space="preserve" text-anchor="middle" x="574.56" y="-187.72" font-family="Helvetica,sans-Serif" font-size="7.00" fill="#555555"> +D </text>
</g>
<!-- n21 -->
<g id="node21" class="node">
<title>n21</title>
<path fill="#c8e6c9" stroke="#43a047" stroke-width="2" d="M684.82,-180C684.82,-180 612.43,-180 612.43,-180 609.43,-180 606.43,-177 606.43,-174 606.43,-174 606.43,-168 606.43,-168 606.43,-165 609.43,-162 612.43,-162 612.43,-162 684.82,-162 684.82,-162 687.82,-162 690.82,-165 690.82,-168 690.82,-168 690.82,-174 690.82,-174 690.82,-177 687.82,-180 684.82,-180"/>
<text xml:space="preserve" text-anchor="middle" x="648.63" y="-169.03" font-family="Helvetica,sans-Serif" font-size="8.00" fill="#1b5e20">{B,C} ∣ 16$ ∣ 9kg &#160;★</text>
</g>
<!-- n19&#45;&gt;n21 -->
<g id="edge20" class="edge">
<title>n19&#45;&gt;n21</title>
<path fill="none" stroke="#555555" d="M542.53,-171C560.69,-171 581.05,-171 598.99,-171"/>
<polygon fill="#555555" stroke="#555555" points="598.97,-172.75 603.97,-171 598.97,-169.25 598.97,-172.75"/>
<text xml:space="preserve" text-anchor="middle" x="574.56" y="-172.6" font-family="Helvetica,sans-Serif" font-size="7.00" fill="#555555"> −D </text>
</g>
<!-- n23 -->
<g id="node23" class="node">
<title>n23</title>
<path fill="#e3f2fd" stroke="#1565c0" stroke-width="1.2" d="M680.32,-153C680.32,-153 616.93,-153 616.93,-153 613.93,-153 610.93,-150 610.93,-147 610.93,-147 610.93,-141 610.93,-141 610.93,-138 613.93,-135 616.93,-135 616.93,-135 680.32,-135 680.32,-135 683.32,-135 686.32,-138 686.32,-141 686.32,-141 686.32,-147 686.32,-147 686.32,-150 683.32,-153 680.32,-153"/>
<text xml:space="preserve" text-anchor="middle" x="648.63" y="-141.28" font-family="Helvetica,sans-Serif" font-size="8.00" fill="#1565c0">{B,D} ∣ 13$ ∣ 8kg</text>
</g>
<!-- n22&#45;&gt;n23 -->
<g id="edge22" class="edge">
<title>n22&#45;&gt;n23</title>
<path fill="none" stroke="#555555" d="M536.14,-144C557.48,-144 582.89,-144 604.07,-144"/>
<polygon fill="#555555" stroke="#555555" points="603.98,-145.75 608.98,-144 603.98,-142.25 603.98,-145.75"/>
<text xml:space="preserve" text-anchor="middle" x="574.56" y="-145.6" font-family="Helvetica,sans-Serif" font-size="7.00" fill="#555555"> +D </text>
</g>
<!-- n24 -->
<g id="node24" class="node">
<title>n24</title>
<path fill="#e3f2fd" stroke="#1565c0" stroke-width="1.2" d="M673.95,-126C673.95,-126 623.31,-126 623.31,-126 620.31,-126 617.31,-123 617.31,-120 617.31,-120 617.31,-114 617.31,-114 617.31,-111 620.31,-108 623.31,-108 623.31,-108 673.95,-108 673.95,-108 676.95,-108 679.95,-111 679.95,-114 679.95,-114 679.95,-120 679.95,-120 679.95,-123 676.95,-126 673.95,-126"/>
<text xml:space="preserve" text-anchor="middle" x="648.63" y="-114.28" font-family="Helvetica,sans-Serif" font-size="8.00" fill="#1565c0">{B} ∣ 9$ ∣ 5kg</text>
</g>
<!-- n22&#45;&gt;n24 -->
<g id="edge23" class="edge">
<title>n22&#45;&gt;n24</title>
<path fill="none" stroke="#555555" d="M536.14,-136.26C559.62,-132.21 588.04,-127.3 610.31,-123.45"/>
<polygon fill="#555555" stroke="#555555" points="610.6,-125.17 615.23,-122.6 610,-121.73 610.6,-125.17"/>
<text xml:space="preserve" text-anchor="middle" x="574.56" y="-132.1" font-family="Helvetica,sans-Serif" font-size="7.00" fill="#555555"> −D </text>
</g>
<!-- n26 -->
<g id="node26" class="node">
<title>n26</title>
<path fill="#e3f2fd" stroke="#1565c0" stroke-width="1.2" d="M529.93,-91C529.93,-91 450.79,-91 450.79,-91 447.79,-91 444.79,-88 444.79,-85 444.79,-85 444.79,-79 444.79,-79 444.79,-76 447.79,-73 450.79,-73 450.79,-73 529.93,-73 529.93,-73 532.93,-73 535.93,-76 535.93,-79 535.93,-79 535.93,-85 535.93,-85 535.93,-88 532.93,-91 529.93,-91"/>
<text xml:space="preserve" text-anchor="middle" x="490.36" y="-79.28" font-family="Helvetica,sans-Serif" font-size="8.00" fill="#1565c0">{C} ∣ 7$ ∣ 4kg ∣ ≤11$</text>
</g>
<!-- n25&#45;&gt;n26 -->
<g id="edge25" class="edge">
<title>n25&#45;&gt;n26</title>
<path fill="none" stroke="#555555" d="M370.43,-82C391.15,-82 416.16,-82 437.89,-82"/>
<polygon fill="#555555" stroke="#555555" points="437.71,-83.75 442.71,-82 437.71,-80.25 437.71,-83.75"/>
<text xml:space="preserve" text-anchor="middle" x="406.17" y="-83.6" font-family="Helvetica,sans-Serif" font-size="7.00" fill="#555555"> +C </text>
</g>
<!-- n29 -->
<g id="node29" class="node">
<title>n29</title>
<path fill="#e3f2fd" stroke="#1565c0" stroke-width="1.2" d="M526.18,-45C526.18,-45 454.54,-45 454.54,-45 451.54,-45 448.54,-42 448.54,-39 448.54,-39 448.54,-33 448.54,-33 448.54,-30 451.54,-27 454.54,-27 454.54,-27 526.18,-27 526.18,-27 529.18,-27 532.18,-30 532.18,-33 532.18,-33 532.18,-39 532.18,-39 532.18,-42 529.18,-45 526.18,-45"/>
<text xml:space="preserve" text-anchor="middle" x="490.36" y="-33.27" font-family="Helvetica,sans-Serif" font-size="8.00" fill="#1565c0">∅ ∣ 0$ ∣ 0kg ∣ ≤4$</text>
</g>
<!-- n25&#45;&gt;n29 -->
<g id="edge28" class="edge">
<title>n25&#45;&gt;n29</title>
<path fill="none" stroke="#555555" d="M361.02,-72.47C386.76,-65.15 422.39,-55.03 449.57,-47.31"/>
<polygon fill="#555555" stroke="#555555" points="449.8,-49.06 454.13,-46.01 448.84,-45.7 449.8,-49.06"/>
<text xml:space="preserve" text-anchor="middle" x="406.17" y="-61.98" font-family="Helvetica,sans-Serif" font-size="7.00" fill="#555555"> −C </text>
</g>
<!-- n27 -->
<g id="node27" class="node">
<title>n27</title>
<path fill="#e3f2fd" stroke="#1565c0" stroke-width="1.2" d="M680.32,-99C680.32,-99 616.93,-99 616.93,-99 613.93,-99 610.93,-96 610.93,-93 610.93,-93 610.93,-87 610.93,-87 610.93,-84 613.93,-81 616.93,-81 616.93,-81 680.32,-81 680.32,-81 683.32,-81 686.32,-84 686.32,-87 686.32,-87 686.32,-93 686.32,-93 686.32,-96 683.32,-99 680.32,-99"/>
<text xml:space="preserve" text-anchor="middle" x="648.63" y="-87.28" font-family="Helvetica,sans-Serif" font-size="8.00" fill="#1565c0">{C,D} ∣ 11$ ∣ 7kg</text>
</g>
<!-- n26&#45;&gt;n27 -->
<g id="edge26" class="edge">
<title>n26&#45;&gt;n27</title>
<path fill="none" stroke="#555555" d="M536.14,-84.29C557.48,-85.38 582.89,-86.69 604.07,-87.77"/>
<polygon fill="#555555" stroke="#555555" points="603.9,-89.51 608.98,-88.02 604.08,-86.02 603.9,-89.51"/>
<text xml:space="preserve" text-anchor="middle" x="574.56" y="-88.08" font-family="Helvetica,sans-Serif" font-size="7.00" fill="#555555"> +D </text>
</g>
<!-- n28 -->
<g id="node28" class="node">
<title>n28</title>
<path fill="#e3f2fd" stroke="#1565c0" stroke-width="1.2" d="M674.32,-72C674.32,-72 622.93,-72 622.93,-72 619.93,-72 616.93,-69 616.93,-66 616.93,-66 616.93,-60 616.93,-60 616.93,-57 619.93,-54 622.93,-54 622.93,-54 674.32,-54 674.32,-54 677.32,-54 680.32,-57 680.32,-60 680.32,-60 680.32,-66 680.32,-66 680.32,-69 677.32,-72 674.32,-72"/>
<text xml:space="preserve" text-anchor="middle" x="648.63" y="-60.27" font-family="Helvetica,sans-Serif" font-size="8.00" fill="#1565c0">{C} ∣ 7$ ∣ 4kg</text>
</g>
<!-- n26&#45;&gt;n28 -->
<g id="edge27" class="edge">
<title>n26&#45;&gt;n28</title>
<path fill="none" stroke="#555555" d="M536.14,-76.56C559.62,-73.7 588.04,-70.25 610.31,-67.54"/>
<polygon fill="#555555" stroke="#555555" points="610.46,-69.28 615.22,-66.94 610.04,-65.81 610.46,-69.28"/>
<text xml:space="preserve" text-anchor="middle" x="574.56" y="-74.1" font-family="Helvetica,sans-Serif" font-size="7.00" fill="#555555"> −D </text>
</g>
<!-- n30 -->
<g id="node30" class="node">
<title>n30</title>
<path fill="#e3f2fd" stroke="#1565c0" stroke-width="1.2" d="M674.32,-45C674.32,-45 622.93,-45 622.93,-45 619.93,-45 616.93,-42 616.93,-39 616.93,-39 616.93,-33 616.93,-33 616.93,-30 619.93,-27 622.93,-27 622.93,-27 674.32,-27 674.32,-27 677.32,-27 680.32,-30 680.32,-33 680.32,-33 680.32,-39 680.32,-39 680.32,-42 677.32,-45 674.32,-45"/>
<text xml:space="preserve" text-anchor="middle" x="648.63" y="-33.27" font-family="Helvetica,sans-Serif" font-size="8.00" fill="#1565c0">{D} ∣ 4$ ∣ 3kg</text>
</g>
<!-- n29&#45;&gt;n30 -->
<g id="edge29" class="edge">
<title>n29&#45;&gt;n30</title>
<path fill="none" stroke="#555555" d="M532.42,-36C556.56,-36 586.84,-36 610.3,-36"/>
<polygon fill="#555555" stroke="#555555" points="610.21,-37.75 615.21,-36 610.21,-34.25 610.21,-37.75"/>
<text xml:space="preserve" text-anchor="middle" x="574.56" y="-37.6" font-family="Helvetica,sans-Serif" font-size="7.00" fill="#555555"> +D </text>
</g>
<!-- n31 -->
<g id="node31" class="node">
<title>n31</title>
<path fill="#e3f2fd" stroke="#1565c0" stroke-width="1.2" d="M672.45,-18C672.45,-18 624.81,-18 624.81,-18 621.81,-18 618.81,-15 618.81,-12 618.81,-12 618.81,-6 618.81,-6 618.81,-3 621.81,0 624.81,0 624.81,0 672.45,0 672.45,0 675.45,0 678.45,-3 678.45,-6 678.45,-6 678.45,-12 678.45,-12 678.45,-15 675.45,-18 672.45,-18"/>
<text xml:space="preserve" text-anchor="middle" x="648.63" y="-6.28" font-family="Helvetica,sans-Serif" font-size="8.00" fill="#1565c0">∅ ∣ 0$ ∣ 0kg</text>
</g>
<!-- n29&#45;&gt;n31 -->
<g id="edge30" class="edge">
<title>n29&#45;&gt;n31</title>
<path fill="none" stroke="#555555" d="M532.42,-28.91C557.32,-24.6 588.77,-19.17 612.51,-15.07"/>
<polygon fill="#555555" stroke="#555555" points="612.56,-16.83 617.19,-14.26 611.97,-13.39 612.56,-16.83"/>
<text xml:space="preserve" text-anchor="middle" x="574.56" y="-24.1" font-family="Helvetica,sans-Serif" font-size="7.00" fill="#555555"> −D </text>
</g>
</g>
</svg>
