<?xml version="1.0" encoding="UTF-8" standalone="no"?>
<!DOCTYPE svg PUBLIC "-//W3C//DTD SVG 1.1//EN"
 "http://www.w3.org/Graphics/SVG/1.1/DTD/svg11.dtd">
<!-- Generated by graphviz version 14.1.3 (0)
 -->
<!-- Title: G Pages: 1 -->
<svg width="690pt" height="470pt"
 viewBox="0.00 0.00 690.00 470.00" xmlns="http://www.w3.org/2000/svg" xmlns:xlink="http://www.w3.org/1999/xlink">
<g id="graph0" class="graph" transform="scale(1 1) rotate(0) translate(4 465.75)">
<title>G</title>
<polygon fill="white" stroke="none" points="-4,4 -4,-465.75 686.2,-465.75 686.2,4 -4,4"/>
<text xml:space="preserve" text-anchor="middle" x="341.1" y="-445.4" font-family="Helvetica,sans-Serif" font-size="13.00">Best ordering &#160;— &#160;13 explored / 31 total</text>
<text xml:space="preserve" text-anchor="middle" x="341.1" y="-430.4" font-family="Helvetica,sans-Serif" font-size="13.00">Items: B(w=5,v=9), A(w=6,v=11), C(w=4,v=7), D(w=3,v=4) &#160;∣ &#160;Capacity: 9</text>
<!-- n1 -->
<g id="node1" class="node">
<title>n1</title>
<path fill="#e3f2fd" stroke="#1565c0" stroke-width="1.2" d="M82.14,-221C82.14,-221 6,-221 6,-221 3,-221 0,-218 0,-215 0,-215 0,-209 0,-209 0,-206 3,-203 6,-203 6,-203 82.14,-203 82.14,-203 85.14,-203 88.14,-206 88.14,-209 88.14,-209 88.14,-215 88.14,-215 88.14,-218 85.14,-221 82.14,-221"/>
<text xml:space="preserve" text-anchor="middle" x="44.07" y="-209.28" font-family="Helvetica,sans-Serif" font-size="8.00" fill="#1565c0">∅ ∣ 0$ ∣ 0kg ∣ ≤31$</text>
</g>
<!-- n2 -->
<g id="node2" class="node">
<title>n2</title>
<path fill="#e3f2fd" stroke="#1565c0" stroke-width="1.2" d="M216.03,-275C216.03,-275 136.89,-275 136.89,-275 133.89,-275 130.89,-272 130.89,-269 130.89,-269 130.89,-263 130.89,-263 130.89,-260 133.89,-257 136.89,-257 136.89,-257 216.03,-257 216.03,-257 219.03,-257 222.03,-260 222.03,-263 222.03,-263 222.03,-269 222.03,-269 222.03,-272 219.03,-275 216.03,-275"/>
<text xml:space="preserve" text-anchor="middle" x="176.46" y="-263.27" font-family="Helvetica,sans-Serif" font-size="8.00" fill="#1565c0">{B} ∣ 9$ ∣ 5kg ∣ ≤31$</text>
</g>
<!-- n1&#45;&gt;n2 -->
<g id="edge1" class="edge">
<title>n1&#45;&gt;n2</title>
<path fill="none" stroke="#555555" d="M68.08,-221.53C90.05,-230.63 123.23,-244.37 146.88,-254.16"/>
<polygon fill="#555555" stroke="#555555" points="145.99,-255.69 151.28,-255.99 147.33,-252.46 145.99,-255.69"/>
<text xml:space="preserve" text-anchor="middle" x="109.51" y="-242.22" font-family="Helvetica,sans-Serif" font-size="7.00" fill="#555555"> +B </text>
</g>
<!-- n17 -->
<g id="node17" class="node">
<title>n17</title>
<path fill="#e3f2fd" stroke="#1565c0" stroke-width="1.2" d="M214.53,-167C214.53,-167 138.39,-167 138.39,-167 135.39,-167 132.39,-164 132.39,-161 132.39,-161 132.39,-155 132.39,-155 132.39,-152 135.39,-149 138.39,-149 138.39,-149 214.53,-149 214.53,-149 217.53,-149 220.53,-152 220.53,-155 220.53,-155 220.53,-161 220.53,-161 220.53,-164 217.53,-167 214.53,-167"/>
<text xml:space="preserve" text-anchor="middle" x="176.46" y="-155.28" font-family="Helvetica,sans-Serif" font-size="8.00" fill="#1565c0">∅ ∣ 0$ ∣ 0kg ∣ ≤22$</text>
</g>
<!-- n1&#45;&gt;n17 -->
<g id="edge16" class="edge">
<title>n1&#45;&gt;n17</title>
<path fill="none" stroke="#555555" d="M68.08,-202.47C90.05,-193.37 123.23,-179.63 146.88,-169.84"/>
<polygon fill="#555555" stroke="#555555" points="147.33,-171.54 151.28,-168.01 145.99,-168.31 147.33,-171.54"/>
<text xml:space="preserve" text-anchor="middle" x="109.51" y="-188.22" font-family="Helvetica,sans-Serif" font-size="7.00" fill="#555555"> −B </text>
</g>
<!-- n3 -->
<g id="node3" class="node">
<title>n3</title>
<path fill="#ffebee" stroke="#ef5350" stroke-width="1.2" d="M374.67,-356C374.67,-356 270.78,-356 270.78,-356 267.78,-356 264.78,-353 264.78,-350 264.78,-350 264.78,-344 264.78,-344 264.78,-341 267.78,-338 270.78,-338 270.78,-338 374.67,-338 374.67,-338 377.67,-338 380.67,-341 380.67,-344 380.67,-344 380.67,-350 380.67,-350 380.67,-353 377.67,-356 374.67,-356"/>
<text xml:space="preserve" text-anchor="middle" x="322.72" y="-345.02" font-family="Helvetica,sans-Serif" font-size="8.00" fill="#c62828">{B,A} ∣ 20$ ∣ 11kg ∣ ≤31$ &#160;✗</text>
</g>
<!-- n2&#45;&gt;n3 -->
<g id="edge2" class="edge">
<title>n2&#45;&gt;n3</title>
<path fill="none" stroke="#555555" d="M194.29,-275.45C220.35,-290.08 270.48,-318.23 299.49,-334.52"/>
<polygon fill="#555555" stroke="#555555" points="298.46,-335.95 303.68,-336.87 300.18,-332.9 298.46,-335.95"/>
<text xml:space="preserve" text-anchor="middle" x="243.4" y="-308.1" font-family="Helvetica,sans-Serif" font-size="7.00" fill="#555555"> +A </text>
</g>
<!-- n10 -->
<g id="node10" class="node">
<title>n10</title>
<path fill="#e3f2fd" stroke="#1565c0" stroke-width="1.2" d="M362.29,-275C362.29,-275 283.15,-275 283.15,-275 280.15,-275 277.15,-272 277.15,-269 277.15,-269 277.15,-263 277.15,-263 277.15,-260 280.15,-257 283.15,-257 283.15,-257 362.29,-257 362.29,-257 365.29,-257 368.29,-260 368.29,-263 368.29,-263 368.29,-269 368.29,-269 368.29,-272 365.29,-275 362.29,-275"/>
<text xml:space="preserve" text-anchor="middle" x="322.72" y="-263.27" font-family="Helvetica,sans-Serif" font-size="8.00" fill="#1565c0">{B} ∣ 9$ ∣ 5kg ∣ ≤20$</text>
</g>
<!-- n2&#45;&gt;n10 -->
<g id="edge9" class="edge">
<title>n2&#45;&gt;n10</title>
<path fill="none" stroke="#555555" d="M222.32,-266C237.65,-266 254.91,-266 270.7,-266"/>
<polygon fill="#555555" stroke="#555555" points="270.38,-267.75 275.38,-266 270.38,-264.25 270.38,-267.75"/>
<text xml:space="preserve" text-anchor="middle" x="243.4" y="-267.6" font-family="Helvetica,sans-Serif" font-size="7.00" fill="#555555"> −A </text>
</g>
<!-- n4 -->
<g id="node4" class="node">
<title>n4</title>
<path fill="#fafafa" stroke="#e0d0d0" stroke-width="0.8" d="M503.86,-396C503.86,-396 461.86,-396 461.86,-396 458.86,-396 455.86,-393 455.86,-390 455.86,-390 455.86,-384 455.86,-384 455.86,-381 458.86,-378 461.86,-378 461.86,-378 503.86,-378 503.86,-378 506.86,-378 509.86,-381 509.86,-384 509.86,-384 509.86,-390 509.86,-390 509.86,-393 506.86,-396 503.86,-396"/>
<text xml:space="preserve" text-anchor="middle" x="482.86" y="-384.27" font-family="Helvetica,sans-Serif" font-size="8.00" fill="#ddbbbb">{B,A,C}</text>
</g>
<!-- n3&#45;&gt;n4 -->
<g id="edge3" class="edge">
<title>n3&#45;&gt;n4</title>
<path fill="none" stroke="#e0e0e0" d="M361.6,-356.58C388.39,-363.36 423.93,-372.35 449.42,-378.79"/>
<polygon fill="#e0e0e0" stroke="#e0e0e0" points="448.92,-380.47 454.2,-380 449.78,-377.08 448.92,-380.47"/>
</g>
<!-- n7 -->
<g id="node7" class="node">
<title>n7</title>
<path fill="#fafafa" stroke="#e0d0d0" stroke-width="0.8" d="M503.86,-356C503.86,-356 461.86,-356 461.86,-356 458.86,-356 455.86,-353 455.86,-350 455.86,-350 455.86,-344 455.86,-344 455.86,-341 458.86,-338 461.86,-338 461.86,-338 503.86,-338 503.86,-338 506.86,-338 509.86,-341 509.86,-344 509.86,-344 509.86,-350 509.86,-350 509.86,-353 506.86,-356 503.86,-356"/>
<text xml:space="preserve" text-anchor="middle" x="482.86" y="-344.27" font-family="Helvetica,sans-Serif" font-size="8.00" fill="#ddbbbb">{B,A}</text>
</g>
<!-- n3&#45;&gt;n7 -->
<g id="edge6" class="edge">
<title>n3&#45;&gt;n7</title>
<path fill="none" stroke="#e0e0e0" d="M381.26,-347C404.12,-347 429.56,-347 449.15,-347"/>
<polygon fill="#e0e0e0" stroke="#e0e0e0" points="449.04,-348.75 454.04,-347 449.04,-345.25 449.04,-348.75"/>
</g>
<!-- n5 -->
<g id="node5" class="node">
<title>n5</title>
<path fill="#fafafa" stroke="#e0d0d0" stroke-width="0.8" d="M654.63,-423C654.63,-423 612.63,-423 612.63,-423 609.63,-423 606.63,-420 606.63,-417 606.63,-417 606.63,-411 606.63,-411 606.63,-408 609.63,-405 612.63,-405 612.63,-405 654.63,-405 654.63,-405 657.63,-405 660.63,-408 660.63,-411 660.63,-411 660.63,-417 660.63,-417 660.63,-420 657.63,-423 654.63,-423"/>
<text xml:space="preserve" text-anchor="middle" x="633.63" y="-411.27" font-family="Helvetica,sans-Serif" font-size="8.00" fill="#ddbbbb">{B,A,C,D}</text>
</g>
<!-- n4&#45;&gt;n5 -->
<g id="edge4" class="edge">
<title>n4&#45;&gt;n5</title>
<path fill="none" stroke="#e0e0e0" d="M510.12,-391.76C535.22,-396.32 573.12,-403.2 600.12,-408.1"/>
<polygon fill="#e0e0e0" stroke="#e0e0e0" points="599.67,-409.8 604.9,-408.97 600.29,-406.35 599.67,-409.8"/>
</g>
<!-- n6 -->
<g id="node6" class="node">
<title>n6</title>
<path fill="#fafafa" stroke="#e0d0d0" stroke-width="0.8" d="M654.63,-396C654.63,-396 612.63,-396 612.63,-396 609.63,-396 606.63,-393 606.63,-390 606.63,-390 606.63,-384 606.63,-384 606.63,-381 609.63,-378 612.63,-378 612.63,-378 654.63,-378 654.63,-378 657.63,-378 660.63,-381 660.63,-384 660.63,-384 660.63,-390 660.63,-390 660.63,-393 657.63,-396 654.63,-396"/>
<text xml:space="preserve" text-anchor="middle" x="633.63" y="-384.27" font-family="Helvetica,sans-Serif" font-size="8.00" fill="#ddbbbb">{B,A,C}</text>
</g>
<!-- n4&#45;&gt;n6 -->
<g id="edge5" class="edge">
<title>n4&#45;&gt;n6</title>
<path fill="none" stroke="#e0e0e0" d="M510.12,-387C535.22,-387 573.12,-387 600.12,-387"/>
<polygon fill="#e0e0e0" stroke="#e0e0e0" points="599.88,-388.75 604.88,-387 599.88,-385.25 599.88,-388.75"/>
</g>
<!-- n8 -->
<g id="node8" class="node">
<title>n8</title>
<path fill="#fafafa" stroke="#e0d0d0" stroke-width="0.8" d="M654.63,-369C654.63,-369 612.63,-369 612.63,-369 609.63,-369 606.63,-366 606.63,-363 606.63,-363 606.63,-357 606.63,-357 606.63,-354 609.63,-351 612.63,-351 612.63,-351 654.63,-351 654.63,-351 657.63,-351 660.63,-354 660.63,-357 660.63,-357 660.63,-363 660.63,-363 660.63,-366 657.63,-369 654.63,-369"/>
<text xml:space="preserve" text-anchor="middle" x="633.63" y="-357.27" font-family="Helvetica,sans-Serif" font-size="8.00" fill="#ddbbbb">{B,A,D}</text>
</g>
<!-- n7&#45;&gt;n8 -->
<g id="edge7" class="edge">
<title>n7&#45;&gt;n8</title>
<path fill="none" stroke="#e0e0e0" d="M510.12,-349.29C535.22,-351.49 573.12,-354.8 600.12,-357.16"/>
<polygon fill="#e0e0e0" stroke="#e0e0e0" points="599.75,-358.88 604.88,-357.58 600.05,-355.4 599.75,-358.88"/>
</g>
<!-- n9 -->
<g id="node9" class="node">
<title>n9</title>
<path fill="#fafafa" stroke="#e0d0d0" stroke-width="0.8" d="M654.63,-342C654.63,-342 612.63,-342 612.63,-342 609.63,-342 606.63,-339 606.63,-336 606.63,-336 606.63,-330 606.63,-330 606.63,-327 609.63,-324 612.63,-324 612.63,-324 654.63,-324 654.63,-324 657.63,-324 660.63,-327 660.63,-330 660.63,-330 660.63,-336 660.63,-336 660.63,-339 657.63,-342 654.63,-342"/>
<text xml:space="preserve" text-anchor="middle" x="633.63" y="-330.27" font-family="Helvetica,sans-Serif" font-size="8.00" fill="#ddbbbb">{B,A}</text>
</g>
<!-- n7&#45;&gt;n9 -->
<g id="edge8" class="edge">
<title>n7&#45;&gt;n9</title>
<path fill="none" stroke="#e0e0e0" d="M510.12,-344.53C535.22,-342.17 573.12,-338.6 600.12,-336.06"/>
<polygon fill="#e0e0e0" stroke="#e0e0e0" points="600.07,-337.82 604.88,-335.61 599.74,-334.34 600.07,-337.82"/>
</g>
<!-- n11 -->
<g id="node11" class="node">
<title>n11</title>
<path fill="#e3f2fd" stroke="#1565c0" stroke-width="1.2" d="M528.81,-288C528.81,-288 436.92,-288 436.92,-288 433.92,-288 430.92,-285 430.92,-282 430.92,-282 430.92,-276 430.92,-276 430.92,-273 433.92,-270 436.92,-270 436.92,-270 528.81,-270 528.81,-270 531.81,-270 534.81,-273 534.81,-276 534.81,-276 534.81,-282 534.81,-282 534.81,-285 531.81,-288 528.81,-288"/>
<text xml:space="preserve" text-anchor="middle" x="482.86" y="-276.27" font-family="Helvetica,sans-Serif" font-size="8.00" fill="#1565c0">{B,C} ∣ 16$ ∣ 9kg ∣ ≤20$</text>
</g>
<!-- n10&#45;&gt;n11 -->
<g id="edge10" class="edge">
<title>n10&#45;&gt;n11</title>
<path fill="none" stroke="#555555" d="M368.62,-269.69C385.93,-271.11 405.95,-272.76 424.29,-274.27"/>
<polygon fill="#555555" stroke="#555555" points="423.81,-275.98 428.93,-274.65 424.09,-272.49 423.81,-275.98"/>
<text xml:space="preserve" text-anchor="middle" x="402.42" y="-274.49" font-family="Helvetica,sans-Serif" font-size="7.00" fill="#555555"> +C </text>
</g>
<!-- n14 -->
<g id="node14" class="node">
<title>n14</title>
<path fill="#fff3e0" stroke="#ffa726" stroke-width="1.2" d="M526.93,-261C526.93,-261 438.79,-261 438.79,-261 435.79,-261 432.79,-258 432.79,-255 432.79,-255 432.79,-249 432.79,-249 432.79,-246 435.79,-243 438.79,-243 438.79,-243 526.93,-243 526.93,-243 529.93,-243 532.93,-246 532.93,-249 532.93,-249 532.93,-255 532.93,-255 532.93,-258 529.93,-261 526.93,-261"/>
<text xml:space="preserve" text-anchor="middle" x="482.86" y="-250.03" font-family="Helvetica,sans-Serif" font-size="8.00" fill="#e65100">{B} ∣ 9$ ∣ 5kg ∣ ≤13$ &#160;✗</text>
</g>
<!-- n10&#45;&gt;n14 -->
<g id="edge13" class="edge">
<title>n10&#45;&gt;n14</title>
<path fill="none" stroke="#555555" d="M368.62,-262.03C386.5,-260.44 407.28,-258.6 426.11,-256.94"/>
<polygon fill="#555555" stroke="#555555" points="426.08,-258.7 430.91,-256.51 425.78,-255.21 426.08,-258.7"/>
<text xml:space="preserve" text-anchor="middle" x="402.42" y="-261.02" font-family="Helvetica,sans-Serif" font-size="7.00" fill="#555555"> −C </text>
</g>
<!-- n12 -->
<g id="node12" class="node">
<title>n12</title>
<path fill="#ffebee" stroke="#ef5350" stroke-width="1.2" d="M676.2,-315C676.2,-315 591.06,-315 591.06,-315 588.06,-315 585.06,-312 585.06,-309 585.06,-309 585.06,-303 585.06,-303 585.06,-300 588.06,-297 591.06,-297 591.06,-297 676.2,-297 676.2,-297 679.2,-297 682.2,-300 682.2,-303 682.2,-303 682.2,-309 682.2,-309 682.2,-312 679.2,-315 676.2,-315"/>
<text xml:space="preserve" text-anchor="middle" x="633.63" y="-304.02" font-family="Helvetica,sans-Serif" font-size="8.00" fill="#c62828">{B,C,D} ∣ 20$ ∣ 12kg &#160;✗</text>
</g>
<!-- n11&#45;&gt;n12 -->
<g id="edge11" class="edge">
<title>n11&#45;&gt;n12</title>
<path fill="none" stroke="#555555" d="M535.06,-288.29C549.18,-290.85 564.54,-293.64 578.8,-296.23"/>
<polygon fill="#555555" stroke="#555555" points="578.12,-297.89 583.35,-297.06 578.75,-294.44 578.12,-297.89"/>
<text xml:space="preserve" text-anchor="middle" x="563.31" y="-295.72" font-family="Helvetica,sans-Serif" font-size="7.00" fill="#555555"> +D </text>
</g>
<!-- n13 -->
<g id="node13" class="node">
<title>n13</title>
<path fill="#c8e6c9" stroke="#43a047" stroke-width="2" d="M669.82,-288C669.82,-288 597.43,-288 597.43,-288 594.43,-288 591.43,-285 591.43,-282 591.43,-282 591.43,-276 591.43,-276 591.43,-273 594.43,-270 597.43,-270 597.43,-270 669.82,-270 669.82,-270 672.82,-270 675.82,-273 675.82,-276 675.82,-276 675.82,-282 675.82,-282 675.82,-285 672.82,-288 669.82,-288"/>
<text xml:space="preserve" text-anchor="middle" x="633.63" y="-277.02" font-family="Helvetica,sans-Serif" font-size="8.00" fill="#1b5e20">{B,C} ∣ 16$ ∣ 9kg &#160;★</text>
</g>
<!-- n11&#45;&gt;n13 -->
<g id="edge12" class="edge">
<title>n11&#45;&gt;n13</title>
<path fill="none" stroke="#555555" d="M535.06,-279C551.09,-279 568.71,-279 584.52,-279"/>
<polygon fill="#555555" stroke="#555555" points="584.19,-280.75 589.19,-279 584.19,-277.25 584.19,-280.75"/>
<text xml:space="preserve" text-anchor="middle" x="563.31" y="-280.6" font-family="Helvetica,sans-Serif" font-size="7.00" fill="#555555"> −D </text>
</g>
<!-- n15 -->
<g id="node15" class="node">
<title>n15</title>
<path fill="#fafafa" stroke="#e0e0e0" stroke-width="0.8" d="M654.63,-261C654.63,-261 612.63,-261 612.63,-261 609.63,-261 606.63,-258 606.63,-255 606.63,-255 606.63,-249 606.63,-249 606.63,-246 609.63,-243 612.63,-243 612.63,-243 654.63,-243 654.63,-243 657.63,-243 660.63,-246 660.63,-249 660.63,-249 660.63,-255 660.63,-255 660.63,-258 657.63,-261 654.63,-261"/>
<text xml:space="preserve" text-anchor="middle" x="633.63" y="-249.28" font-family="Helvetica,sans-Serif" font-size="8.00" fill="#cccccc">{B,D}</text>
</g>
<!-- n14&#45;&gt;n15 -->
<g id="edge14" class="edge">
<title>n14&#45;&gt;n15</title>
<path fill="none" stroke="#e0e0e0" d="M533.4,-252C555.27,-252 580.38,-252 599.87,-252"/>
<polygon fill="#e0e0e0" stroke="#e0e0e0" points="599.73,-253.75 604.73,-252 599.73,-250.25 599.73,-253.75"/>
</g>
<!-- n16 -->
<g id="node16" class="node">
<title>n16</title>
<path fill="#fafafa" stroke="#e0e0e0" stroke-width="0.8" d="M654.63,-234C654.63,-234 612.63,-234 612.63,-234 609.63,-234 606.63,-231 606.63,-228 606.63,-228 606.63,-222 606.63,-222 606.63,-219 609.63,-216 612.63,-216 612.63,-216 654.63,-216 654.63,-216 657.63,-216 660.63,-219 660.63,-222 660.63,-222 660.63,-228 660.63,-228 660.63,-231 657.63,-234 654.63,-234"/>
<text xml:space="preserve" text-anchor="middle" x="633.63" y="-222.28" font-family="Helvetica,sans-Serif" font-size="8.00" fill="#cccccc">{B}</text>
</g>
<!-- n14&#45;&gt;n16 -->
<g id="edge15" class="edge">
<title>n14&#45;&gt;n16</title>
<path fill="none" stroke="#e0e0e0" d="M533.4,-243.01C555.27,-239.04 580.38,-234.48 599.87,-230.95"/>
<polygon fill="#e0e0e0" stroke="#e0e0e0" points="600.15,-232.67 604.76,-230.06 599.53,-229.23 600.15,-232.67"/>
</g>
<!-- n18 -->
<g id="node18" class="node">
<title>n18</title>
<path fill="#e3f2fd" stroke="#1565c0" stroke-width="1.2" d="M364.17,-167C364.17,-167 281.28,-167 281.28,-167 278.28,-167 275.28,-164 275.28,-161 275.28,-161 275.28,-155 275.28,-155 275.28,-152 278.28,-149 281.28,-149 281.28,-149 364.17,-149 364.17,-149 367.17,-149 370.17,-152 370.17,-155 370.17,-155 370.17,-161 370.17,-161 370.17,-164 367.17,-167 364.17,-167"/>
<text xml:space="preserve" text-anchor="middle" x="322.72" y="-155.28" font-family="Helvetica,sans-Serif" font-size="8.00" fill="#1565c0">{A} ∣ 11$ ∣ 6kg ∣ ≤22$</text>
</g>
<!-- n17&#45;&gt;n18 -->
<g id="edge17" class="edge">
<title>n17&#45;&gt;n18</title>
<path fill="none" stroke="#555555" d="M220.74,-158C235.76,-158 252.78,-158 268.51,-158"/>
<polygon fill="#555555" stroke="#555555" points="268.18,-159.75 273.18,-158 268.18,-156.25 268.18,-159.75"/>
<text xml:space="preserve" text-anchor="middle" x="243.4" y="-159.6" font-family="Helvetica,sans-Serif" font-size="7.00" fill="#555555"> +A </text>
</g>
<!-- n25 -->
<g id="node25" class="node">
<title>n25</title>
<path fill="#fff3e0" stroke="#ffa726" stroke-width="1.2" d="M364.92,-85C364.92,-85 280.53,-85 280.53,-85 277.53,-85 274.53,-82 274.53,-79 274.53,-79 274.53,-73 274.53,-73 274.53,-70 277.53,-67 280.53,-67 280.53,-67 364.92,-67 364.92,-67 367.92,-67 370.92,-70 370.92,-73 370.92,-73 370.92,-79 370.92,-79 370.92,-82 367.92,-85 364.92,-85"/>
<text xml:space="preserve" text-anchor="middle" x="322.72" y="-74.03" font-family="Helvetica,sans-Serif" font-size="8.00" fill="#e65100">∅ ∣ 0$ ∣ 0kg ∣ ≤11$ &#160;✗</text>
</g>
<!-- n17&#45;&gt;n25 -->
<g id="edge24" class="edge">
<title>n17&#45;&gt;n25</title>
<path fill="none" stroke="#555555" d="M194.29,-148.43C220.35,-133.62 270.48,-105.13 299.49,-88.64"/>
<polygon fill="#555555" stroke="#555555" points="300.2,-90.25 303.68,-86.25 298.47,-87.2 300.2,-90.25"/>
<text xml:space="preserve" text-anchor="middle" x="243.4" y="-123.51" font-family="Helvetica,sans-Serif" font-size="7.00" fill="#555555"> −A </text>
</g>
<!-- n19 -->
<g id="node19" class="node">
<title>n19</title>
<path fill="#ffebee" stroke="#ef5350" stroke-width="1.2" d="M535.56,-180C535.56,-180 430.17,-180 430.17,-180 427.17,-180 424.17,-177 424.17,-174 424.17,-174 424.17,-168 424.17,-168 424.17,-165 427.17,-162 430.17,-162 430.17,-162 535.56,-162 535.56,-162 538.56,-162 541.56,-165 541.56,-168 541.56,-168 541.56,-174 541.56,-174 541.56,-177 538.56,-180 535.56,-180"/>
<text xml:space="preserve" text-anchor="middle" x="482.86" y="-169.03" font-family="Helvetica,sans-Serif" font-size="8.00" fill="#c62828">{A,C} ∣ 18$ ∣ 10kg ∣ ≤22$ &#160;✗</text>
</g>
<!-- n18&#45;&gt;n19 -->
<g id="edge18" class="edge">
<title>n18&#45;&gt;n19</title>
<path fill="none" stroke="#555555" d="M370.74,-161.87C385.45,-163.07 401.94,-164.43 417.63,-165.72"/>
<polygon fill="#555555" stroke="#555555" points="417.19,-167.44 422.31,-166.1 417.47,-163.95 417.19,-167.44"/>
<text xml:space="preserve" text-anchor="middle" x="402.42" y="-166.49" font-family="Helvetica,sans-Serif" font-size="7.00" fill="#555555"> +C </text>
</g>
<!-- n22 -->
<g id="node22" class="node">
<title>n22</title>
<path fill="#fff3e0" stroke="#ffa726" stroke-width="1.2" d="M528.81,-153C528.81,-153 436.92,-153 436.92,-153 433.92,-153 430.92,-150 430.92,-147 430.92,-147 430.92,-141 430.92,-141 430.92,-138 433.92,-135 436.92,-135 436.92,-135 528.81,-135 528.81,-135 531.81,-135 534.81,-138 534.81,-141 534.81,-141 534.81,-147 534.81,-147 534.81,-150 531.81,-153 528.81,-153"/>
<text xml:space="preserve" text-anchor="middle" x="482.86" y="-142.03" font-family="Helvetica,sans-Serif" font-size="8.00" fill="#e65100">{A} ∣ 11$ ∣ 6kg ∣ ≤15$ &#160;✗</text>
</g>
<!-- n18&#45;&gt;n22 -->
<g id="edge21" class="edge">
<title>n18&#45;&gt;n22</title>
<path fill="none" stroke="#555555" d="M370.74,-153.84C387.45,-152.36 406.45,-150.68 423.96,-149.13"/>
<polygon fill="#555555" stroke="#555555" points="424,-150.88 428.82,-148.7 423.69,-147.39 424,-150.88"/>
<text xml:space="preserve" text-anchor="middle" x="402.42" y="-153.02" font-family="Helvetica,sans-Serif" font-size="7.00" fill="#555555"> −C </text>
</g>
<!-- n20 -->
<g id="node20" class="node">
<title>n20</title>
<path fill="#fafafa" stroke="#e0d0d0" stroke-width="0.8" d="M654.63,-207C654.63,-207 612.63,-207 612.63,-207 609.63,-207 606.63,-204 606.63,-201 606.63,-201 606.63,-195 606.63,-195 606.63,-192 609.63,-189 612.63,-189 612.63,-189 654.63,-189 654.63,-189 657.63,-189 660.63,-192 660.63,-195 660.63,-195 660.63,-201 660.63,-201 660.63,-204 657.63,-207 654.63,-207"/>
<text xml:space="preserve" text-anchor="middle" x="633.63" y="-195.28" font-family="Helvetica,sans-Serif" font-size="8.00" fill="#ddbbbb">{A,C,D}</text>
</g>
<!-- n19&#45;&gt;n20 -->
<g id="edge19" class="edge">
<title>n19&#45;&gt;n20</title>
<path fill="none" stroke="#e0e0e0" d="M536.73,-180.6C558.04,-184.46 581.93,-188.8 600.53,-192.17"/>
<polygon fill="#e0e0e0" stroke="#e0e0e0" points="599.91,-193.84 605.14,-193.01 600.53,-190.4 599.91,-193.84"/>
</g>
<!-- n21 -->
<g id="node21" class="node">
<title>n21</title>
<path fill="#fafafa" stroke="#e0d0d0" stroke-width="0.8" d="M654.63,-180C654.63,-180 612.63,-180 612.63,-180 609.63,-180 606.63,-177 606.63,-174 606.63,-174 606.63,-168 606.63,-168 606.63,-165 609.63,-162 612.63,-162 612.63,-162 654.63,-162 654.63,-162 657.63,-162 660.63,-165 660.63,-168 660.63,-168 660.63,-174 660.63,-174 660.63,-177 657.63,-180 654.63,-180"/>
<text xml:space="preserve" text-anchor="middle" x="633.63" y="-168.28" font-family="Helvetica,sans-Serif" font-size="8.00" fill="#ddbbbb">{A,C}</text>
</g>
<!-- n19&#45;&gt;n21 -->
<g id="edge20" class="edge">
<title>n19&#45;&gt;n21</title>
<path fill="none" stroke="#e0e0e0" d="M541.81,-171C561.72,-171 583.28,-171 600.4,-171"/>
<polygon fill="#e0e0e0" stroke="#e0e0e0" points="599.98,-172.75 604.98,-171 599.98,-169.25 599.98,-172.75"/>
</g>
<!-- n23 -->
<g id="node23" class="node">
<title>n23</title>
<path fill="#fafafa" stroke="#e0e0e0" stroke-width="0.8" d="M654.63,-153C654.63,-153 612.63,-153 612.63,-153 609.63,-153 606.63,-150 606.63,-147 606.63,-147 606.63,-141 606.63,-141 606.63,-138 609.63,-135 612.63,-135 612.63,-135 654.63,-135 654.63,-135 657.63,-135 660.63,-138 660.63,-141 660.63,-141 660.63,-147 660.63,-147 660.63,-150 657.63,-153 654.63,-153"/>
<text xml:space="preserve" text-anchor="middle" x="633.63" y="-141.28" font-family="Helvetica,sans-Serif" font-size="8.00" fill="#cccccc">{A,D}</text>
</g>
<!-- n22&#45;&gt;n23 -->
<g id="edge22" class="edge">
<title>n22&#45;&gt;n23</title>
<path fill="none" stroke="#e0e0e0" d="M535.06,-144C556.66,-144 581.15,-144 600.2,-144"/>
<polygon fill="#e0e0e0" stroke="#e0e0e0" points="599.92,-145.75 604.92,-144 599.92,-142.25 599.92,-145.75"/>
</g>
<!-- n24 -->
<g id="node24" class="node">
<title>n24</title>
<path fill="#fafafa" stroke="#e0e0e0" stroke-width="0.8" d="M654.63,-126C654.63,-126 612.63,-126 612.63,-126 609.63,-126 606.63,-123 606.63,-120 606.63,-120 606.63,-114 606.63,-114 606.63,-111 609.63,-108 612.63,-108 612.63,-108 654.63,-108 654.63,-108 657.63,-108 660.63,-111 660.63,-114 660.63,-114 660.63,-120 660.63,-120 660.63,-123 657.63,-126 654.63,-126"/>
<text xml:space="preserve" text-anchor="middle" x="633.63" y="-114.28" font-family="Helvetica,sans-Serif" font-size="8.00" fill="#cccccc">{A}</text>
</g>
<!-- n22&#45;&gt;n24 -->
<g id="edge23" class="edge">
<title>n22&#45;&gt;n24</title>
<path fill="none" stroke="#e0e0e0" d="M535.06,-134.71C556.66,-130.79 581.15,-126.34 600.2,-122.89"/>
<polygon fill="#e0e0e0" stroke="#e0e0e0" points="600.34,-124.64 604.94,-122.03 599.71,-121.2 600.34,-124.64"/>
</g>
<!-- n26 -->
<g id="node26" class="node">
<title>n26</title>
<path fill="#fafafa" stroke="#e0e0e0" stroke-width="0.8" d="M503.86,-85C503.86,-85 461.86,-85 461.86,-85 458.86,-85 455.86,-82 455.86,-79 455.86,-79 455.86,-73 455.86,-73 455.86,-70 458.86,-67 461.86,-67 461.86,-67 503.86,-67 503.86,-67 506.86,-67 509.86,-70 509.86,-73 509.86,-73 509.86,-79 509.86,-79 509.86,-82 506.86,-85 503.86,-85"/>
<text xml:space="preserve" text-anchor="middle" x="482.86" y="-73.28" font-family="Helvetica,sans-Serif" font-size="8.00" fill="#cccccc">{C}</text>
</g>
<!-- n25&#45;&gt;n26 -->
<g id="edge25" class="edge">
<title>n25&#45;&gt;n26</title>
<path fill="none" stroke="#e0e0e0" d="M371.17,-76C396.34,-76 426.64,-76 449.16,-76"/>
<polygon fill="#e0e0e0" stroke="#e0e0e0" points="449.08,-77.75 454.08,-76 449.08,-74.25 449.08,-77.75"/>
</g>
<!-- n29 -->
<g id="node29" class="node">
<title>n29</title>
<path fill="#fafafa" stroke="#e0e0e0" stroke-width="0.8" d="M503.86,-45C503.86,-45 461.86,-45 461.86,-45 458.86,-45 455.86,-42 455.86,-39 455.86,-39 455.86,-33 455.86,-33 455.86,-30 458.86,-27 461.86,-27 461.86,-27 503.86,-27 503.86,-27 506.86,-27 509.86,-30 509.86,-33 509.86,-33 509.86,-39 509.86,-39 509.86,-42 506.86,-45 503.86,-45"/>
<text xml:space="preserve" text-anchor="middle" x="482.86" y="-32.52" font-family="Helvetica,sans-Serif" font-size="8.00" fill="#cccccc">∅</text>
</g>
<!-- n25&#45;&gt;n29 -->
<g id="edge28" class="edge">
<title>n25&#45;&gt;n29</title>
<path fill="none" stroke="#e0e0e0" d="M361.6,-66.42C388.39,-59.64 423.93,-50.65 449.42,-44.21"/>
<polygon fill="#e0e0e0" stroke="#e0e0e0" points="449.78,-45.92 454.2,-43 448.92,-42.53 449.78,-45.92"/>
</g>
<!-- n27 -->
<g id="node27" class="node">
<title>n27</title>
<path fill="#fafafa" stroke="#e0e0e0" stroke-width="0.8" d="M654.63,-99C654.63,-99 612.63,-99 612.63,-99 609.63,-99 606.63,-96 606.63,-93 606.63,-93 606.63,-87 606.63,-87 606.63,-84 609.63,-81 612.63,-81 612.63,-81 654.63,-81 654.63,-81 657.63,-81 660.63,-84 660.63,-87 660.63,-87 660.63,-93 660.63,-93 660.63,-96 657.63,-99 654.63,-99"/>
<text xml:space="preserve" text-anchor="middle" x="633.63" y="-87.28" font-family="Helvetica,sans-Serif" font-size="8.00" fill="#cccccc">{C,D}</text>
</g>
<!-- n26&#45;&gt;n27 -->
<g id="edge26" class="edge">
<title>n26&#45;&gt;n27</title>
<path fill="none" stroke="#e0e0e0" d="M510.12,-78.47C535.22,-80.83 573.12,-84.4 600.12,-86.94"/>
<polygon fill="#e0e0e0" stroke="#e0e0e0" points="599.74,-88.66 604.88,-87.39 600.07,-85.18 599.74,-88.66"/>
</g>
<!-- n28 -->
<g id="node28" class="node">
<title>n28</title>
<path fill="#fafafa" stroke="#e0e0e0" stroke-width="0.8" d="M654.63,-72C654.63,-72 612.63,-72 612.63,-72 609.63,-72 606.63,-69 606.63,-66 606.63,-66 606.63,-60 606.63,-60 606.63,-57 609.63,-54 612.63,-54 612.63,-54 654.63,-54 654.63,-54 657.63,-54 660.63,-57 660.63,-60 660.63,-60 660.63,-66 660.63,-66 660.63,-69 657.63,-72 654.63,-72"/>
<text xml:space="preserve" text-anchor="middle" x="633.63" y="-60.27" font-family="Helvetica,sans-Serif" font-size="8.00" fill="#cccccc">{C}</text>
</g>
<!-- n26&#45;&gt;n28 -->
<g id="edge27" class="edge">
<title>n26&#45;&gt;n28</title>
<path fill="none" stroke="#e0e0e0" d="M510.12,-73.71C535.22,-71.51 573.12,-68.2 600.12,-65.84"/>
<polygon fill="#e0e0e0" stroke="#e0e0e0" points="600.05,-67.6 604.88,-65.42 599.75,-64.12 600.05,-67.6"/>
</g>
<!-- n30 -->
<g id="node30" class="node">
<title>n30</title>
<path fill="#fafafa" stroke="#e0e0e0" stroke-width="0.8" d="M654.63,-45C654.63,-45 612.63,-45 612.63,-45 609.63,-45 606.63,-42 606.63,-39 606.63,-39 606.63,-33 606.63,-33 606.63,-30 609.63,-27 612.63,-27 612.63,-27 654.63,-27 654.63,-27 657.63,-27 660.63,-30 660.63,-33 660.63,-33 660.63,-39 660.63,-39 660.63,-42 657.63,-45 654.63,-45"/>
<text xml:space="preserve" text-anchor="middle" x="633.63" y="-33.27" font-family="Helvetica,sans-Serif" font-size="8.00" fill="#cccccc">{D}</text>
</g>
<!-- n29&#45;&gt;n30 -->
<g id="edge29" class="edge">
<title>n29&#45;&gt;n30</title>
<path fill="none" stroke="#e0e0e0" d="M510.12,-36C535.22,-36 573.12,-36 600.12,-36"/>
<polygon fill="#e0e0e0" stroke="#e0e0e0" points="599.88,-37.75 604.88,-36 599.88,-34.25 599.88,-37.75"/>
</g>
<!-- n31 -->
<g id="node31" class="node">
<title>n31</title>
<path fill="#fafafa" stroke="#e0e0e0" stroke-width="0.8" d="M654.63,-18C654.63,-18 612.63,-18 612.63,-18 609.63,-18 606.63,-15 606.63,-12 606.63,-12 606.63,-6 606.63,-6 606.63,-3 609.63,0 612.63,0 612.63,0 654.63,0 654.63,0 657.63,0 660.63,-3 660.63,-6 660.63,-6 660.63,-12 660.63,-12 660.63,-15 657.63,-18 654.63,-18"/>
<text xml:space="preserve" text-anchor="middle" x="633.63" y="-5.53" font-family="Helvetica,sans-Serif" font-size="8.00" fill="#cccccc">∅</text>
</g>
<!-- n29&#45;&gt;n31 -->
<g id="edge30" class="edge">
<title>n29&#45;&gt;n31</title>
<path fill="none" stroke="#e0e0e0" d="M510.12,-31.24C535.22,-26.68 573.12,-19.8 600.12,-14.9"/>
<polygon fill="#e0e0e0" stroke="#e0e0e0" points="600.29,-16.65 604.9,-14.03 599.67,-13.2 600.29,-16.65"/>
</g>
</g>
</svg>
