<?xml version="1.0" encoding="UTF-8" standalone="no"?>
<!DOCTYPE svg PUBLIC "-//W3C//DTD SVG 1.1//EN"
 "http://www.w3.org/Graphics/SVG/1.1/DTD/svg11.dtd">
<!-- Generated by graphviz version 14.1.3 (0)
 -->
<!-- Title: G Pages: 1 -->
<svg width="694pt" height="470pt"
 viewBox="0.00 0.00 694.00 470.00" xmlns="http://www.w3.org/2000/svg" xmlns:xlink="http://www.w3.org/1999/xlink">
<g id="graph0" class="graph" transform="scale(1 1) rotate(0) translate(4 465.75)">
<title>G</title>
<polygon fill="white" stroke="none" points="-4,4 -4,-465.75 689.95,-465.75 689.95,4 -4,4"/>
<text xml:space="preserve" text-anchor="middle" x="342.97" y="-445.4" font-family="Helvetica,sans-Serif" font-size="13.00">Feas + Bound + Known Best=16$ &#160;— &#160;13 explored / 31 total</text>
<text xml:space="preserve" text-anchor="middle" x="342.97" y="-430.4" font-family="Helvetica,sans-Serif" font-size="13.00">Items: A(w=6,v=11), B(w=5,v=9), C(w=4,v=7), D(w=3,v=4) &#160;∣ &#160;Capacity: 9</text>
<!-- n1 -->
<g id="node1" class="node">
<title>n1</title>
<path fill="#e3f2fd" stroke="#1565c0" stroke-width="1.2" d="M82.14,-221C82.14,-221 6,-221 6,-221 3,-221 0,-218 0,-215 0,-215 0,-209 0,-209 0,-206 3,-203 6,-203 6,-203 82.14,-203 82.14,-203 85.14,-203 88.14,-206 88.14,-209 88.14,-209 88.14,-215 88.14,-215 88.14,-218 85.14,-221 82.14,-221"/>
<text xml:space="preserve" text-anchor="middle" x="44.07" y="-209.28" font-family="Helvetica,sans-Serif" font-size="8.00" fill="#1565c0">∅ ∣ 0$ ∣ 0kg ∣ ≤31$</text>
</g>
<!-- n2 -->
<g id="node2" class="node">
<title>n2</title>
<path fill="#e3f2fd" stroke="#1565c0" stroke-width="1.2" d="M219.78,-275C219.78,-275 136.89,-275 136.89,-275 133.89,-275 130.89,-272 130.89,-269 130.89,-269 130.89,-263 130.89,-263 130.89,-260 133.89,-257 136.89,-257 136.89,-257 219.78,-257 219.78,-257 222.78,-257 225.78,-260 225.78,-263 225.78,-263 225.78,-269 225.78,-269 225.78,-272 222.78,-275 219.78,-275"/>
<text xml:space="preserve" text-anchor="middle" x="178.33" y="-263.27" font-family="Helvetica,sans-Serif" font-size="8.00" fill="#1565c0">{A} ∣ 11$ ∣ 6kg ∣ ≤31$</text>
</g>
<!-- n1&#45;&gt;n2 -->
<g id="edge1" class="edge">
<title>n1&#45;&gt;n2</title>
<path fill="none" stroke="#555555" d="M68.41,-221.53C90.7,-230.63 124.35,-244.37 148.35,-254.16"/>
<polygon fill="#555555" stroke="#555555" points="147.53,-255.72 152.83,-255.99 148.86,-252.48 147.53,-255.72"/>
<text xml:space="preserve" text-anchor="middle" x="109.51" y="-242.22" font-family="Helvetica,sans-Serif" font-size="7.00" fill="#555555"> +A </text>
</g>
<!-- n17 -->
<g id="node17" class="node">
<title>n17</title>
<path fill="#e3f2fd" stroke="#1565c0" stroke-width="1.2" d="M216.4,-167C216.4,-167 140.26,-167 140.26,-167 137.26,-167 134.26,-164 134.26,-161 134.26,-161 134.26,-155 134.26,-155 134.26,-152 137.26,-149 140.26,-149 140.26,-149 216.4,-149 216.4,-149 219.4,-149 222.4,-152 222.4,-155 222.4,-155 222.4,-161 222.4,-161 222.4,-164 219.4,-167 216.4,-167"/>
<text xml:space="preserve" text-anchor="middle" x="178.33" y="-155.28" font-family="Helvetica,sans-Serif" font-size="8.00" fill="#1565c0">∅ ∣ 0$ ∣ 0kg ∣ ≤20$</text>
</g>
<!-- n1&#45;&gt;n17 -->
<g id="edge16" class="edge">
<title>n1&#45;&gt;n17</title>
<path fill="none" stroke="#555555" d="M68.41,-202.47C90.7,-193.37 124.35,-179.63 148.35,-169.84"/>
<polygon fill="#555555" stroke="#555555" points="148.86,-171.52 152.83,-168.01 147.53,-168.28 148.86,-171.52"/>
<text xml:space="preserve" text-anchor="middle" x="109.51" y="-189.83" font-family="Helvetica,sans-Serif" font-size="7.00" fill="#555555"> −A </text>
</g>
<!-- n3 -->
<g id="node3" class="node">
<title>n3</title>
<path fill="#ffebee" stroke="#ef5350" stroke-width="1.2" d="M378.42,-356C378.42,-356 274.53,-356 274.53,-356 271.53,-356 268.53,-353 268.53,-350 268.53,-350 268.53,-344 268.53,-344 268.53,-341 271.53,-338 274.53,-338 274.53,-338 378.42,-338 378.42,-338 381.42,-338 384.42,-341 384.42,-344 384.42,-344 384.42,-350 384.42,-350 384.42,-353 381.42,-356 378.42,-356"/>
<text xml:space="preserve" text-anchor="middle" x="326.47" y="-345.02" font-family="Helvetica,sans-Serif" font-size="8.00" fill="#c62828">{A,B} ∣ 20$ ∣ 11kg ∣ ≤31$ &#160;✗</text>
</g>
<!-- n2&#45;&gt;n3 -->
<g id="edge2" class="edge">
<title>n2&#45;&gt;n3</title>
<path fill="none" stroke="#555555" d="M196.39,-275.45C222.78,-290.08 273.57,-318.23 302.95,-334.52"/>
<polygon fill="#555555" stroke="#555555" points="301.99,-335.98 307.21,-336.88 303.68,-332.92 301.99,-335.98"/>
<text xml:space="preserve" text-anchor="middle" x="247.15" y="-308.1" font-family="Helvetica,sans-Serif" font-size="7.00" fill="#555555"> +B </text>
</g>
<!-- n10 -->
<g id="node10" class="node">
<title>n10</title>
<path fill="#e3f2fd" stroke="#1565c0" stroke-width="1.2" d="M367.92,-275C367.92,-275 285.03,-275 285.03,-275 282.03,-275 279.03,-272 279.03,-269 279.03,-269 279.03,-263 279.03,-263 279.03,-260 282.03,-257 285.03,-257 285.03,-257 367.92,-257 367.92,-257 370.92,-257 373.92,-260 373.92,-263 373.92,-263 373.92,-269 373.92,-269 373.92,-272 370.92,-275 367.92,-275"/>
<text xml:space="preserve" text-anchor="middle" x="326.47" y="-263.27" font-family="Helvetica,sans-Serif" font-size="8.00" fill="#1565c0">{A} ∣ 11$ ∣ 6kg ∣ ≤22$</text>
</g>
<!-- n2&#45;&gt;n10 -->
<g id="edge9" class="edge">
<title>n2&#45;&gt;n10</title>
<path fill="none" stroke="#555555" d="M226.38,-266C240.98,-266 257.18,-266 272.17,-266"/>
<polygon fill="#555555" stroke="#555555" points="272.01,-267.75 277.01,-266 272.01,-264.25 272.01,-267.75"/>
<text xml:space="preserve" text-anchor="middle" x="247.15" y="-267.6" font-family="Helvetica,sans-Serif" font-size="7.00" fill="#555555"> −B </text>
</g>
<!-- n4 -->
<g id="node4" class="node">
<title>n4</title>
<path fill="#fafafa" stroke="#e0d0d0" stroke-width="0.8" d="M507.62,-396C507.62,-396 465.61,-396 465.61,-396 462.61,-396 459.61,-393 459.61,-390 459.61,-390 459.61,-384 459.61,-384 459.61,-381 462.61,-378 465.61,-378 465.61,-378 507.62,-378 507.62,-378 510.62,-378 513.62,-381 513.62,-384 513.62,-384 513.62,-390 513.62,-390 513.62,-393 510.62,-396 507.62,-396"/>
<text xml:space="preserve" text-anchor="middle" x="486.61" y="-384.27" font-family="Helvetica,sans-Serif" font-size="8.00" fill="#ddbbbb">{A,B,C}</text>
</g>
<!-- n3&#45;&gt;n4 -->
<g id="edge3" class="edge">
<title>n3&#45;&gt;n4</title>
<path fill="none" stroke="#e0e0e0" d="M365.35,-356.58C392.14,-363.36 427.68,-372.35 453.17,-378.79"/>
<polygon fill="#e0e0e0" stroke="#e0e0e0" points="452.67,-380.47 457.95,-380 453.53,-377.08 452.67,-380.47"/>
</g>
<!-- n7 -->
<g id="node7" class="node">
<title>n7</title>
<path fill="#fafafa" stroke="#e0d0d0" stroke-width="0.8" d="M507.62,-356C507.62,-356 465.61,-356 465.61,-356 462.61,-356 459.61,-353 459.61,-350 459.61,-350 459.61,-344 459.61,-344 459.61,-341 462.61,-338 465.61,-338 465.61,-338 507.62,-338 507.62,-338 510.62,-338 513.62,-341 513.62,-344 513.62,-344 513.62,-350 513.62,-350 513.62,-353 510.62,-356 507.62,-356"/>
<text xml:space="preserve" text-anchor="middle" x="486.61" y="-344.27" font-family="Helvetica,sans-Serif" font-size="8.00" fill="#ddbbbb">{A,B}</text>
</g>
<!-- n3&#45;&gt;n7 -->
<g id="edge6" class="edge">
<title>n3&#45;&gt;n7</title>
<path fill="none" stroke="#e0e0e0" d="M385.01,-347C407.87,-347 433.31,-347 452.9,-347"/>
<polygon fill="#e0e0e0" stroke="#e0e0e0" points="452.79,-348.75 457.79,-347 452.79,-345.25 452.79,-348.75"/>
</g>
<!-- n5 -->
<g id="node5" class="node">
<title>n5</title>
<path fill="#fafafa" stroke="#e0d0d0" stroke-width="0.8" d="M658.38,-423C658.38,-423 616.38,-423 616.38,-423 613.38,-423 610.38,-420 610.38,-417 610.38,-417 610.38,-411 610.38,-411 610.38,-408 613.38,-405 616.38,-405 616.38,-405 658.38,-405 658.38,-405 661.38,-405 664.38,-408 664.38,-411 664.38,-411 664.38,-417 664.38,-417 664.38,-420 661.38,-423 658.38,-423"/>
<text xml:space="preserve" text-anchor="middle" x="637.38" y="-411.27" font-family="Helvetica,sans-Serif" font-size="8.00" fill="#ddbbbb">{A,B,C,D}</text>
</g>
<!-- n4&#45;&gt;n5 -->
<g id="edge4" class="edge">
<title>n4&#45;&gt;n5</title>
<path fill="none" stroke="#e0e0e0" d="M513.87,-391.76C538.97,-396.32 576.87,-403.2 603.87,-408.1"/>
<polygon fill="#e0e0e0" stroke="#e0e0e0" points="603.42,-409.8 608.65,-408.97 604.04,-406.35 603.42,-409.8"/>
</g>
<!-- n6 -->
<g id="node6" class="node">
<title>n6</title>
<path fill="#fafafa" stroke="#e0d0d0" stroke-width="0.8" d="M658.38,-396C658.38,-396 616.38,-396 616.38,-396 613.38,-396 610.38,-393 610.38,-390 610.38,-390 610.38,-384 610.38,-384 610.38,-381 613.38,-378 616.38,-378 616.38,-378 658.38,-378 658.38,-378 661.38,-378 664.38,-381 664.38,-384 664.38,-384 664.38,-390 664.38,-390 664.38,-393 661.38,-396 658.38,-396"/>
<text xml:space="preserve" text-anchor="middle" x="637.38" y="-384.27" font-family="Helvetica,sans-Serif" font-size="8.00" fill="#ddbbbb">{A,B,C}</text>
</g>
<!-- n4&#45;&gt;n6 -->
<g id="edge5" class="edge">
<title>n4&#45;&gt;n6</title>
<path fill="none" stroke="#e0e0e0" d="M513.87,-387C538.97,-387 576.87,-387 603.87,-387"/>
<polygon fill="#e0e0e0" stroke="#e0e0e0" points="603.63,-388.75 608.63,-387 603.63,-385.25 603.63,-388.75"/>
</g>
<!-- n8 -->
<g id="node8" class="node">
<title>n8</title>
<path fill="#fafafa" stroke="#e0d0d0" stroke-width="0.8" d="M658.38,-369C658.38,-369 616.38,-369 616.38,-369 613.38,-369 610.38,-366 610.38,-363 610.38,-363 610.38,-357 610.38,-357 610.38,-354 613.38,-351 616.38,-351 616.38,-351 658.38,-351 658.38,-351 661.38,-351 664.38,-354 664.38,-357 664.38,-357 664.38,-363 664.38,-363 664.38,-366 661.38,-369 658.38,-369"/>
<text xml:space="preserve" text-anchor="middle" x="637.38" y="-357.27" font-family="Helvetica,sans-Serif" font-size="8.00" fill="#ddbbbb">{A,B,D}</text>
</g>
<!-- n7&#45;&gt;n8 -->
<g id="edge7" class="edge">
<title>n7&#45;&gt;n8</title>
<path fill="none" stroke="#e0e0e0" d="M513.87,-349.29C538.97,-351.49 576.87,-354.8 603.87,-357.16"/>
<polygon fill="#e0e0e0" stroke="#e0e0e0" points="603.5,-358.88 608.63,-357.58 603.8,-355.4 603.5,-358.88"/>
</g>
<!-- n9 -->
<g id="node9" class="node">
<title>n9</title>
<path fill="#fafafa" stroke="#e0d0d0" stroke-width="0.8" d="M658.38,-342C658.38,-342 616.38,-342 616.38,-342 613.38,-342 610.38,-339 610.38,-336 610.38,-336 610.38,-330 610.38,-330 610.38,-327 613.38,-324 616.38,-324 616.38,-324 658.38,-324 658.38,-324 661.38,-324 664.38,-327 664.38,-330 664.38,-330 664.38,-336 664.38,-336 664.38,-339 661.38,-342 658.38,-342"/>
<text xml:space="preserve" text-anchor="middle" x="637.38" y="-330.27" font-family="Helvetica,sans-Serif" font-size="8.00" fill="#ddbbbb">{A,B}</text>
</g>
<!-- n7&#45;&gt;n9 -->
<g id="edge8" class="edge">
<title>n7&#45;&gt;n9</title>
<path fill="none" stroke="#e0e0e0" d="M513.87,-344.53C538.97,-342.17 576.87,-338.6 603.87,-336.06"/>
<polygon fill="#e0e0e0" stroke="#e0e0e0" points="603.82,-337.82 608.63,-335.61 603.49,-334.34 603.82,-337.82"/>
</g>
<!-- n11 -->
<g id="node11" class="node">
<title>n11</title>
<path fill="#ffebee" stroke="#ef5350" stroke-width="1.2" d="M539.31,-288C539.31,-288 433.92,-288 433.92,-288 430.92,-288 427.92,-285 427.92,-282 427.92,-282 427.92,-276 427.92,-276 427.92,-273 430.92,-270 433.92,-270 433.92,-270 539.31,-270 539.31,-270 542.31,-270 545.31,-273 545.31,-276 545.31,-276 545.31,-282 545.31,-282 545.31,-285 542.31,-288 539.31,-288"/>
<text xml:space="preserve" text-anchor="middle" x="486.61" y="-277.02" font-family="Helvetica,sans-Serif" font-size="8.00" fill="#c62828">{A,C} ∣ 18$ ∣ 10kg ∣ ≤22$ &#160;✗</text>
</g>
<!-- n10&#45;&gt;n11 -->
<g id="edge10" class="edge">
<title>n10&#45;&gt;n11</title>
<path fill="none" stroke="#555555" d="M374.49,-269.87C389.2,-271.07 405.69,-272.43 421.38,-273.72"/>
<polygon fill="#555555" stroke="#555555" points="420.94,-275.44 426.06,-274.1 421.22,-271.95 420.94,-275.44"/>
<text xml:space="preserve" text-anchor="middle" x="406.17" y="-274.49" font-family="Helvetica,sans-Serif" font-size="7.00" fill="#555555"> +C </text>
</g>
<!-- n14 -->
<g id="node14" class="node">
<title>n14</title>
<path fill="#fff3e0" stroke="#ffa726" stroke-width="1.2" d="M532.56,-261C532.56,-261 440.67,-261 440.67,-261 437.67,-261 434.67,-258 434.67,-255 434.67,-255 434.67,-249 434.67,-249 434.67,-246 437.67,-243 440.67,-243 440.67,-243 532.56,-243 532.56,-243 535.56,-243 538.56,-246 538.56,-249 538.56,-249 538.56,-255 538.56,-255 538.56,-258 535.56,-261 532.56,-261"/>
<text xml:space="preserve" text-anchor="middle" x="486.61" y="-250.03" font-family="Helvetica,sans-Serif" font-size="8.00" fill="#e65100">{A} ∣ 11$ ∣ 6kg ∣ ≤15$ &#160;✗</text>
</g>
<!-- n10&#45;&gt;n14 -->
<g id="edge13" class="edge">
<title>n10&#45;&gt;n14</title>
<path fill="none" stroke="#555555" d="M374.49,-261.84C391.2,-260.36 410.2,-258.68 427.71,-257.13"/>
<polygon fill="#555555" stroke="#555555" points="427.75,-258.88 432.57,-256.7 427.44,-255.39 427.75,-258.88"/>
<text xml:space="preserve" text-anchor="middle" x="406.17" y="-261.02" font-family="Helvetica,sans-Serif" font-size="7.00" fill="#555555"> −C </text>
</g>
<!-- n12 -->
<g id="node12" class="node">
<title>n12</title>
<path fill="#fafafa" stroke="#e0d0d0" stroke-width="0.8" d="M658.38,-315C658.38,-315 616.38,-315 616.38,-315 613.38,-315 610.38,-312 610.38,-309 610.38,-309 610.38,-303 610.38,-303 610.38,-300 613.38,-297 616.38,-297 616.38,-297 658.38,-297 658.38,-297 661.38,-297 664.38,-300 664.38,-303 664.38,-303 664.38,-309 664.38,-309 664.38,-312 661.38,-315 658.38,-315"/>
<text xml:space="preserve" text-anchor="middle" x="637.38" y="-303.27" font-family="Helvetica,sans-Serif" font-size="8.00" fill="#ddbbbb">{A,C,D}</text>
</g>
<!-- n11&#45;&gt;n12 -->
<g id="edge11" class="edge">
<title>n11&#45;&gt;n12</title>
<path fill="none" stroke="#e0e0e0" d="M540.48,-288.6C561.79,-292.46 585.68,-296.8 604.28,-300.17"/>
<polygon fill="#e0e0e0" stroke="#e0e0e0" points="603.66,-301.84 608.89,-301.01 604.28,-298.4 603.66,-301.84"/>
</g>
<!-- n13 -->
<g id="node13" class="node">
<title>n13</title>
<path fill="#fafafa" stroke="#e0d0d0" stroke-width="0.8" d="M658.38,-288C658.38,-288 616.38,-288 616.38,-288 613.38,-288 610.38,-285 610.38,-282 610.38,-282 610.38,-276 610.38,-276 610.38,-273 613.38,-270 616.38,-270 616.38,-270 658.38,-270 658.38,-270 661.38,-270 664.38,-273 664.38,-276 664.38,-276 664.38,-282 664.38,-282 664.38,-285 661.38,-288 658.38,-288"/>
<text xml:space="preserve" text-anchor="middle" x="637.38" y="-276.27" font-family="Helvetica,sans-Serif" font-size="8.00" fill="#ddbbbb">{A,C}</text>
</g>
<!-- n11&#45;&gt;n13 -->
<g id="edge12" class="edge">
<title>n11&#45;&gt;n13</title>
<path fill="none" stroke="#e0e0e0" d="M545.56,-279C565.47,-279 587.03,-279 604.15,-279"/>
<polygon fill="#e0e0e0" stroke="#e0e0e0" points="603.73,-280.75 608.73,-279 603.73,-277.25 603.73,-280.75"/>
</g>
<!-- n15 -->
<g id="node15" class="node">
<title>n15</title>
<path fill="#fafafa" stroke="#e0e0e0" stroke-width="0.8" d="M658.38,-261C658.38,-261 616.38,-261 616.38,-261 613.38,-261 610.38,-258 610.38,-255 610.38,-255 610.38,-249 610.38,-249 610.38,-246 613.38,-243 616.38,-243 616.38,-243 658.38,-243 658.38,-243 661.38,-243 664.38,-246 664.38,-249 664.38,-249 664.38,-255 664.38,-255 664.38,-258 661.38,-261 658.38,-261"/>
<text xml:space="preserve" text-anchor="middle" x="637.38" y="-249.28" font-family="Helvetica,sans-Serif" font-size="8.00" fill="#cccccc">{A,D}</text>
</g>
<!-- n14&#45;&gt;n15 -->
<g id="edge14" class="edge">
<title>n14&#45;&gt;n15</title>
<path fill="none" stroke="#e0e0e0" d="M538.81,-252C560.41,-252 584.9,-252 603.95,-252"/>
<polygon fill="#e0e0e0" stroke="#e0e0e0" points="603.67,-253.75 608.67,-252 603.67,-250.25 603.67,-253.75"/>
</g>
<!-- n16 -->
<g id="node16" class="node">
<title>n16</title>
<path fill="#fafafa" stroke="#e0e0e0" stroke-width="0.8" d="M658.38,-234C658.38,-234 616.38,-234 616.38,-234 613.38,-234 610.38,-231 610.38,-228 610.38,-228 610.38,-222 610.38,-222 610.38,-219 613.38,-216 616.38,-216 616.38,-216 658.38,-216 658.38,-216 661.38,-216 664.38,-219 664.38,-222 664.38,-222 664.38,-228 664.38,-228 664.38,-231 661.38,-234 658.38,-234"/>
<text xml:space="preserve" text-anchor="middle" x="637.38" y="-222.28" font-family="Helvetica,sans-Serif" font-size="8.00" fill="#cccccc">{A}</text>
</g>
<!-- n14&#45;&gt;n16 -->
<g id="edge15" class="edge">
<title>n14&#45;&gt;n16</title>
<path fill="none" stroke="#e0e0e0" d="M538.81,-242.71C560.41,-238.79 584.9,-234.34 603.95,-230.89"/>
<polygon fill="#e0e0e0" stroke="#e0e0e0" points="604.09,-232.64 608.69,-230.03 603.46,-229.2 604.09,-232.64"/>
</g>
<!-- n18 -->
<g id="node18" class="node">
<title>n18</title>
<path fill="#e3f2fd" stroke="#1565c0" stroke-width="1.2" d="M366.04,-167C366.04,-167 286.9,-167 286.9,-167 283.9,-167 280.9,-164 280.9,-161 280.9,-161 280.9,-155 280.9,-155 280.9,-152 283.9,-149 286.9,-149 286.9,-149 366.04,-149 366.04,-149 369.04,-149 372.04,-152 372.04,-155 372.04,-155 372.04,-161 372.04,-161 372.04,-164 369.04,-167 366.04,-167"/>
<text xml:space="preserve" text-anchor="middle" x="326.47" y="-155.28" font-family="Helvetica,sans-Serif" font-size="8.00" fill="#1565c0">{B} ∣ 9$ ∣ 5kg ∣ ≤20$</text>
</g>
<!-- n17&#45;&gt;n18 -->
<g id="edge17" class="edge">
<title>n17&#45;&gt;n18</title>
<path fill="none" stroke="#555555" d="M222.79,-158C238.97,-158 257.49,-158 274.31,-158"/>
<polygon fill="#555555" stroke="#555555" points="273.9,-159.75 278.9,-158 273.9,-156.25 273.9,-159.75"/>
<text xml:space="preserve" text-anchor="middle" x="247.15" y="-159.6" font-family="Helvetica,sans-Serif" font-size="7.00" fill="#555555"> +B </text>
</g>
<!-- n25 -->
<g id="node25" class="node">
<title>n25</title>
<path fill="#fff3e0" stroke="#ffa726" stroke-width="1.2" d="M368.67,-85C368.67,-85 284.28,-85 284.28,-85 281.28,-85 278.28,-82 278.28,-79 278.28,-79 278.28,-73 278.28,-73 278.28,-70 281.28,-67 284.28,-67 284.28,-67 368.67,-67 368.67,-67 371.67,-67 374.67,-70 374.67,-73 374.67,-73 374.67,-79 374.67,-79 374.67,-82 371.67,-85 368.67,-85"/>
<text xml:space="preserve" text-anchor="middle" x="326.47" y="-74.03" font-family="Helvetica,sans-Serif" font-size="8.00" fill="#e65100">∅ ∣ 0$ ∣ 0kg ∣ ≤11$ &#160;✗</text>
</g>
<!-- n17&#45;&gt;n25 -->
<g id="edge24" class="edge">
<title>n17&#45;&gt;n25</title>
<path fill="none" stroke="#555555" d="M196.39,-148.43C222.78,-133.62 273.57,-105.13 302.95,-88.64"/>
<polygon fill="#555555" stroke="#555555" points="303.71,-90.22 307.21,-86.25 302,-87.17 303.71,-90.22"/>
<text xml:space="preserve" text-anchor="middle" x="247.15" y="-123.51" font-family="Helvetica,sans-Serif" font-size="7.00" fill="#555555"> −B </text>
</g>
<!-- n19 -->
<g id="node19" class="node">
<title>n19</title>
<path fill="#e3f2fd" stroke="#1565c0" stroke-width="1.2" d="M532.56,-180C532.56,-180 440.67,-180 440.67,-180 437.67,-180 434.67,-177 434.67,-174 434.67,-174 434.67,-168 434.67,-168 434.67,-165 437.67,-162 440.67,-162 440.67,-162 532.56,-162 532.56,-162 535.56,-162 538.56,-165 538.56,-168 538.56,-168 538.56,-174 538.56,-174 538.56,-177 535.56,-180 532.56,-180"/>
<text xml:space="preserve" text-anchor="middle" x="486.61" y="-168.28" font-family="Helvetica,sans-Serif" font-size="8.00" fill="#1565c0">{B,C} ∣ 16$ ∣ 9kg ∣ ≤20$</text>
</g>
<!-- n18&#45;&gt;n19 -->
<g id="edge18" class="edge">
<title>n18&#45;&gt;n19</title>
<path fill="none" stroke="#555555" d="M372.37,-161.69C389.68,-163.11 409.7,-164.76 428.04,-166.27"/>
<polygon fill="#555555" stroke="#555555" points="427.56,-167.98 432.68,-166.65 427.84,-164.49 427.56,-167.98"/>
<text xml:space="preserve" text-anchor="middle" x="406.17" y="-166.49" font-family="Helvetica,sans-Serif" font-size="7.00" fill="#555555"> +C </text>
</g>
<!-- n22 -->
<g id="node22" class="node">
<title>n22</title>
<path fill="#fff3e0" stroke="#ffa726" stroke-width="1.2" d="M530.68,-153C530.68,-153 442.54,-153 442.54,-153 439.54,-153 436.54,-150 436.54,-147 436.54,-147 436.54,-141 436.54,-141 436.54,-138 439.54,-135 442.54,-135 442.54,-135 530.68,-135 530.68,-135 533.68,-135 536.68,-138 536.68,-141 536.68,-141 536.68,-147 536.68,-147 536.68,-150 533.68,-153 530.68,-153"/>
<text xml:space="preserve" text-anchor="middle" x="486.61" y="-142.03" font-family="Helvetica,sans-Serif" font-size="8.00" fill="#e65100">{B} ∣ 9$ ∣ 5kg ∣ ≤13$ &#160;✗</text>
</g>
<!-- n18&#45;&gt;n22 -->
<g id="edge21" class="edge">
<title>n18&#45;&gt;n22</title>
<path fill="none" stroke="#555555" d="M372.37,-154.03C390.25,-152.44 411.03,-150.6 429.86,-148.94"/>
<polygon fill="#555555" stroke="#555555" points="429.83,-150.7 434.66,-148.51 429.53,-147.21 429.83,-150.7"/>
<text xml:space="preserve" text-anchor="middle" x="406.17" y="-153.02" font-family="Helvetica,sans-Serif" font-size="7.00" fill="#555555"> −C </text>
</g>
<!-- n20 -->
<g id="node20" class="node">
<title>n20</title>
<path fill="#ffebee" stroke="#ef5350" stroke-width="1.2" d="M679.95,-207C679.95,-207 594.81,-207 594.81,-207 591.81,-207 588.81,-204 588.81,-201 588.81,-201 588.81,-195 588.81,-195 588.81,-192 591.81,-189 594.81,-189 594.81,-189 679.95,-189 679.95,-189 682.95,-189 685.95,-192 685.95,-195 685.95,-195 685.95,-201 685.95,-201 685.95,-204 682.95,-207 679.95,-207"/>
<text xml:space="preserve" text-anchor="middle" x="637.38" y="-196.03" font-family="Helvetica,sans-Serif" font-size="8.00" fill="#c62828">{B,C,D} ∣ 20$ ∣ 12kg &#160;✗</text>
</g>
<!-- n19&#45;&gt;n20 -->
<g id="edge19" class="edge">
<title>n19&#45;&gt;n20</title>
<path fill="none" stroke="#555555" d="M538.81,-180.29C552.93,-182.85 568.29,-185.64 582.55,-188.23"/>
<polygon fill="#555555" stroke="#555555" points="581.87,-189.89 587.1,-189.06 582.5,-186.44 581.87,-189.89"/>
<text xml:space="preserve" text-anchor="middle" x="567.06" y="-187.72" font-family="Helvetica,sans-Serif" font-size="7.00" fill="#555555"> +D </text>
</g>
<!-- n21 -->
<g id="node21" class="node">
<title>n21</title>
<path fill="#fff3e0" stroke="#ffa726" stroke-width="1.2" d="M673.57,-180C673.57,-180 601.18,-180 601.18,-180 598.18,-180 595.18,-177 595.18,-174 595.18,-174 595.18,-168 595.18,-168 595.18,-165 598.18,-162 601.18,-162 601.18,-162 673.57,-162 673.57,-162 676.57,-162 679.57,-165 679.57,-168 679.57,-168 679.57,-174 679.57,-174 679.57,-177 676.57,-180 673.57,-180"/>
<text xml:space="preserve" text-anchor="middle" x="637.38" y="-169.03" font-family="Helvetica,sans-Serif" font-size="8.00" fill="#e65100">{B,C} ∣ 16$ ∣ 9kg &#160;✗</text>
</g>
<!-- n19&#45;&gt;n21 -->
<g id="edge20" class="edge">
<title>n19&#45;&gt;n21</title>
<path fill="none" stroke="#555555" d="M538.81,-171C554.99,-171 572.79,-171 588.71,-171"/>
<polygon fill="#555555" stroke="#555555" points="588.42,-172.75 593.42,-171 588.42,-169.25 588.42,-172.75"/>
<text xml:space="preserve" text-anchor="middle" x="567.06" y="-172.6" font-family="Helvetica,sans-Serif" font-size="7.00" fill="#555555"> −D </text>
</g>
<!-- n23 -->
<g id="node23" class="node">
<title>n23</title>
<path fill="#fafafa" stroke="#e0e0e0" stroke-width="0.8" d="M658.38,-153C658.38,-153 616.38,-153 616.38,-153 613.38,-153 610.38,-150 610.38,-147 610.38,-147 610.38,-141 610.38,-141 610.38,-138 613.38,-135 616.38,-135 616.38,-135 658.38,-135 658.38,-135 661.38,-135 664.38,-138 664.38,-141 664.38,-141 664.38,-147 664.38,-147 664.38,-150 661.38,-153 658.38,-153"/>
<text xml:space="preserve" text-anchor="middle" x="637.38" y="-141.28" font-family="Helvetica,sans-Serif" font-size="8.00" fill="#cccccc">{B,D}</text>
</g>
<!-- n22&#45;&gt;n23 -->
<g id="edge22" class="edge">
<title>n22&#45;&gt;n23</title>
<path fill="none" stroke="#e0e0e0" d="M537.15,-144C559.02,-144 584.13,-144 603.62,-144"/>
<polygon fill="#e0e0e0" stroke="#e0e0e0" points="603.48,-145.75 608.48,-144 603.48,-142.25 603.48,-145.75"/>
</g>
<!-- n24 -->
<g id="node24" class="node">
<title>n24</title>
<path fill="#fafafa" stroke="#e0e0e0" stroke-width="0.8" d="M658.38,-126C658.38,-126 616.38,-126 616.38,-126 613.38,-126 610.38,-123 610.38,-120 610.38,-120 610.38,-114 610.38,-114 610.38,-111 613.38,-108 616.38,-108 616.38,-108 658.38,-108 658.38,-108 661.38,-108 664.38,-111 664.38,-114 664.38,-114 664.38,-120 664.38,-120 664.38,-123 661.38,-126 658.38,-126"/>
<text xml:space="preserve" text-anchor="middle" x="637.38" y="-114.28" font-family="Helvetica,sans-Serif" font-size="8.00" fill="#cccccc">{B}</text>
</g>
<!-- n22&#45;&gt;n24 -->
<g id="edge23" class="edge">
<title>n22&#45;&gt;n24</title>
<path fill="none" stroke="#e0e0e0" d="M537.15,-135.01C559.02,-131.04 584.13,-126.48 603.62,-122.95"/>
<polygon fill="#e0e0e0" stroke="#e0e0e0" points="603.9,-124.67 608.51,-122.06 603.28,-121.23 603.9,-124.67"/>
</g>
<!-- n26 -->
<g id="node26" class="node">
<title>n26</title>
<path fill="#fafafa" stroke="#e0e0e0" stroke-width="0.8" d="M507.62,-85C507.62,-85 465.61,-85 465.61,-85 462.61,-85 459.61,-82 459.61,-79 459.61,-79 459.61,-73 459.61,-73 459.61,-70 462.61,-67 465.61,-67 465.61,-67 507.62,-67 507.62,-67 510.62,-67 513.62,-70 513.62,-73 513.62,-73 513.62,-79 513.62,-79 513.62,-82 510.62,-85 507.62,-85"/>
<text xml:space="preserve" text-anchor="middle" x="486.61" y="-73.28" font-family="Helvetica,sans-Serif" font-size="8.00" fill="#cccccc">{C}</text>
</g>
<!-- n25&#45;&gt;n26 -->
<g id="edge25" class="edge">
<title>n25&#45;&gt;n26</title>
<path fill="none" stroke="#e0e0e0" d="M374.92,-76C400.09,-76 430.39,-76 452.91,-76"/>
<polygon fill="#e0e0e0" stroke="#e0e0e0" points="452.83,-77.75 457.83,-76 452.83,-74.25 452.83,-77.75"/>
</g>
<!-- n29 -->
<g id="node29" class="node">
<title>n29</title>
<path fill="#fafafa" stroke="#e0e0e0" stroke-width="0.8" d="M507.62,-45C507.62,-45 465.61,-45 465.61,-45 462.61,-45 459.61,-42 459.61,-39 459.61,-39 459.61,-33 459.61,-33 459.61,-30 462.61,-27 465.61,-27 465.61,-27 507.62,-27 507.62,-27 510.62,-27 513.62,-30 513.62,-33 513.62,-33 513.62,-39 513.62,-39 513.62,-42 510.62,-45 507.62,-45"/>
<text xml:space="preserve" text-anchor="middle" x="486.61" y="-32.52" font-family="Helvetica,sans-Serif" font-size="8.00" fill="#cccccc">∅</text>
</g>
<!-- n25&#45;&gt;n29 -->
<g id="edge28" class="edge">
<title>n25&#45;&gt;n29</title>
<path fill="none" stroke="#e0e0e0" d="M365.35,-66.42C392.14,-59.64 427.68,-50.65 453.17,-44.21"/>
<polygon fill="#e0e0e0" stroke="#e0e0e0" points="453.53,-45.92 457.95,-43 452.67,-42.53 453.53,-45.92"/>
</g>
<!-- n27 -->
<g id="node27" class="node">
<title>n27</title>
<path fill="#fafafa" stroke="#e0e0e0" stroke-width="0.8" d="M658.38,-99C658.38,-99 616.38,-99 616.38,-99 613.38,-99 610.38,-96 610.38,-93 610.38,-93 610.38,-87 610.38,-87 610.38,-84 613.38,-81 616.38,-81 616.38,-81 658.38,-81 658.38,-81 661.38,-81 664.38,-84 664.38,-87 664.38,-87 664.38,-93 664.38,-93 664.38,-96 661.38,-99 658.38,-99"/>
<text xml:space="preserve" text-anchor="middle" x="637.38" y="-87.28" font-family="Helvetica,sans-Serif" font-size="8.00" fill="#cccccc">{C,D}</text>
</g>
<!-- n26&#45;&gt;n27 -->
<g id="edge26" class="edge">
<title>n26&#45;&gt;n27</title>
<path fill="none" stroke="#e0e0e0" d="M513.87,-78.47C538.97,-80.83 576.87,-84.4 603.87,-86.94"/>
<polygon fill="#e0e0e0" stroke="#e0e0e0" points="603.49,-88.66 608.63,-87.39 603.82,-85.18 603.49,-88.66"/>
</g>
<!-- n28 -->
<g id="node28" class="node">
<title>n28</title>
<path fill="#fafafa" stroke="#e0e0e0" stroke-width="0.8" d="M658.38,-72C658.38,-72 616.38,-72 616.38,-72 613.38,-72 610.38,-69 610.38,-66 610.38,-66 610.38,-60 610.38,-60 610.38,-57 613.38,-54 616.38,-54 616.38,-54 658.38,-54 658.38,-54 661.38,-54 664.38,-57 664.38,-60 664.38,-60 664.38,-66 664.38,-66 664.38,-69 661.38,-72 658.38,-72"/>
<text xml:space="preserve" text-anchor="middle" x="637.38" y="-60.27" font-family="Helvetica,sans-Serif" font-size="8.00" fill="#cccccc">{C}</text>
</g>
<!-- n26&#45;&gt;n28 -->
<g id="edge27" class="edge">
<title>n26&#45;&gt;n28</title>
<path fill="none" stroke="#e0e0e0" d="M513.87,-73.71C538.97,-71.51 576.87,-68.2 603.87,-65.84"/>
<polygon fill="#e0e0e0" stroke="#e0e0e0" points="603.8,-67.6 608.63,-65.42 603.5,-64.12 603.8,-67.6"/>
</g>
<!-- n30 -->
<g id="node30" class="node">
<title>n30</title>
<path fill="#fafafa" stroke="#e0e0e0" stroke-width="0.8" d="M658.38,-45C658.38,-45 616.38,-45 616.38,-45 613.38,-45 610.38,-42 610.38,-39 610.38,-39 610.38,-33 610.38,-33 610.38,-30 613.38,-27 616.38,-27 616.38,-27 658.38,-27 658.38,-27 661.38,-27 664.38,-30 664.38,-33 664.38,-33 664.38,-39 664.38,-39 664.38,-42 661.38,-45 658.38,-45"/>
<text xml:space="preserve" text-anchor="middle" x="637.38" y="-33.27" font-family="Helvetica,sans-Serif" font-size="8.00" fill="#cccccc">{D}</text>
</g>
<!-- n29&#45;&gt;n30 -->
<g id="edge29" class="edge">
<title>n29&#45;&gt;n30</title>
<path fill="none" stroke="#e0e0e0" d="M513.87,-36C538.97,-36 576.87,-36 603.87,-36"/>
<polygon fill="#e0e0e0" stroke="#e0e0e0" points="603.63,-37.75 608.63,-36 603.63,-34.25 603.63,-37.75"/>
</g>
<!-- n31 -->
<g id="node31" class="node">
<title>n31</title>
<path fill="#fafafa" stroke="#e0e0e0" stroke-width="0.8" d="M658.38,-18C658.38,-18 616.38,-18 616.38,-18 613.38,-18 610.38,-15 610.38,-12 610.38,-12 610.38,-6 610.38,-6 610.38,-3 613.38,0 616.38,0 616.38,0 658.38,0 658.38,0 661.38,0 664.38,-3 664.38,-6 664.38,-6 664.38,-12 664.38,-12 664.38,-15 661.38,-18 658.38,-18"/>
<text xml:space="preserve" text-anchor="middle" x="637.38" y="-5.53" font-family="Helvetica,sans-Serif" font-size="8.00" fill="#cccccc">∅</text>
</g>
<!-- n29&#45;&gt;n31 -->
<g id="edge30" class="edge">
<title>n29&#45;&gt;n31</title>
<path fill="none" stroke="#e0e0e0" d="M513.87,-31.24C538.97,-26.68 576.87,-19.8 603.87,-14.9"/>
<polygon fill="#e0e0e0" stroke="#e0e0e0" points="604.04,-16.65 608.65,-14.03 603.42,-13.2 604.04,-16.65"/>
</g>
</g>
</svg>
