<?xml version="1.0" encoding="UTF-8"?>
<svg id="Calque_2" data-name="Calque 2" xmlns="http://www.w3.org/2000/svg" viewBox="0 0 193.2 63.3">
  <defs>
    <style>
      .cls-1 {
        isolation: isolate;
        opacity: .5;
      }

      .cls-1, .cls-2 {
        fill: #fff;
        stroke-width: 0px;
      }
    </style>
  </defs>
  <g id="Calque_1-2" data-name="Calque 1">
    <g>
      <polygon class="cls-2" points="167.3 12.7 159.4 12.7 170.3 39.7 174.4 30.1 167.3 12.7"/>
      <polyline class="cls-2" points="184.4 12.7 162.7 63.3 171.7 63.3 193.2 12.7 184.4 12.7"/>
      <polygon class="cls-1" points="72.9 48.9 82.5 48.9 89.5 38.6 84.7 31.6 72.9 48.9"/>
      <polygon class="cls-2" points="108.5 48.9 99 48.9 74.3 12.7 84 12.7 108.5 48.9"/>
      <polygon class="cls-1" points="107.3 12.7 97.6 12.7 92.1 21 96.9 28 107.3 12.7"/>
      <rect class="cls-2" x="148.2" width="7.3" height="48.9"/>
      <path class="cls-2" d="m56.2,41.8c-6,0-10.9-4.8-10.9-10.9s4.9-10.8,10.9-10.8c4.9,0,9.4,3.4,10.6,8.2h-18.7c-.3.9-.4,1.8-.4,2.5,0,1.3.3,2.5.7,3.7h25.6c.3-1.2.3-2.4.3-3.6,0-10-8.1-18.3-18.1-18.3s-18.3,8.1-18.3,18.1,8.1,18.3,18.1,18.3c7.6,0,14.5-4.8,17.2-12h-8.1c-1.9,3-5.3,4.8-8.9,4.8Z"/>
      <path class="cls-2" d="m136.1,12.7v3.6h0v13.5h0v1.9c-.4,6-5.7,10.5-11.7,9.9-6-.4-10.5-5.7-9.9-11.7s5.7-10.5,11.7-9.9c3,.3,5.7,1.6,7.5,3.9v-9.1c-8.8-4.6-19.8-1.3-24.4,7.5-4.6,8.8-1.3,19.8,7.5,24.4,6.1,3.3,13.6,2.7,19.3-1.5v3.6h7.3V12.7h-7.3Z"/>
      <g>
        <polygon class="cls-2" points="7.7 12.7 7.7 .2 0 .2 0 48.9 7.7 48.9 7.7 12.7"/>
        <path class="cls-2" d="m27.7,19.5c-3.3-3.3-7.2-5.1-11.4-5.4-2.1-.1-4.2,0-6.1.6v8.4c1.5-.7,3.1-1.2,4.8-1.2,2.7,0,5.1,1,7.5,3.1,2.1,2.1,3.1,4.6,3.1,7.5v16.3h7.8v-16.3c-.3-5.1-2.1-9.4-5.7-13Z"/>
      </g>
    </g>
  </g>
</svg>