<?xml version="1.0" encoding="utf-8" standalone="no"?>
<!DOCTYPE svg PUBLIC "-//W3C//DTD SVG 1.1//EN"
  "http://www.w3.org/Graphics/SVG/1.1/DTD/svg11.dtd">
<svg xmlns:xlink="http://www.w3.org/1999/xlink" width="410.182497pt" height="435.756875pt" viewBox="0 0 410.182497 435.756875" xmlns="http://www.w3.org/2000/svg" version="1.1">
 <metadata>
  <rdf:RDF xmlns:dc="http://purl.org/dc/elements/1.1/" xmlns:cc="http://creativecommons.org/ns#" xmlns:rdf="http://www.w3.org/1999/02/22-rdf-syntax-ns#">
   <cc:Work>
    <dc:type rdf:resource="http://purl.org/dc/dcmitype/StillImage"/>
    <dc:date>2026-04-07T17:45:27.263044</dc:date>
    <dc:format>image/svg+xml</dc:format>
    <dc:creator>
     <cc:Agent>
      <dc:title>Matplotlib v3.10.8, https://matplotlib.org/</dc:title>
     </cc:Agent>
    </dc:creator>
   </cc:Work>
  </rdf:RDF>
 </metadata>
 <defs>
  <style type="text/css">*{stroke-linejoin: round; stroke-linecap: butt}</style>
 </defs>
 <g id="figure_1">
  <g id="patch_1">
   <path d="M 0 435.756875 
L 410.182497 435.756875 
L 410.182497 0 
L 0 0 
L 0 435.756875 
z
" style="fill: none; opacity: 0"/>
  </g>
  <g id="axes_1">
   <g id="LineCollection_1">
    <path d="M 258.879834 372.005078 
L 282.99382 387.481219 
" clip-path="url(#pc6ff32be1c)" style="fill: none; stroke: #ecf0f1; stroke-opacity: 0.95; stroke-width: 2.5"/>
   </g>
   <g id="LineCollection_2">
    <path d="M 282.99382 387.481219 
L 294.870858 375.604181 
" clip-path="url(#pc6ff32be1c)" style="fill: none; stroke: #ecf0f1; stroke-opacity: 0.95; stroke-width: 2.5"/>
   </g>
   <g id="LineCollection_3">
    <path d="M 257.440193 350.050554 
L 254.560911 354.369476 
" clip-path="url(#pc6ff32be1c)" style="fill: none; stroke: #ecf0f1; stroke-opacity: 0.95; stroke-width: 2.5"/>
   </g>
   <g id="LineCollection_4">
    <path d="M 32.496291 139.862972 
L 25.657997 133.384587 
" clip-path="url(#pc6ff32be1c)" style="fill: none; stroke: #ecf0f1; stroke-opacity: 0.95; stroke-width: 2.5"/>
   </g>
   <g id="LineCollection_5">
    <path d="M 32.496291 139.862972 
L 40.054407 169.375612 
" clip-path="url(#pc6ff32be1c)" style="fill: none; stroke: #ecf0f1; stroke-opacity: 0.95; stroke-width: 2.5"/>
   </g>
   <g id="LineCollection_6">
    <path d="M 25.657997 133.384587 
L 35.015663 116.468806 
" clip-path="url(#pc6ff32be1c)" style="fill: none; stroke: #ecf0f1; stroke-opacity: 0.95; stroke-width: 2.5"/>
   </g>
   <g id="LineCollection_7">
    <path d="M 40.054407 169.375612 
L 49.771983 188.810765 
" clip-path="url(#pc6ff32be1c)" style="fill: none; stroke: #ecf0f1; stroke-opacity: 0.95; stroke-width: 2.5"/>
   </g>
   <g id="LineCollection_8">
    <path d="M 124.633314 323.057285 
L 103.758519 327.376208 
" clip-path="url(#pc6ff32be1c)" style="fill: none; stroke: #ecf0f1; stroke-opacity: 0.95; stroke-width: 2.5"/>
   </g>
   <g id="LineCollection_9">
    <path d="M 124.633314 323.057285 
L 139.389633 334.934323 
" clip-path="url(#pc6ff32be1c)" style="fill: none; stroke: #ecf0f1; stroke-opacity: 0.95; stroke-width: 2.5"/>
   </g>
   <g id="LineCollection_10">
    <path d="M 103.758519 327.376208 
L 80.724264 333.854593 
" clip-path="url(#pc6ff32be1c)" style="fill: none; stroke: #ecf0f1; stroke-opacity: 0.95; stroke-width: 2.5"/>
   </g>
   <g id="LineCollection_11">
    <path d="M 139.389633 334.934323 
L 154.145953 336.014054 
" clip-path="url(#pc6ff32be1c)" style="fill: none; stroke: #ecf0f1; stroke-opacity: 0.95; stroke-width: 2.5"/>
   </g>
   <g id="LineCollection_12">
    <path d="M 105.558071 361.927592 
L 113.476096 352.929835 
" clip-path="url(#pc6ff32be1c)" style="fill: none; stroke: #ecf0f1; stroke-opacity: 0.95; stroke-width: 2.5"/>
   </g>
   <g id="LineCollection_13">
    <path d="M 105.558071 361.927592 
L 104.11843 362.287502 
" clip-path="url(#pc6ff32be1c)" style="fill: none; stroke: #ecf0f1; stroke-opacity: 0.95; stroke-width: 2.5"/>
   </g>
   <g id="LineCollection_14">
    <path d="M 113.476096 352.929835 
L 121.034211 361.927592 
" clip-path="url(#pc6ff32be1c)" style="fill: none; stroke: #ecf0f1; stroke-opacity: 0.95; stroke-width: 2.5"/>
   </g>
   <g id="LineCollection_15">
    <path d="M 104.11843 362.287502 
L 34.295843 378.843373 
" clip-path="url(#pc6ff32be1c)" style="fill: none; stroke: #ecf0f1; stroke-opacity: 0.95; stroke-width: 2.5"/>
   </g>
   <g id="LineCollection_16">
    <path d="M 294.870858 375.604181 
L 309.267268 392.519962 
" clip-path="url(#pc6ff32be1c)" style="fill: none; stroke: #ecf0f1; stroke-opacity: 0.95; stroke-width: 2.5"/>
   </g>
   <g id="LineCollection_17">
    <path d="M 309.267268 392.519962 
L 320.784396 397.198795 
" clip-path="url(#pc6ff32be1c)" style="fill: none; stroke: #ecf0f1; stroke-opacity: 0.95; stroke-width: 2.5"/>
   </g>
   <g id="LineCollection_18">
    <path d="M 272.556423 140.222882 
L 262.838847 154.619292 
" clip-path="url(#pc6ff32be1c)" style="fill: none; stroke: #ecf0f1; stroke-opacity: 0.95; stroke-width: 2.5"/>
   </g>
   <g id="LineCollection_19">
    <path d="M 272.556423 140.222882 
L 273.996064 147.421087 
" clip-path="url(#pc6ff32be1c)" style="fill: none; stroke: #ecf0f1; stroke-opacity: 0.95; stroke-width: 2.5"/>
   </g>
   <g id="LineCollection_20">
    <path d="M 262.838847 154.619292 
L 259.239744 159.658035 
" clip-path="url(#pc6ff32be1c)" style="fill: none; stroke: #ecf0f1; stroke-opacity: 0.95; stroke-width: 2.5"/>
   </g>
   <g id="LineCollection_21">
    <path d="M 273.996064 147.421087 
L 275.075795 174.414355 
" clip-path="url(#pc6ff32be1c)" style="fill: none; stroke: #ecf0f1; stroke-opacity: 0.95; stroke-width: 2.5"/>
   </g>
   <g id="LineCollection_22">
    <path d="M 352.096587 212.204931 
L 370.81192 204.286905 
" clip-path="url(#pc6ff32be1c)" style="fill: none; stroke: #ecf0f1; stroke-opacity: 0.95; stroke-width: 2.5"/>
   </g>
   <g id="LineCollection_23">
    <path d="M 352.096587 212.204931 
L 354.256048 198.168431 
" clip-path="url(#pc6ff32be1c)" style="fill: none; stroke: #ecf0f1; stroke-opacity: 0.95; stroke-width: 2.5"/>
   </g>
   <g id="LineCollection_24">
    <path d="M 370.81192 204.286905 
L 360.374523 176.213906 
" clip-path="url(#pc6ff32be1c)" style="fill: none; stroke: #ecf0f1; stroke-opacity: 0.95; stroke-width: 2.5"/>
   </g>
   <g id="LineCollection_25">
    <path d="M 354.256048 198.168431 
L 329.062331 181.61256 
" clip-path="url(#pc6ff32be1c)" style="fill: none; stroke: #ecf0f1; stroke-opacity: 0.95; stroke-width: 2.5"/>
   </g>
   <g id="LineCollection_26">
    <path d="M 55.530547 195.649059 
L 33.216112 206.446367 
" clip-path="url(#pc6ff32be1c)" style="fill: none; stroke: #ecf0f1; stroke-opacity: 0.95; stroke-width: 2.5"/>
   </g>
   <g id="LineCollection_27">
    <path d="M 55.530547 195.649059 
L 49.771983 188.810765 
" clip-path="url(#pc6ff32be1c)" style="fill: none; stroke: #ecf0f1; stroke-opacity: 0.95; stroke-width: 2.5"/>
   </g>
   <g id="LineCollection_28">
    <path d="M 33.216112 206.446367 
L 46.892701 271.23021 
" clip-path="url(#pc6ff32be1c)" style="fill: none; stroke: #ecf0f1; stroke-opacity: 0.95; stroke-width: 2.5"/>
   </g>
   <g id="LineCollection_29">
    <path d="M 178.97976 401.517718 
L 162.783799 384.242027 
" clip-path="url(#pc6ff32be1c)" style="fill: none; stroke: #ecf0f1; stroke-opacity: 0.95; stroke-width: 2.5"/>
   </g>
   <g id="LineCollection_30">
    <path d="M 178.97976 401.517718 
L 192.296439 360.487951 
" clip-path="url(#pc6ff32be1c)" style="fill: none; stroke: #ecf0f1; stroke-opacity: 0.95; stroke-width: 2.5"/>
   </g>
   <g id="LineCollection_31">
    <path d="M 162.783799 384.242027 
L 147.307659 375.604181 
" clip-path="url(#pc6ff32be1c)" style="fill: none; stroke: #ecf0f1; stroke-opacity: 0.95; stroke-width: 2.5"/>
   </g>
   <g id="LineCollection_32">
    <path d="M 192.296439 360.487951 
L 221.089259 367.326245 
" clip-path="url(#pc6ff32be1c)" style="fill: none; stroke: #ecf0f1; stroke-opacity: 0.95; stroke-width: 2.5"/>
   </g>
   <g id="LineCollection_33">
    <path d="M 34.295843 378.843373 
L 63.808483 356.888848 
" clip-path="url(#pc6ff32be1c)" style="fill: none; stroke: #ecf0f1; stroke-opacity: 0.95; stroke-width: 2.5"/>
   </g>
   <g id="LineCollection_34">
    <path d="M 63.808483 356.888848 
L 80.724264 333.854593 
" clip-path="url(#pc6ff32be1c)" style="fill: none; stroke: #ecf0f1; stroke-opacity: 0.95; stroke-width: 2.5"/>
   </g>
   <g id="LineCollection_35">
    <path d="M 209.572131 191.330137 
L 190.496888 179.093188 
" clip-path="url(#pc6ff32be1c)" style="fill: none; stroke: #ecf0f1; stroke-opacity: 0.95; stroke-width: 2.5"/>
   </g>
   <g id="LineCollection_36">
    <path d="M 209.572131 191.330137 
L 220.009528 144.541805 
" clip-path="url(#pc6ff32be1c)" style="fill: none; stroke: #ecf0f1; stroke-opacity: 0.95; stroke-width: 2.5"/>
   </g>
   <g id="LineCollection_37">
    <path d="M 190.496888 179.093188 
L 178.97976 193.489598 
" clip-path="url(#pc6ff32be1c)" style="fill: none; stroke: #ecf0f1; stroke-opacity: 0.95; stroke-width: 2.5"/>
   </g>
   <g id="LineCollection_38">
    <path d="M 220.009528 144.541805 
L 259.239744 159.658035 
" clip-path="url(#pc6ff32be1c)" style="fill: none; stroke: #ecf0f1; stroke-opacity: 0.95; stroke-width: 2.5"/>
   </g>
   <g id="LineCollection_39">
    <path d="M 46.892701 271.23021 
L 57.330098 273.029762 
" clip-path="url(#pc6ff32be1c)" style="fill: none; stroke: #ecf0f1; stroke-opacity: 0.95; stroke-width: 2.5"/>
   </g>
   <g id="LineCollection_40">
    <path d="M 96.560315 149.220638 
L 114.195917 138.783241 
" clip-path="url(#pc6ff32be1c)" style="fill: none; stroke: #ecf0f1; stroke-opacity: 0.95; stroke-width: 2.5"/>
   </g>
   <g id="LineCollection_41">
    <path d="M 96.560315 149.220638 
L 65.608034 161.817497 
" clip-path="url(#pc6ff32be1c)" style="fill: none; stroke: #ecf0f1; stroke-opacity: 0.95; stroke-width: 2.5"/>
   </g>
   <g id="LineCollection_42">
    <path d="M 114.195917 138.783241 
L 120.314391 138.063421 
" clip-path="url(#pc6ff32be1c)" style="fill: none; stroke: #ecf0f1; stroke-opacity: 0.95; stroke-width: 2.5"/>
   </g>
   <g id="LineCollection_43">
    <path d="M 65.608034 161.817497 
L 56.970188 134.824228 
" clip-path="url(#pc6ff32be1c)" style="fill: none; stroke: #ecf0f1; stroke-opacity: 0.95; stroke-width: 2.5"/>
   </g>
   <g id="LineCollection_44">
    <path d="M 224.328451 258.633352 
L 193.73608 273.389672 
" clip-path="url(#pc6ff32be1c)" style="fill: none; stroke: #ecf0f1; stroke-opacity: 0.95; stroke-width: 2.5"/>
   </g>
   <g id="LineCollection_45">
    <path d="M 224.328451 258.633352 
L 238.72486 255.39416 
" clip-path="url(#pc6ff32be1c)" style="fill: none; stroke: #ecf0f1; stroke-opacity: 0.95; stroke-width: 2.5"/>
   </g>
   <g id="LineCollection_46">
    <path d="M 193.73608 273.389672 
L 170.341914 279.868056 
" clip-path="url(#pc6ff32be1c)" style="fill: none; stroke: #ecf0f1; stroke-opacity: 0.95; stroke-width: 2.5"/>
   </g>
   <g id="LineCollection_47">
    <path d="M 104.47834 247.836045 
L 83.243636 276.628864 
" clip-path="url(#pc6ff32be1c)" style="fill: none; stroke: #ecf0f1; stroke-opacity: 0.95; stroke-width: 2.5"/>
   </g>
   <g id="LineCollection_48">
    <path d="M 104.47834 247.836045 
L 139.749544 265.471646 
" clip-path="url(#pc6ff32be1c)" style="fill: none; stroke: #ecf0f1; stroke-opacity: 0.95; stroke-width: 2.5"/>
   </g>
   <g id="LineCollection_49">
    <path d="M 83.243636 276.628864 
L 59.129649 280.947787 
" clip-path="url(#pc6ff32be1c)" style="fill: none; stroke: #ecf0f1; stroke-opacity: 0.95; stroke-width: 2.5"/>
   </g>
   <g id="LineCollection_50">
    <path d="M 240.524412 310.820337 
L 245.923065 315.85908 
" clip-path="url(#pc6ff32be1c)" style="fill: none; stroke: #ecf0f1; stroke-opacity: 0.95; stroke-width: 2.5"/>
   </g>
   <g id="LineCollection_51">
    <path d="M 240.524412 310.820337 
L 226.847822 305.061773 
" clip-path="url(#pc6ff32be1c)" style="fill: none; stroke: #ecf0f1; stroke-opacity: 0.95; stroke-width: 2.5"/>
   </g>
   <g id="LineCollection_52">
    <path d="M 245.923065 315.85908 
L 270.396962 314.77935 
" clip-path="url(#pc6ff32be1c)" style="fill: none; stroke: #ecf0f1; stroke-opacity: 0.95; stroke-width: 2.5"/>
   </g>
   <g id="LineCollection_53">
    <path d="M 226.847822 305.061773 
L 228.647374 332.414952 
" clip-path="url(#pc6ff32be1c)" style="fill: none; stroke: #ecf0f1; stroke-opacity: 0.95; stroke-width: 2.5"/>
   </g>
   <g id="LineCollection_54">
    <path d="M 321.504216 92.71473 
L 381.969137 73.279577 
" clip-path="url(#pc6ff32be1c)" style="fill: none; stroke: #ecf0f1; stroke-opacity: 0.95; stroke-width: 2.5"/>
   </g>
   <g id="LineCollection_55">
    <path d="M 321.504216 92.71473 
L 281.91409 67.880923 
" clip-path="url(#pc6ff32be1c)" style="fill: none; stroke: #ecf0f1; stroke-opacity: 0.95; stroke-width: 2.5"/>
   </g>
   <g id="LineCollection_56">
    <path d="M 381.969137 73.279577 
L 376.210573 131.944946 
" clip-path="url(#pc6ff32be1c)" style="fill: none; stroke: #ecf0f1; stroke-opacity: 0.95; stroke-width: 2.5"/>
   </g>
   <g id="LineCollection_57">
    <path d="M 281.91409 67.880923 
L 251.321719 86.956166 
" clip-path="url(#pc6ff32be1c)" style="fill: none; stroke: #ecf0f1; stroke-opacity: 0.95; stroke-width: 2.5"/>
   </g>
   <g id="LineCollection_58">
    <path d="M 35.015663 116.468806 
L 40.774227 95.953922 
" clip-path="url(#pc6ff32be1c)" style="fill: none; stroke: #ecf0f1; stroke-opacity: 0.95; stroke-width: 2.5"/>
   </g>
   <g id="LineCollection_59">
    <path d="M 320.424486 354.369476 
L 338.419998 327.376208 
" clip-path="url(#pc6ff32be1c)" style="fill: none; stroke: #ecf0f1; stroke-opacity: 0.95; stroke-width: 2.5"/>
   </g>
   <g id="LineCollection_60">
    <path d="M 320.424486 354.369476 
L 342.738921 375.964091 
" clip-path="url(#pc6ff32be1c)" style="fill: none; stroke: #ecf0f1; stroke-opacity: 0.95; stroke-width: 2.5"/>
   </g>
   <g id="LineCollection_61">
    <path d="M 338.419998 327.376208 
L 335.540716 286.346441 
" clip-path="url(#pc6ff32be1c)" style="fill: none; stroke: #ecf0f1; stroke-opacity: 0.95; stroke-width: 2.5"/>
   </g>
   <g id="LineCollection_62">
    <path d="M 342.738921 375.964091 
L 370.81192 409.075833 
" clip-path="url(#pc6ff32be1c)" style="fill: none; stroke: #ecf0f1; stroke-opacity: 0.95; stroke-width: 2.5"/>
   </g>
   <g id="LineCollection_63">
    <path d="M 280.474449 257.553621 
L 292.351487 243.877032 
" clip-path="url(#pc6ff32be1c)" style="fill: none; stroke: #ecf0f1; stroke-opacity: 0.95; stroke-width: 2.5"/>
   </g>
   <g id="LineCollection_64">
    <path d="M 275.795615 293.544645 
L 270.396962 314.77935 
" clip-path="url(#pc6ff32be1c)" style="fill: none; stroke: #ecf0f1; stroke-opacity: 0.95; stroke-width: 2.5"/>
   </g>
   <g id="LineCollection_65">
    <path d="M 148.7473 310.820337 
L 163.50362 310.820337 
" clip-path="url(#pc6ff32be1c)" style="fill: none; stroke: #ecf0f1; stroke-opacity: 0.95; stroke-width: 2.5"/>
   </g>
   <g id="LineCollection_66">
    <path d="M 376.210573 131.944946 
L 334.101075 130.145395 
" clip-path="url(#pc6ff32be1c)" style="fill: none; stroke: #ecf0f1; stroke-opacity: 0.95; stroke-width: 2.5"/>
   </g>
   <g id="LineCollection_67">
    <path d="M 334.101075 130.145395 
L 346.338023 148.500818 
" clip-path="url(#pc6ff32be1c)" style="fill: none; stroke: #ecf0f1; stroke-opacity: 0.95; stroke-width: 2.5"/>
   </g>
   <g id="LineCollection_68">
    <path d="M 147.307659 375.604181 
L 130.031967 383.882116 
" clip-path="url(#pc6ff32be1c)" style="fill: none; stroke: #ecf0f1; stroke-opacity: 0.95; stroke-width: 2.5"/>
   </g>
   <g id="LineCollection_69">
    <path d="M 130.031967 383.882116 
L 122.113942 388.92086 
" clip-path="url(#pc6ff32be1c)" style="fill: none; stroke: #ecf0f1; stroke-opacity: 0.95; stroke-width: 2.5"/>
   </g>
   <g id="LineCollection_70">
    <path d="M 57.330098 273.029762 
L 59.129649 280.947787 
" clip-path="url(#pc6ff32be1c)" style="fill: none; stroke: #ecf0f1; stroke-opacity: 0.95; stroke-width: 2.5"/>
   </g>
   <g id="LineCollection_71">
    <path d="M 335.540716 286.346441 
L 340.939369 279.868056 
" clip-path="url(#pc6ff32be1c)" style="fill: none; stroke: #ecf0f1; stroke-opacity: 0.95; stroke-width: 2.5"/>
   </g>
   <g id="LineCollection_72">
    <path d="M 340.939369 279.868056 
L 330.861883 278.788325 
" clip-path="url(#pc6ff32be1c)" style="fill: none; stroke: #ecf0f1; stroke-opacity: 0.95; stroke-width: 2.5"/>
   </g>
   <g id="LineCollection_73">
    <path d="M 320.784396 397.198795 
L 370.81192 409.075833 
" clip-path="url(#pc6ff32be1c)" style="fill: none; stroke: #ecf0f1; stroke-opacity: 0.95; stroke-width: 2.5"/>
   </g>
   <g id="LineCollection_74">
    <path d="M 236.205489 342.492438 
L 228.647374 332.414952 
" clip-path="url(#pc6ff32be1c)" style="fill: none; stroke: #ecf0f1; stroke-opacity: 0.95; stroke-width: 2.5"/>
   </g>
   <g id="LineCollection_75">
    <path d="M 329.062331 181.61256 
L 315.385742 162.537317 
" clip-path="url(#pc6ff32be1c)" style="fill: none; stroke: #ecf0f1; stroke-opacity: 0.95; stroke-width: 2.5"/>
   </g>
   <g id="LineCollection_76">
    <path d="M 315.385742 162.537317 
L 275.075795 174.414355 
" clip-path="url(#pc6ff32be1c)" style="fill: none; stroke: #ecf0f1; stroke-opacity: 0.95; stroke-width: 2.5"/>
   </g>
   <g id="LineCollection_77">
    <path d="M 251.321719 86.956166 
L 227.207733 95.953922 
" clip-path="url(#pc6ff32be1c)" style="fill: none; stroke: #ecf0f1; stroke-opacity: 0.95; stroke-width: 2.5"/>
   </g>
   <g id="LineCollection_78">
    <path d="M 227.207733 95.953922 
L 169.262184 87.316076 
" clip-path="url(#pc6ff32be1c)" style="fill: none; stroke: #ecf0f1; stroke-opacity: 0.95; stroke-width: 2.5"/>
   </g>
   <g id="LineCollection_79">
    <path d="M 107.357622 128.345844 
L 107.717532 110.350332 
" clip-path="url(#pc6ff32be1c)" style="fill: none; stroke: #ecf0f1; stroke-opacity: 0.95; stroke-width: 2.5"/>
   </g>
   <g id="LineCollection_80">
    <path d="M 107.357622 128.345844 
L 120.314391 138.063421 
" clip-path="url(#pc6ff32be1c)" style="fill: none; stroke: #ecf0f1; stroke-opacity: 0.95; stroke-width: 2.5"/>
   </g>
   <g id="LineCollection_81">
    <path d="M 107.717532 110.350332 
L 101.239148 76.518769 
" clip-path="url(#pc6ff32be1c)" style="fill: none; stroke: #ecf0f1; stroke-opacity: 0.95; stroke-width: 2.5"/>
   </g>
   <g id="LineCollection_82">
    <path d="M 122.113942 388.92086 
L 121.034211 361.927592 
" clip-path="url(#pc6ff32be1c)" style="fill: none; stroke: #ecf0f1; stroke-opacity: 0.95; stroke-width: 2.5"/>
   </g>
   <g id="LineCollection_83">
    <path d="M 178.97976 193.489598 
L 163.86353 193.489598 
" clip-path="url(#pc6ff32be1c)" style="fill: none; stroke: #ecf0f1; stroke-opacity: 0.95; stroke-width: 2.5"/>
   </g>
   <g id="LineCollection_84">
    <path d="M 122.833762 72.199846 
L 169.262184 87.316076 
" clip-path="url(#pc6ff32be1c)" style="fill: none; stroke: #ecf0f1; stroke-opacity: 0.95; stroke-width: 2.5"/>
   </g>
   <g id="LineCollection_85">
    <path d="M 122.833762 72.199846 
L 115.995468 55.284065 
" clip-path="url(#pc6ff32be1c)" style="fill: none; stroke: #ecf0f1; stroke-opacity: 0.95; stroke-width: 2.5"/>
   </g>
   <g id="LineCollection_86">
    <path d="M 115.995468 55.284065 
L 101.239148 76.518769 
" clip-path="url(#pc6ff32be1c)" style="fill: none; stroke: #ecf0f1; stroke-opacity: 0.95; stroke-width: 2.5"/>
   </g>
   <g id="LineCollection_87">
    <path d="M 346.338023 148.500818 
L 360.374523 176.213906 
" clip-path="url(#pc6ff32be1c)" style="fill: none; stroke: #ecf0f1; stroke-opacity: 0.95; stroke-width: 2.5"/>
   </g>
   <g id="LineCollection_88">
    <path d="M 40.774227 95.953922 
L 56.970188 134.824228 
" clip-path="url(#pc6ff32be1c)" style="fill: none; stroke: #ecf0f1; stroke-opacity: 0.95; stroke-width: 2.5"/>
   </g>
   <g id="LineCollection_89">
    <path d="M 230.087015 214.724302 
L 211.011772 231.280173 
" clip-path="url(#pc6ff32be1c)" style="fill: none; stroke: #ecf0f1; stroke-opacity: 0.95; stroke-width: 2.5"/>
   </g>
   <g id="LineCollection_90">
    <path d="M 211.011772 231.280173 
L 195.895542 218.323405 
" clip-path="url(#pc6ff32be1c)" style="fill: none; stroke: #ecf0f1; stroke-opacity: 0.95; stroke-width: 2.5"/>
   </g>
   <g id="LineCollection_91">
    <path d="M 195.895542 218.323405 
L 163.86353 193.489598 
" clip-path="url(#pc6ff32be1c)" style="fill: none; stroke: #ecf0f1; stroke-opacity: 0.95; stroke-width: 2.5"/>
   </g>
   <g id="LineCollection_92">
    <path d="M 258.879834 372.005078 
L 257.440193 350.050554 
" clip-path="url(#pc6ff32be1c)" style="fill: none; stroke: #e74c3c; stroke-opacity: 0.7; stroke-width: 1.25"/>
   </g>
   <g id="LineCollection_93">
    <path d="M 258.879834 372.005078 
L 254.560911 354.369476 
" clip-path="url(#pc6ff32be1c)" style="fill: none; stroke: #e74c3c; stroke-opacity: 0.7; stroke-width: 1.25"/>
   </g>
   <g id="LineCollection_94">
    <path d="M 257.440193 350.050554 
L 236.205489 342.492438 
" clip-path="url(#pc6ff32be1c)" style="fill: none; stroke: #e74c3c; stroke-opacity: 0.7; stroke-width: 1.25"/>
   </g>
   <g id="LineCollection_95">
    <path d="M 254.560911 354.369476 
L 221.089259 367.326245 
" clip-path="url(#pc6ff32be1c)" style="fill: none; stroke: #e74c3c; stroke-opacity: 0.7; stroke-width: 1.25"/>
   </g>
   <g id="LineCollection_96">
    <path d="M 238.72486 255.39416 
L 264.998308 229.120712 
" clip-path="url(#pc6ff32be1c)" style="fill: none; stroke: #e74c3c; stroke-opacity: 0.7; stroke-width: 1.25"/>
   </g>
   <g id="LineCollection_97">
    <path d="M 238.72486 255.39416 
L 230.087015 214.724302 
" clip-path="url(#pc6ff32be1c)" style="fill: none; stroke: #e74c3c; stroke-opacity: 0.7; stroke-width: 1.25"/>
   </g>
   <g id="LineCollection_98">
    <path d="M 139.749544 265.471646 
L 148.7473 310.820337 
" clip-path="url(#pc6ff32be1c)" style="fill: none; stroke: #e74c3c; stroke-opacity: 0.7; stroke-width: 1.25"/>
   </g>
   <g id="LineCollection_99">
    <path d="M 139.749544 265.471646 
L 170.341914 279.868056 
" clip-path="url(#pc6ff32be1c)" style="fill: none; stroke: #e74c3c; stroke-opacity: 0.7; stroke-width: 1.25"/>
   </g>
   <g id="LineCollection_100">
    <path d="M 280.474449 257.553621 
L 275.795615 293.544645 
" clip-path="url(#pc6ff32be1c)" style="fill: none; stroke: #e74c3c; stroke-opacity: 0.7; stroke-width: 1.25"/>
   </g>
   <g id="LineCollection_101">
    <path d="M 280.474449 257.553621 
L 264.998308 229.120712 
" clip-path="url(#pc6ff32be1c)" style="fill: none; stroke: #e74c3c; stroke-opacity: 0.7; stroke-width: 1.25"/>
   </g>
   <g id="LineCollection_102">
    <path d="M 292.351487 243.877032 
L 330.861883 278.788325 
" clip-path="url(#pc6ff32be1c)" style="fill: none; stroke: #e74c3c; stroke-opacity: 0.7; stroke-width: 1.25"/>
   </g>
   <g id="LineCollection_103">
    <path d="M 292.351487 243.877032 
L 264.998308 229.120712 
" clip-path="url(#pc6ff32be1c)" style="fill: none; stroke: #e74c3c; stroke-opacity: 0.7; stroke-width: 1.25"/>
   </g>
   <g id="LineCollection_104">
    <path d="M 275.795615 293.544645 
L 330.861883 278.788325 
" clip-path="url(#pc6ff32be1c)" style="fill: none; stroke: #e74c3c; stroke-opacity: 0.7; stroke-width: 1.25"/>
   </g>
   <g id="LineCollection_105">
    <path d="M 264.998308 229.120712 
L 230.087015 214.724302 
" clip-path="url(#pc6ff32be1c)" style="fill: none; stroke: #e74c3c; stroke-opacity: 0.7; stroke-width: 1.25"/>
   </g>
   <g id="LineCollection_106">
    <path d="M 148.7473 310.820337 
L 154.145953 336.014054 
" clip-path="url(#pc6ff32be1c)" style="fill: none; stroke: #e74c3c; stroke-opacity: 0.7; stroke-width: 1.25"/>
   </g>
   <g id="LineCollection_107">
    <path d="M 163.50362 310.820337 
L 154.145953 336.014054 
" clip-path="url(#pc6ff32be1c)" style="fill: none; stroke: #e74c3c; stroke-opacity: 0.7; stroke-width: 1.25"/>
   </g>
   <g id="LineCollection_108">
    <path d="M 163.50362 310.820337 
L 170.341914 279.868056 
" clip-path="url(#pc6ff32be1c)" style="fill: none; stroke: #e74c3c; stroke-opacity: 0.7; stroke-width: 1.25"/>
   </g>
   <g id="LineCollection_109">
    <path d="M 221.089259 367.326245 
L 236.205489 342.492438 
" clip-path="url(#pc6ff32be1c)" style="fill: none; stroke: #e74c3c; stroke-opacity: 0.7; stroke-width: 1.25"/>
   </g>
   <g id="PathCollection_1">
    <defs>
     <path id="C0_0_18f03556a7" d="M 0 3.162278 
C 0.838646 3.162278 1.643056 2.82908 2.236068 2.236068 
C 2.82908 1.643056 3.162278 0.838646 3.162278 -0 
C 3.162278 -0.838646 2.82908 -1.643056 2.236068 -2.236068 
C 1.643056 -2.82908 0.838646 -3.162278 0 -3.162278 
C -0.838646 -3.162278 -1.643056 -2.82908 -2.236068 -2.236068 
C -2.82908 -1.643056 -3.162278 -0.838646 -3.162278 0 
C -3.162278 0.838646 -2.82908 1.643056 -2.236068 2.236068 
C -1.643056 2.82908 -0.838646 3.162278 0 3.162278 
z
"/>
    </defs>
    <g clip-path="url(#pc6ff32be1c)">
     <use xlink:href="#C0_0_18f03556a7" x="258.879834" y="372.005078" style="fill: #f39c12"/>
    </g>
    <g clip-path="url(#pc6ff32be1c)">
     <use xlink:href="#C0_0_18f03556a7" x="32.496291" y="139.862972" style="fill: #f39c12"/>
    </g>
    <g clip-path="url(#pc6ff32be1c)">
     <use xlink:href="#C0_0_18f03556a7" x="124.633314" y="323.057285" style="fill: #f39c12"/>
    </g>
    <g clip-path="url(#pc6ff32be1c)">
     <use xlink:href="#C0_0_18f03556a7" x="105.558071" y="361.927592" style="fill: #f39c12"/>
    </g>
    <g clip-path="url(#pc6ff32be1c)">
     <use xlink:href="#C0_0_18f03556a7" x="294.870858" y="375.604181" style="fill: #f39c12"/>
    </g>
    <g clip-path="url(#pc6ff32be1c)">
     <use xlink:href="#C0_0_18f03556a7" x="272.556423" y="140.222882" style="fill: #f39c12"/>
    </g>
    <g clip-path="url(#pc6ff32be1c)">
     <use xlink:href="#C0_0_18f03556a7" x="352.096587" y="212.204931" style="fill: #f39c12"/>
    </g>
    <g clip-path="url(#pc6ff32be1c)">
     <use xlink:href="#C0_0_18f03556a7" x="55.530547" y="195.649059" style="fill: #f39c12"/>
    </g>
    <g clip-path="url(#pc6ff32be1c)">
     <use xlink:href="#C0_0_18f03556a7" x="178.97976" y="401.517718" style="fill: #f39c12"/>
    </g>
    <g clip-path="url(#pc6ff32be1c)">
     <use xlink:href="#C0_0_18f03556a7" x="34.295843" y="378.843373" style="fill: #f39c12"/>
    </g>
    <g clip-path="url(#pc6ff32be1c)">
     <use xlink:href="#C0_0_18f03556a7" x="103.758519" y="327.376208" style="fill: #f39c12"/>
    </g>
    <g clip-path="url(#pc6ff32be1c)">
     <use xlink:href="#C0_0_18f03556a7" x="209.572131" y="191.330137" style="fill: #f39c12"/>
    </g>
    <g clip-path="url(#pc6ff32be1c)">
     <use xlink:href="#C0_0_18f03556a7" x="33.216112" y="206.446367" style="fill: #f39c12"/>
    </g>
    <g clip-path="url(#pc6ff32be1c)">
     <use xlink:href="#C0_0_18f03556a7" x="96.560315" y="149.220638" style="fill: #f39c12"/>
    </g>
    <g clip-path="url(#pc6ff32be1c)">
     <use xlink:href="#C0_0_18f03556a7" x="262.838847" y="154.619292" style="fill: #f39c12"/>
    </g>
    <g clip-path="url(#pc6ff32be1c)">
     <use xlink:href="#C0_0_18f03556a7" x="224.328451" y="258.633352" style="fill: #f39c12"/>
    </g>
    <g clip-path="url(#pc6ff32be1c)">
     <use xlink:href="#C0_0_18f03556a7" x="104.47834" y="247.836045" style="fill: #f39c12"/>
    </g>
    <g clip-path="url(#pc6ff32be1c)">
     <use xlink:href="#C0_0_18f03556a7" x="240.524412" y="310.820337" style="fill: #f39c12"/>
    </g>
    <g clip-path="url(#pc6ff32be1c)">
     <use xlink:href="#C0_0_18f03556a7" x="321.504216" y="92.71473" style="fill: #f39c12"/>
    </g>
    <g clip-path="url(#pc6ff32be1c)">
     <use xlink:href="#C0_0_18f03556a7" x="25.657997" y="133.384587" style="fill: #f39c12"/>
    </g>
    <g clip-path="url(#pc6ff32be1c)">
     <use xlink:href="#C0_0_18f03556a7" x="320.424486" y="354.369476" style="fill: #f39c12"/>
    </g>
    <g clip-path="url(#pc6ff32be1c)">
     <use xlink:href="#C0_0_18f03556a7" x="280.474449" y="257.553621" style="fill: #f39c12"/>
    </g>
    <g clip-path="url(#pc6ff32be1c)">
     <use xlink:href="#C0_0_18f03556a7" x="148.7473" y="310.820337" style="fill: #f39c12"/>
    </g>
    <g clip-path="url(#pc6ff32be1c)">
     <use xlink:href="#C0_0_18f03556a7" x="80.724264" y="333.854593" style="fill: #f39c12"/>
    </g>
    <g clip-path="url(#pc6ff32be1c)">
     <use xlink:href="#C0_0_18f03556a7" x="376.210573" y="131.944946" style="fill: #f39c12"/>
    </g>
    <g clip-path="url(#pc6ff32be1c)">
     <use xlink:href="#C0_0_18f03556a7" x="147.307659" y="375.604181" style="fill: #f39c12"/>
    </g>
    <g clip-path="url(#pc6ff32be1c)">
     <use xlink:href="#C0_0_18f03556a7" x="57.330098" y="273.029762" style="fill: #f39c12"/>
    </g>
    <g clip-path="url(#pc6ff32be1c)">
     <use xlink:href="#C0_0_18f03556a7" x="59.129649" y="280.947787" style="fill: #f39c12"/>
    </g>
    <g clip-path="url(#pc6ff32be1c)">
     <use xlink:href="#C0_0_18f03556a7" x="335.540716" y="286.346441" style="fill: #f39c12"/>
    </g>
    <g clip-path="url(#pc6ff32be1c)">
     <use xlink:href="#C0_0_18f03556a7" x="245.923065" y="315.85908" style="fill: #f39c12"/>
    </g>
    <g clip-path="url(#pc6ff32be1c)">
     <use xlink:href="#C0_0_18f03556a7" x="320.784396" y="397.198795" style="fill: #f39c12"/>
    </g>
    <g clip-path="url(#pc6ff32be1c)">
     <use xlink:href="#C0_0_18f03556a7" x="292.351487" y="243.877032" style="fill: #f39c12"/>
    </g>
    <g clip-path="url(#pc6ff32be1c)">
     <use xlink:href="#C0_0_18f03556a7" x="221.089259" y="367.326245" style="fill: #f39c12"/>
    </g>
    <g clip-path="url(#pc6ff32be1c)">
     <use xlink:href="#C0_0_18f03556a7" x="381.969137" y="73.279577" style="fill: #f39c12"/>
    </g>
    <g clip-path="url(#pc6ff32be1c)">
     <use xlink:href="#C0_0_18f03556a7" x="162.783799" y="384.242027" style="fill: #f39c12"/>
    </g>
    <g clip-path="url(#pc6ff32be1c)">
     <use xlink:href="#C0_0_18f03556a7" x="226.847822" y="305.061773" style="fill: #f39c12"/>
    </g>
    <g clip-path="url(#pc6ff32be1c)">
     <use xlink:href="#C0_0_18f03556a7" x="329.062331" y="181.61256" style="fill: #f39c12"/>
    </g>
    <g clip-path="url(#pc6ff32be1c)">
     <use xlink:href="#C0_0_18f03556a7" x="251.321719" y="86.956166" style="fill: #f39c12"/>
    </g>
    <g clip-path="url(#pc6ff32be1c)">
     <use xlink:href="#C0_0_18f03556a7" x="340.939369" y="279.868056" style="fill: #f39c12"/>
    </g>
    <g clip-path="url(#pc6ff32be1c)">
     <use xlink:href="#C0_0_18f03556a7" x="236.205489" y="342.492438" style="fill: #f39c12"/>
    </g>
    <g clip-path="url(#pc6ff32be1c)">
     <use xlink:href="#C0_0_18f03556a7" x="282.99382" y="387.481219" style="fill: #f39c12"/>
    </g>
    <g clip-path="url(#pc6ff32be1c)">
     <use xlink:href="#C0_0_18f03556a7" x="40.054407" y="169.375612" style="fill: #f39c12"/>
    </g>
    <g clip-path="url(#pc6ff32be1c)">
     <use xlink:href="#C0_0_18f03556a7" x="107.357622" y="128.345844" style="fill: #f39c12"/>
    </g>
    <g clip-path="url(#pc6ff32be1c)">
     <use xlink:href="#C0_0_18f03556a7" x="130.031967" y="383.882116" style="fill: #f39c12"/>
    </g>
    <g clip-path="url(#pc6ff32be1c)">
     <use xlink:href="#C0_0_18f03556a7" x="338.419998" y="327.376208" style="fill: #f39c12"/>
    </g>
    <g clip-path="url(#pc6ff32be1c)">
     <use xlink:href="#C0_0_18f03556a7" x="342.738921" y="375.964091" style="fill: #f39c12"/>
    </g>
    <g clip-path="url(#pc6ff32be1c)">
     <use xlink:href="#C0_0_18f03556a7" x="163.50362" y="310.820337" style="fill: #f39c12"/>
    </g>
    <g clip-path="url(#pc6ff32be1c)">
     <use xlink:href="#C0_0_18f03556a7" x="190.496888" y="179.093188" style="fill: #f39c12"/>
    </g>
    <g clip-path="url(#pc6ff32be1c)">
     <use xlink:href="#C0_0_18f03556a7" x="330.861883" y="278.788325" style="fill: #f39c12"/>
    </g>
    <g clip-path="url(#pc6ff32be1c)">
     <use xlink:href="#C0_0_18f03556a7" x="83.243636" y="276.628864" style="fill: #f39c12"/>
    </g>
    <g clip-path="url(#pc6ff32be1c)">
     <use xlink:href="#C0_0_18f03556a7" x="154.145953" y="336.014054" style="fill: #f39c12"/>
    </g>
    <g clip-path="url(#pc6ff32be1c)">
     <use xlink:href="#C0_0_18f03556a7" x="270.396962" y="314.77935" style="fill: #f39c12"/>
    </g>
    <g clip-path="url(#pc6ff32be1c)">
     <use xlink:href="#C0_0_18f03556a7" x="281.91409" y="67.880923" style="fill: #f39c12"/>
    </g>
    <g clip-path="url(#pc6ff32be1c)">
     <use xlink:href="#C0_0_18f03556a7" x="275.075795" y="174.414355" style="fill: #f39c12"/>
    </g>
    <g clip-path="url(#pc6ff32be1c)">
     <use xlink:href="#C0_0_18f03556a7" x="49.771983" y="188.810765" style="fill: #f39c12"/>
    </g>
    <g clip-path="url(#pc6ff32be1c)">
     <use xlink:href="#C0_0_18f03556a7" x="257.440193" y="350.050554" style="fill: #f39c12"/>
    </g>
    <g clip-path="url(#pc6ff32be1c)">
     <use xlink:href="#C0_0_18f03556a7" x="220.009528" y="144.541805" style="fill: #f39c12"/>
    </g>
    <g clip-path="url(#pc6ff32be1c)">
     <use xlink:href="#C0_0_18f03556a7" x="113.476096" y="352.929835" style="fill: #f39c12"/>
    </g>
    <g clip-path="url(#pc6ff32be1c)">
     <use xlink:href="#C0_0_18f03556a7" x="193.73608" y="273.389672" style="fill: #f39c12"/>
    </g>
    <g clip-path="url(#pc6ff32be1c)">
     <use xlink:href="#C0_0_18f03556a7" x="122.833762" y="72.199846" style="fill: #f39c12"/>
    </g>
    <g clip-path="url(#pc6ff32be1c)">
     <use xlink:href="#C0_0_18f03556a7" x="259.239744" y="159.658035" style="fill: #f39c12"/>
    </g>
    <g clip-path="url(#pc6ff32be1c)">
     <use xlink:href="#C0_0_18f03556a7" x="228.647374" y="332.414952" style="fill: #f39c12"/>
    </g>
    <g clip-path="url(#pc6ff32be1c)">
     <use xlink:href="#C0_0_18f03556a7" x="275.795615" y="293.544645" style="fill: #f39c12"/>
    </g>
    <g clip-path="url(#pc6ff32be1c)">
     <use xlink:href="#C0_0_18f03556a7" x="334.101075" y="130.145395" style="fill: #f39c12"/>
    </g>
    <g clip-path="url(#pc6ff32be1c)">
     <use xlink:href="#C0_0_18f03556a7" x="309.267268" y="392.519962" style="fill: #f39c12"/>
    </g>
    <g clip-path="url(#pc6ff32be1c)">
     <use xlink:href="#C0_0_18f03556a7" x="107.717532" y="110.350332" style="fill: #f39c12"/>
    </g>
    <g clip-path="url(#pc6ff32be1c)">
     <use xlink:href="#C0_0_18f03556a7" x="35.015663" y="116.468806" style="fill: #f39c12"/>
    </g>
    <g clip-path="url(#pc6ff32be1c)">
     <use xlink:href="#C0_0_18f03556a7" x="139.749544" y="265.471646" style="fill: #f39c12"/>
    </g>
    <g clip-path="url(#pc6ff32be1c)">
     <use xlink:href="#C0_0_18f03556a7" x="122.113942" y="388.92086" style="fill: #f39c12"/>
    </g>
    <g clip-path="url(#pc6ff32be1c)">
     <use xlink:href="#C0_0_18f03556a7" x="101.239148" y="76.518769" style="fill: #f39c12"/>
    </g>
    <g clip-path="url(#pc6ff32be1c)">
     <use xlink:href="#C0_0_18f03556a7" x="370.81192" y="204.286905" style="fill: #f39c12"/>
    </g>
    <g clip-path="url(#pc6ff32be1c)">
     <use xlink:href="#C0_0_18f03556a7" x="346.338023" y="148.500818" style="fill: #f39c12"/>
    </g>
    <g clip-path="url(#pc6ff32be1c)">
     <use xlink:href="#C0_0_18f03556a7" x="139.389633" y="334.934323" style="fill: #f39c12"/>
    </g>
    <g clip-path="url(#pc6ff32be1c)">
     <use xlink:href="#C0_0_18f03556a7" x="264.998308" y="229.120712" style="fill: #f39c12"/>
    </g>
    <g clip-path="url(#pc6ff32be1c)">
     <use xlink:href="#C0_0_18f03556a7" x="169.262184" y="87.316076" style="fill: #f39c12"/>
    </g>
    <g clip-path="url(#pc6ff32be1c)">
     <use xlink:href="#C0_0_18f03556a7" x="360.374523" y="176.213906" style="fill: #f39c12"/>
    </g>
    <g clip-path="url(#pc6ff32be1c)">
     <use xlink:href="#C0_0_18f03556a7" x="192.296439" y="360.487951" style="fill: #f39c12"/>
    </g>
    <g clip-path="url(#pc6ff32be1c)">
     <use xlink:href="#C0_0_18f03556a7" x="121.034211" y="361.927592" style="fill: #f39c12"/>
    </g>
    <g clip-path="url(#pc6ff32be1c)">
     <use xlink:href="#C0_0_18f03556a7" x="114.195917" y="138.783241" style="fill: #f39c12"/>
    </g>
    <g clip-path="url(#pc6ff32be1c)">
     <use xlink:href="#C0_0_18f03556a7" x="230.087015" y="214.724302" style="fill: #f39c12"/>
    </g>
    <g clip-path="url(#pc6ff32be1c)">
     <use xlink:href="#C0_0_18f03556a7" x="120.314391" y="138.063421" style="fill: #f39c12"/>
    </g>
    <g clip-path="url(#pc6ff32be1c)">
     <use xlink:href="#C0_0_18f03556a7" x="238.72486" y="255.39416" style="fill: #f39c12"/>
    </g>
    <g clip-path="url(#pc6ff32be1c)">
     <use xlink:href="#C0_0_18f03556a7" x="354.256048" y="198.168431" style="fill: #f39c12"/>
    </g>
    <g clip-path="url(#pc6ff32be1c)">
     <use xlink:href="#C0_0_18f03556a7" x="170.341914" y="279.868056" style="fill: #f39c12"/>
    </g>
    <g clip-path="url(#pc6ff32be1c)">
     <use xlink:href="#C0_0_18f03556a7" x="104.11843" y="362.287502" style="fill: #f39c12"/>
    </g>
    <g clip-path="url(#pc6ff32be1c)">
     <use xlink:href="#C0_0_18f03556a7" x="211.011772" y="231.280173" style="fill: #f39c12"/>
    </g>
    <g clip-path="url(#pc6ff32be1c)">
     <use xlink:href="#C0_0_18f03556a7" x="56.970188" y="134.824228" style="fill: #f39c12"/>
    </g>
    <g clip-path="url(#pc6ff32be1c)">
     <use xlink:href="#C0_0_18f03556a7" x="40.774227" y="95.953922" style="fill: #f39c12"/>
    </g>
    <g clip-path="url(#pc6ff32be1c)">
     <use xlink:href="#C0_0_18f03556a7" x="63.808483" y="356.888848" style="fill: #f39c12"/>
    </g>
    <g clip-path="url(#pc6ff32be1c)">
     <use xlink:href="#C0_0_18f03556a7" x="254.560911" y="354.369476" style="fill: #f39c12"/>
    </g>
    <g clip-path="url(#pc6ff32be1c)">
     <use xlink:href="#C0_0_18f03556a7" x="315.385742" y="162.537317" style="fill: #f39c12"/>
    </g>
    <g clip-path="url(#pc6ff32be1c)">
     <use xlink:href="#C0_0_18f03556a7" x="178.97976" y="193.489598" style="fill: #f39c12"/>
    </g>
    <g clip-path="url(#pc6ff32be1c)">
     <use xlink:href="#C0_0_18f03556a7" x="46.892701" y="271.23021" style="fill: #f39c12"/>
    </g>
    <g clip-path="url(#pc6ff32be1c)">
     <use xlink:href="#C0_0_18f03556a7" x="163.86353" y="193.489598" style="fill: #f39c12"/>
    </g>
    <g clip-path="url(#pc6ff32be1c)">
     <use xlink:href="#C0_0_18f03556a7" x="195.895542" y="218.323405" style="fill: #f39c12"/>
    </g>
    <g clip-path="url(#pc6ff32be1c)">
     <use xlink:href="#C0_0_18f03556a7" x="115.995468" y="55.284065" style="fill: #f39c12"/>
    </g>
    <g clip-path="url(#pc6ff32be1c)">
     <use xlink:href="#C0_0_18f03556a7" x="227.207733" y="95.953922" style="fill: #f39c12"/>
    </g>
    <g clip-path="url(#pc6ff32be1c)">
     <use xlink:href="#C0_0_18f03556a7" x="370.81192" y="409.075833" style="fill: #f39c12"/>
    </g>
    <g clip-path="url(#pc6ff32be1c)">
     <use xlink:href="#C0_0_18f03556a7" x="273.996064" y="147.421087" style="fill: #f39c12"/>
    </g>
    <g clip-path="url(#pc6ff32be1c)">
     <use xlink:href="#C0_0_18f03556a7" x="65.608034" y="161.817497" style="fill: #f39c12"/>
    </g>
   </g>
   <g id="text_1">
    <!-- Cost: 7456 -->
    <g style="fill: #ecf0f1" transform="translate(144.839686 22.396875) scale(0.2 -0.2)">
     <defs>
      <path id="DejaVuSans-Bold-43" d="M 4288 256 
Q 3956 84 3597 -3 
Q 3238 -91 2847 -91 
Q 1681 -91 1000 561 
Q 319 1213 319 2328 
Q 319 3447 1000 4098 
Q 1681 4750 2847 4750 
Q 3238 4750 3597 4662 
Q 3956 4575 4288 4403 
L 4288 3438 
Q 3953 3666 3628 3772 
Q 3303 3878 2944 3878 
Q 2300 3878 1931 3465 
Q 1563 3053 1563 2328 
Q 1563 1606 1931 1193 
Q 2300 781 2944 781 
Q 3303 781 3628 887 
Q 3953 994 4288 1222 
L 4288 256 
z
" transform="scale(0.015625)"/>
      <path id="DejaVuSans-Bold-6f" d="M 2203 2784 
Q 1831 2784 1636 2517 
Q 1441 2250 1441 1747 
Q 1441 1244 1636 976 
Q 1831 709 2203 709 
Q 2569 709 2762 976 
Q 2956 1244 2956 1747 
Q 2956 2250 2762 2517 
Q 2569 2784 2203 2784 
z
M 2203 3584 
Q 3106 3584 3614 3096 
Q 4122 2609 4122 1747 
Q 4122 884 3614 396 
Q 3106 -91 2203 -91 
Q 1297 -91 786 396 
Q 275 884 275 1747 
Q 275 2609 786 3096 
Q 1297 3584 2203 3584 
z
" transform="scale(0.015625)"/>
      <path id="DejaVuSans-Bold-73" d="M 3272 3391 
L 3272 2541 
Q 2913 2691 2578 2766 
Q 2244 2841 1947 2841 
Q 1628 2841 1473 2761 
Q 1319 2681 1319 2516 
Q 1319 2381 1436 2309 
Q 1553 2238 1856 2203 
L 2053 2175 
Q 2913 2066 3209 1816 
Q 3506 1566 3506 1031 
Q 3506 472 3093 190 
Q 2681 -91 1863 -91 
Q 1516 -91 1145 -36 
Q 775 19 384 128 
L 384 978 
Q 719 816 1070 734 
Q 1422 653 1784 653 
Q 2113 653 2278 743 
Q 2444 834 2444 1013 
Q 2444 1163 2330 1236 
Q 2216 1309 1875 1350 
L 1678 1375 
Q 931 1469 631 1722 
Q 331 1975 331 2491 
Q 331 3047 712 3315 
Q 1094 3584 1881 3584 
Q 2191 3584 2531 3537 
Q 2872 3491 3272 3391 
z
" transform="scale(0.015625)"/>
      <path id="DejaVuSans-Bold-74" d="M 1759 4494 
L 1759 3500 
L 2913 3500 
L 2913 2700 
L 1759 2700 
L 1759 1216 
Q 1759 972 1856 886 
Q 1953 800 2241 800 
L 2816 800 
L 2816 0 
L 1856 0 
Q 1194 0 917 276 
Q 641 553 641 1216 
L 641 2700 
L 84 2700 
L 84 3500 
L 641 3500 
L 641 4494 
L 1759 4494 
z
" transform="scale(0.015625)"/>
      <path id="DejaVuSans-Bold-3a" d="M 716 3500 
L 1844 3500 
L 1844 2291 
L 716 2291 
L 716 3500 
z
M 716 1209 
L 1844 1209 
L 1844 0 
L 716 0 
L 716 1209 
z
" transform="scale(0.015625)"/>
      <path id="DejaVuSans-Bold-20" transform="scale(0.015625)"/>
      <path id="DejaVuSans-Bold-37" d="M 428 4666 
L 3944 4666 
L 3944 3988 
L 2125 0 
L 953 0 
L 2675 3781 
L 428 3781 
L 428 4666 
z
" transform="scale(0.015625)"/>
      <path id="DejaVuSans-Bold-34" d="M 2356 3675 
L 1038 1722 
L 2356 1722 
L 2356 3675 
z
M 2156 4666 
L 3494 4666 
L 3494 1722 
L 4159 1722 
L 4159 850 
L 3494 850 
L 3494 0 
L 2356 0 
L 2356 850 
L 288 850 
L 288 1881 
L 2156 4666 
z
" transform="scale(0.015625)"/>
      <path id="DejaVuSans-Bold-35" d="M 678 4666 
L 3669 4666 
L 3669 3781 
L 1638 3781 
L 1638 3059 
Q 1775 3097 1914 3117 
Q 2053 3138 2203 3138 
Q 3056 3138 3531 2711 
Q 4006 2284 4006 1522 
Q 4006 766 3489 337 
Q 2972 -91 2053 -91 
Q 1656 -91 1267 -14 
Q 878 63 494 219 
L 494 1166 
Q 875 947 1217 837 
Q 1559 728 1863 728 
Q 2300 728 2551 942 
Q 2803 1156 2803 1522 
Q 2803 1891 2551 2103 
Q 2300 2316 1863 2316 
Q 1603 2316 1309 2248 
Q 1016 2181 678 2041 
L 678 4666 
z
" transform="scale(0.015625)"/>
      <path id="DejaVuSans-Bold-36" d="M 2316 2303 
Q 2000 2303 1842 2098 
Q 1684 1894 1684 1484 
Q 1684 1075 1842 870 
Q 2000 666 2316 666 
Q 2634 666 2792 870 
Q 2950 1075 2950 1484 
Q 2950 1894 2792 2098 
Q 2634 2303 2316 2303 
z
M 3803 4544 
L 3803 3681 
Q 3506 3822 3243 3889 
Q 2981 3956 2731 3956 
Q 2194 3956 1894 3657 
Q 1594 3359 1544 2772 
Q 1750 2925 1990 3001 
Q 2231 3078 2516 3078 
Q 3231 3078 3670 2659 
Q 4109 2241 4109 1563 
Q 4109 813 3618 361 
Q 3128 -91 2303 -91 
Q 1394 -91 895 523 
Q 397 1138 397 2266 
Q 397 3422 980 4083 
Q 1563 4744 2578 4744 
Q 2900 4744 3203 4694 
Q 3506 4644 3803 4544 
z
" transform="scale(0.015625)"/>
     </defs>
     <use xlink:href="#DejaVuSans-Bold-43"/>
     <use xlink:href="#DejaVuSans-Bold-6f" transform="translate(73.388672 0)"/>
     <use xlink:href="#DejaVuSans-Bold-73" transform="translate(142.089844 0)"/>
     <use xlink:href="#DejaVuSans-Bold-74" transform="translate(201.611328 0)"/>
     <use xlink:href="#DejaVuSans-Bold-3a" transform="translate(249.414062 0)"/>
     <use xlink:href="#DejaVuSans-Bold-20" transform="translate(289.404297 0)"/>
     <use xlink:href="#DejaVuSans-Bold-37" transform="translate(324.21875 0)"/>
     <use xlink:href="#DejaVuSans-Bold-34" transform="translate(393.798828 0)"/>
     <use xlink:href="#DejaVuSans-Bold-35" transform="translate(463.378906 0)"/>
     <use xlink:href="#DejaVuSans-Bold-36" transform="translate(532.958984 0)"/>
    </g>
   </g>
  </g>
 </g>
 <defs>
  <clipPath id="pc6ff32be1c">
   <rect x="7.2" y="36.396875" width="395.782497" height="392.16"/>
  </clipPath>
 </defs>
</svg>
