<?xml version="1.0" encoding="utf-8" standalone="no"?>
<!DOCTYPE svg PUBLIC "-//W3C//DTD SVG 1.1//EN"
  "http://www.w3.org/Graphics/SVG/1.1/DTD/svg11.dtd">
<svg xmlns:xlink="http://www.w3.org/1999/xlink" width="409.352594pt" height="435.756875pt" viewBox="0 0 409.352594 435.756875" xmlns="http://www.w3.org/2000/svg" version="1.1">
 <metadata>
  <rdf:RDF xmlns:dc="http://purl.org/dc/elements/1.1/" xmlns:cc="http://creativecommons.org/ns#" xmlns:rdf="http://www.w3.org/1999/02/22-rdf-syntax-ns#">
   <cc:Work>
    <dc:type rdf:resource="http://purl.org/dc/dcmitype/StillImage"/>
    <dc:date>2026-04-07T17:45:27.180165</dc:date>
    <dc:format>image/svg+xml</dc:format>
    <dc:creator>
     <cc:Agent>
      <dc:title>Matplotlib v3.10.8, https://matplotlib.org/</dc:title>
     </cc:Agent>
    </dc:creator>
   </cc:Work>
  </rdf:RDF>
 </metadata>
 <defs>
  <style type="text/css">*{stroke-linejoin: round; stroke-linecap: butt}</style>
 </defs>
 <g id="figure_1">
  <g id="patch_1">
   <path d="M 0 435.756875 
L 409.352594 435.756875 
L 409.352594 0 
L 0 0 
L 0 435.756875 
z
" style="fill: none; opacity: 0"/>
  </g>
  <g id="axes_1">
   <g id="LineCollection_1">
    <path d="M 255.121031 360.566935 
L 277.211209 374.744213 
" clip-path="url(#p93bfab7f1e)" style="fill: none; stroke: #ecf0f1; stroke-opacity: 0.95; stroke-width: 2.5"/>
    <path d="M 255.121031 360.566935 
L 251.164581 344.411432 
" clip-path="url(#p93bfab7f1e)" style="fill: none; stroke: #ecf0f1; stroke-opacity: 0.95; stroke-width: 2.5"/>
    <path d="M 277.211209 374.744213 
L 288.091445 363.863976 
" clip-path="url(#p93bfab7f1e)" style="fill: none; stroke: #ecf0f1; stroke-opacity: 0.95; stroke-width: 2.5"/>
    <path d="M 251.164581 344.411432 
L 253.802215 340.454982 
" clip-path="url(#p93bfab7f1e)" style="fill: none; stroke: #ecf0f1; stroke-opacity: 0.95; stroke-width: 2.5"/>
    <path d="M 47.737125 147.907762 
L 41.472746 141.973087 
" clip-path="url(#p93bfab7f1e)" style="fill: none; stroke: #ecf0f1; stroke-opacity: 0.95; stroke-width: 2.5"/>
    <path d="M 47.737125 147.907762 
L 54.660912 174.943502 
" clip-path="url(#p93bfab7f1e)" style="fill: none; stroke: #ecf0f1; stroke-opacity: 0.95; stroke-width: 2.5"/>
    <path d="M 41.472746 141.973087 
L 50.045054 126.476993 
" clip-path="url(#p93bfab7f1e)" style="fill: none; stroke: #ecf0f1; stroke-opacity: 0.95; stroke-width: 2.5"/>
    <path d="M 54.660912 174.943502 
L 63.562923 192.747526 
" clip-path="url(#p93bfab7f1e)" style="fill: none; stroke: #ecf0f1; stroke-opacity: 0.95; stroke-width: 2.5"/>
    <path d="M 132.141385 315.727171 
L 113.018545 319.683621 
" clip-path="url(#p93bfab7f1e)" style="fill: none; stroke: #ecf0f1; stroke-opacity: 0.95; stroke-width: 2.5"/>
    <path d="M 132.141385 315.727171 
L 145.659255 326.607408 
" clip-path="url(#p93bfab7f1e)" style="fill: none; stroke: #ecf0f1; stroke-opacity: 0.95; stroke-width: 2.5"/>
    <path d="M 113.018545 319.683621 
L 91.91748 325.618296 
" clip-path="url(#p93bfab7f1e)" style="fill: none; stroke: #ecf0f1; stroke-opacity: 0.95; stroke-width: 2.5"/>
    <path d="M 145.659255 326.607408 
L 159.177125 327.596521 
" clip-path="url(#p93bfab7f1e)" style="fill: none; stroke: #ecf0f1; stroke-opacity: 0.95; stroke-width: 2.5"/>
    <path d="M 114.667066 351.335219 
L 121.920557 343.092615 
" clip-path="url(#p93bfab7f1e)" style="fill: none; stroke: #ecf0f1; stroke-opacity: 0.95; stroke-width: 2.5"/>
    <path d="M 114.667066 351.335219 
L 113.348249 351.664923 
" clip-path="url(#p93bfab7f1e)" style="fill: none; stroke: #ecf0f1; stroke-opacity: 0.95; stroke-width: 2.5"/>
    <path d="M 121.920557 343.092615 
L 128.844344 351.335219 
" clip-path="url(#p93bfab7f1e)" style="fill: none; stroke: #ecf0f1; stroke-opacity: 0.95; stroke-width: 2.5"/>
    <path d="M 113.348249 351.664923 
L 49.385645 366.831314 
" clip-path="url(#p93bfab7f1e)" style="fill: none; stroke: #ecf0f1; stroke-opacity: 0.95; stroke-width: 2.5"/>
    <path d="M 288.091445 363.863976 
L 301.279611 379.360071 
" clip-path="url(#p93bfab7f1e)" style="fill: none; stroke: #ecf0f1; stroke-opacity: 0.95; stroke-width: 2.5"/>
    <path d="M 301.279611 379.360071 
L 311.830144 383.646225 
" clip-path="url(#p93bfab7f1e)" style="fill: none; stroke: #ecf0f1; stroke-opacity: 0.95; stroke-width: 2.5"/>
    <path d="M 267.649789 148.237466 
L 258.747777 161.425632 
" clip-path="url(#p93bfab7f1e)" style="fill: none; stroke: #ecf0f1; stroke-opacity: 0.95; stroke-width: 2.5"/>
    <path d="M 267.649789 148.237466 
L 268.968605 154.831549 
" clip-path="url(#p93bfab7f1e)" style="fill: none; stroke: #ecf0f1; stroke-opacity: 0.95; stroke-width: 2.5"/>
    <path d="M 258.747777 161.425632 
L 255.450735 166.04149 
" clip-path="url(#p93bfab7f1e)" style="fill: none; stroke: #ecf0f1; stroke-opacity: 0.95; stroke-width: 2.5"/>
    <path d="M 268.968605 154.831549 
L 269.957718 179.55936 
" clip-path="url(#p93bfab7f1e)" style="fill: none; stroke: #ecf0f1; stroke-opacity: 0.95; stroke-width: 2.5"/>
    <path d="M 340.514404 214.178295 
L 357.65902 206.924804 
" clip-path="url(#p93bfab7f1e)" style="fill: none; stroke: #ecf0f1; stroke-opacity: 0.95; stroke-width: 2.5"/>
    <path d="M 340.514404 214.178295 
L 342.492629 201.319833 
" clip-path="url(#p93bfab7f1e)" style="fill: none; stroke: #ecf0f1; stroke-opacity: 0.95; stroke-width: 2.5"/>
    <path d="M 357.65902 206.924804 
L 348.0976 181.207881 
" clip-path="url(#p93bfab7f1e)" style="fill: none; stroke: #ecf0f1; stroke-opacity: 0.95; stroke-width: 2.5"/>
    <path d="M 342.492629 201.319833 
L 319.413339 186.153443 
" clip-path="url(#p93bfab7f1e)" style="fill: none; stroke: #ecf0f1; stroke-opacity: 0.95; stroke-width: 2.5"/>
    <path d="M 68.83819 199.011904 
L 48.396533 208.903029 
" clip-path="url(#p93bfab7f1e)" style="fill: none; stroke: #ecf0f1; stroke-opacity: 0.95; stroke-width: 2.5"/>
    <path d="M 68.83819 199.011904 
L 63.562923 192.747526 
" clip-path="url(#p93bfab7f1e)" style="fill: none; stroke: #ecf0f1; stroke-opacity: 0.95; stroke-width: 2.5"/>
    <path d="M 48.396533 208.903029 
L 60.92529 268.249775 
" clip-path="url(#p93bfab7f1e)" style="fill: none; stroke: #ecf0f1; stroke-opacity: 0.95; stroke-width: 2.5"/>
    <path d="M 181.926711 387.602675 
L 167.090025 371.776876 
" clip-path="url(#p93bfab7f1e)" style="fill: none; stroke: #ecf0f1; stroke-opacity: 0.95; stroke-width: 2.5"/>
    <path d="M 181.926711 387.602675 
L 194.125764 350.016402 
" clip-path="url(#p93bfab7f1e)" style="fill: none; stroke: #ecf0f1; stroke-opacity: 0.95; stroke-width: 2.5"/>
    <path d="M 167.090025 371.776876 
L 152.912746 363.863976 
" clip-path="url(#p93bfab7f1e)" style="fill: none; stroke: #ecf0f1; stroke-opacity: 0.95; stroke-width: 2.5"/>
    <path d="M 194.125764 350.016402 
L 220.502096 356.280781 
" clip-path="url(#p93bfab7f1e)" style="fill: none; stroke: #ecf0f1; stroke-opacity: 0.95; stroke-width: 2.5"/>
    <path d="M 49.385645 366.831314 
L 76.421385 346.719361 
" clip-path="url(#p93bfab7f1e)" style="fill: none; stroke: #ecf0f1; stroke-opacity: 0.95; stroke-width: 2.5"/>
    <path d="M 76.421385 346.719361 
L 91.91748 325.618296 
" clip-path="url(#p93bfab7f1e)" style="fill: none; stroke: #ecf0f1; stroke-opacity: 0.95; stroke-width: 2.5"/>
    <path d="M 209.951563 195.055455 
L 192.477244 183.845514 
" clip-path="url(#p93bfab7f1e)" style="fill: none; stroke: #ecf0f1; stroke-opacity: 0.95; stroke-width: 2.5"/>
    <path d="M 209.951563 195.055455 
L 219.512984 152.193916 
" clip-path="url(#p93bfab7f1e)" style="fill: none; stroke: #ecf0f1; stroke-opacity: 0.95; stroke-width: 2.5"/>
    <path d="M 192.477244 183.845514 
L 181.926711 197.03368 
" clip-path="url(#p93bfab7f1e)" style="fill: none; stroke: #ecf0f1; stroke-opacity: 0.95; stroke-width: 2.5"/>
    <path d="M 219.512984 152.193916 
L 255.450735 166.04149 
" clip-path="url(#p93bfab7f1e)" style="fill: none; stroke: #ecf0f1; stroke-opacity: 0.95; stroke-width: 2.5"/>
    <path d="M 60.92529 268.249775 
L 70.48671 269.898295 
" clip-path="url(#p93bfab7f1e)" style="fill: none; stroke: #ecf0f1; stroke-opacity: 0.95; stroke-width: 2.5"/>
    <path d="M 106.424462 156.48007 
L 122.579965 146.91865 
" clip-path="url(#p93bfab7f1e)" style="fill: none; stroke: #ecf0f1; stroke-opacity: 0.95; stroke-width: 2.5"/>
    <path d="M 106.424462 156.48007 
L 78.069906 168.019715 
" clip-path="url(#p93bfab7f1e)" style="fill: none; stroke: #ecf0f1; stroke-opacity: 0.95; stroke-width: 2.5"/>
    <path d="M 122.579965 146.91865 
L 128.184936 146.259241 
" clip-path="url(#p93bfab7f1e)" style="fill: none; stroke: #ecf0f1; stroke-opacity: 0.95; stroke-width: 2.5"/>
    <path d="M 78.069906 168.019715 
L 70.157006 143.291904 
" clip-path="url(#p93bfab7f1e)" style="fill: none; stroke: #ecf0f1; stroke-opacity: 0.95; stroke-width: 2.5"/>
    <path d="M 223.469433 256.71013 
L 195.444581 270.227999 
" clip-path="url(#p93bfab7f1e)" style="fill: none; stroke: #ecf0f1; stroke-opacity: 0.95; stroke-width: 2.5"/>
    <path d="M 223.469433 256.71013 
L 236.657599 253.742792 
" clip-path="url(#p93bfab7f1e)" style="fill: none; stroke: #ecf0f1; stroke-opacity: 0.95; stroke-width: 2.5"/>
    <path d="M 195.444581 270.227999 
L 225.777362 299.241964 
" clip-path="url(#p93bfab7f1e)" style="fill: none; stroke: #ecf0f1; stroke-opacity: 0.95; stroke-width: 2.5"/>
    <path d="M 236.657599 253.742792 
L 260.726002 229.67439 
" clip-path="url(#p93bfab7f1e)" style="fill: none; stroke: #ecf0f1; stroke-opacity: 0.95; stroke-width: 2.5"/>
    <path d="M 113.677953 246.819005 
L 94.225409 273.195337 
" clip-path="url(#p93bfab7f1e)" style="fill: none; stroke: #ecf0f1; stroke-opacity: 0.95; stroke-width: 2.5"/>
    <path d="M 113.677953 246.819005 
L 145.988959 262.974508 
" clip-path="url(#p93bfab7f1e)" style="fill: none; stroke: #ecf0f1; stroke-opacity: 0.95; stroke-width: 2.5"/>
    <path d="M 94.225409 273.195337 
L 72.135231 277.151787 
" clip-path="url(#p93bfab7f1e)" style="fill: none; stroke: #ecf0f1; stroke-opacity: 0.95; stroke-width: 2.5"/>
    <path d="M 145.988959 262.974508 
L 174.013812 276.162674 
" clip-path="url(#p93bfab7f1e)" style="fill: none; stroke: #ecf0f1; stroke-opacity: 0.95; stroke-width: 2.5"/>
    <path d="M 238.30612 304.51723 
L 243.251682 309.133088 
" clip-path="url(#p93bfab7f1e)" style="fill: none; stroke: #ecf0f1; stroke-opacity: 0.95; stroke-width: 2.5"/>
    <path d="M 238.30612 304.51723 
L 225.777362 299.241964 
" clip-path="url(#p93bfab7f1e)" style="fill: none; stroke: #ecf0f1; stroke-opacity: 0.95; stroke-width: 2.5"/>
    <path d="M 243.251682 309.133088 
L 265.671564 308.143976 
" clip-path="url(#p93bfab7f1e)" style="fill: none; stroke: #ecf0f1; stroke-opacity: 0.95; stroke-width: 2.5"/>
    <path d="M 312.489552 104.716519 
L 367.879848 86.912495 
" clip-path="url(#p93bfab7f1e)" style="fill: none; stroke: #ecf0f1; stroke-opacity: 0.95; stroke-width: 2.5"/>
    <path d="M 312.489552 104.716519 
L 276.222096 81.966933 
" clip-path="url(#p93bfab7f1e)" style="fill: none; stroke: #ecf0f1; stroke-opacity: 0.95; stroke-width: 2.5"/>
    <path d="M 367.879848 86.912495 
L 362.604582 140.654271 
" clip-path="url(#p93bfab7f1e)" style="fill: none; stroke: #ecf0f1; stroke-opacity: 0.95; stroke-width: 2.5"/>
    <path d="M 276.222096 81.966933 
L 248.197244 99.441253 
" clip-path="url(#p93bfab7f1e)" style="fill: none; stroke: #ecf0f1; stroke-opacity: 0.95; stroke-width: 2.5"/>
    <path d="M 50.045054 126.476993 
L 55.32032 107.683856 
" clip-path="url(#p93bfab7f1e)" style="fill: none; stroke: #ecf0f1; stroke-opacity: 0.95; stroke-width: 2.5"/>
    <path d="M 311.50044 344.411432 
L 327.985647 319.683621 
" clip-path="url(#p93bfab7f1e)" style="fill: none; stroke: #ecf0f1; stroke-opacity: 0.95; stroke-width: 2.5"/>
    <path d="M 311.50044 344.411432 
L 331.942097 364.193681 
" clip-path="url(#p93bfab7f1e)" style="fill: none; stroke: #ecf0f1; stroke-opacity: 0.95; stroke-width: 2.5"/>
    <path d="M 327.985647 319.683621 
L 325.348014 282.097349 
" clip-path="url(#p93bfab7f1e)" style="fill: none; stroke: #ecf0f1; stroke-opacity: 0.95; stroke-width: 2.5"/>
    <path d="M 331.942097 364.193681 
L 357.65902 394.526462 
" clip-path="url(#p93bfab7f1e)" style="fill: none; stroke: #ecf0f1; stroke-opacity: 0.95; stroke-width: 2.5"/>
    <path d="M 274.90328 255.721017 
L 285.783516 243.19226 
" clip-path="url(#p93bfab7f1e)" style="fill: none; stroke: #ecf0f1; stroke-opacity: 0.95; stroke-width: 2.5"/>
    <path d="M 274.90328 255.721017 
L 270.617126 288.691432 
" clip-path="url(#p93bfab7f1e)" style="fill: none; stroke: #ecf0f1; stroke-opacity: 0.95; stroke-width: 2.5"/>
    <path d="M 285.783516 243.19226 
L 321.06186 275.173562 
" clip-path="url(#p93bfab7f1e)" style="fill: none; stroke: #ecf0f1; stroke-opacity: 0.95; stroke-width: 2.5"/>
    <path d="M 270.617126 288.691432 
L 265.671564 308.143976 
" clip-path="url(#p93bfab7f1e)" style="fill: none; stroke: #ecf0f1; stroke-opacity: 0.95; stroke-width: 2.5"/>
    <path d="M 154.231563 304.51723 
L 167.749433 304.51723 
" clip-path="url(#p93bfab7f1e)" style="fill: none; stroke: #ecf0f1; stroke-opacity: 0.95; stroke-width: 2.5"/>
    <path d="M 154.231563 304.51723 
L 159.177125 327.596521 
" clip-path="url(#p93bfab7f1e)" style="fill: none; stroke: #ecf0f1; stroke-opacity: 0.95; stroke-width: 2.5"/>
    <path d="M 167.749433 304.51723 
L 174.013812 276.162674 
" clip-path="url(#p93bfab7f1e)" style="fill: none; stroke: #ecf0f1; stroke-opacity: 0.95; stroke-width: 2.5"/>
    <path d="M 362.604582 140.654271 
L 324.029197 139.00575 
" clip-path="url(#p93bfab7f1e)" style="fill: none; stroke: #ecf0f1; stroke-opacity: 0.95; stroke-width: 2.5"/>
    <path d="M 324.029197 139.00575 
L 335.239138 155.820662 
" clip-path="url(#p93bfab7f1e)" style="fill: none; stroke: #ecf0f1; stroke-opacity: 0.95; stroke-width: 2.5"/>
    <path d="M 152.912746 363.863976 
L 137.086948 371.447172 
" clip-path="url(#p93bfab7f1e)" style="fill: none; stroke: #ecf0f1; stroke-opacity: 0.95; stroke-width: 2.5"/>
    <path d="M 137.086948 371.447172 
L 129.833456 376.06303 
" clip-path="url(#p93bfab7f1e)" style="fill: none; stroke: #ecf0f1; stroke-opacity: 0.95; stroke-width: 2.5"/>
    <path d="M 70.48671 269.898295 
L 72.135231 277.151787 
" clip-path="url(#p93bfab7f1e)" style="fill: none; stroke: #ecf0f1; stroke-opacity: 0.95; stroke-width: 2.5"/>
    <path d="M 325.348014 282.097349 
L 330.293576 276.162674 
" clip-path="url(#p93bfab7f1e)" style="fill: none; stroke: #ecf0f1; stroke-opacity: 0.95; stroke-width: 2.5"/>
    <path d="M 330.293576 276.162674 
L 321.06186 275.173562 
" clip-path="url(#p93bfab7f1e)" style="fill: none; stroke: #ecf0f1; stroke-opacity: 0.95; stroke-width: 2.5"/>
    <path d="M 311.830144 383.646225 
L 357.65902 394.526462 
" clip-path="url(#p93bfab7f1e)" style="fill: none; stroke: #ecf0f1; stroke-opacity: 0.95; stroke-width: 2.5"/>
    <path d="M 220.502096 356.280781 
L 227.425883 324.299479 
" clip-path="url(#p93bfab7f1e)" style="fill: none; stroke: #ecf0f1; stroke-opacity: 0.95; stroke-width: 2.5"/>
    <path d="M 227.425883 324.299479 
L 234.34967 333.531195 
" clip-path="url(#p93bfab7f1e)" style="fill: none; stroke: #ecf0f1; stroke-opacity: 0.95; stroke-width: 2.5"/>
    <path d="M 319.413339 186.153443 
L 306.884582 168.679123 
" clip-path="url(#p93bfab7f1e)" style="fill: none; stroke: #ecf0f1; stroke-opacity: 0.95; stroke-width: 2.5"/>
    <path d="M 306.884582 168.679123 
L 269.957718 179.55936 
" clip-path="url(#p93bfab7f1e)" style="fill: none; stroke: #ecf0f1; stroke-opacity: 0.95; stroke-width: 2.5"/>
    <path d="M 248.197244 99.441253 
L 226.107066 107.683856 
" clip-path="url(#p93bfab7f1e)" style="fill: none; stroke: #ecf0f1; stroke-opacity: 0.95; stroke-width: 2.5"/>
    <path d="M 226.107066 107.683856 
L 173.024699 99.770957 
" clip-path="url(#p93bfab7f1e)" style="fill: none; stroke: #ecf0f1; stroke-opacity: 0.95; stroke-width: 2.5"/>
    <path d="M 234.34967 333.531195 
L 253.802215 340.454982 
" clip-path="url(#p93bfab7f1e)" style="fill: none; stroke: #ecf0f1; stroke-opacity: 0.95; stroke-width: 2.5"/>
    <path d="M 116.315586 137.357229 
L 116.645291 120.872022 
" clip-path="url(#p93bfab7f1e)" style="fill: none; stroke: #ecf0f1; stroke-opacity: 0.95; stroke-width: 2.5"/>
    <path d="M 116.315586 137.357229 
L 128.184936 146.259241 
" clip-path="url(#p93bfab7f1e)" style="fill: none; stroke: #ecf0f1; stroke-opacity: 0.95; stroke-width: 2.5"/>
    <path d="M 116.645291 120.872022 
L 110.710616 89.879833 
" clip-path="url(#p93bfab7f1e)" style="fill: none; stroke: #ecf0f1; stroke-opacity: 0.95; stroke-width: 2.5"/>
    <path d="M 129.833456 376.06303 
L 128.844344 351.335219 
" clip-path="url(#p93bfab7f1e)" style="fill: none; stroke: #ecf0f1; stroke-opacity: 0.95; stroke-width: 2.5"/>
    <path d="M 181.926711 197.03368 
L 168.079137 197.03368 
" clip-path="url(#p93bfab7f1e)" style="fill: none; stroke: #ecf0f1; stroke-opacity: 0.95; stroke-width: 2.5"/>
    <path d="M 130.492865 85.923383 
L 173.024699 99.770957 
" clip-path="url(#p93bfab7f1e)" style="fill: none; stroke: #ecf0f1; stroke-opacity: 0.95; stroke-width: 2.5"/>
    <path d="M 130.492865 85.923383 
L 124.228486 70.427288 
" clip-path="url(#p93bfab7f1e)" style="fill: none; stroke: #ecf0f1; stroke-opacity: 0.95; stroke-width: 2.5"/>
    <path d="M 124.228486 70.427288 
L 110.710616 89.879833 
" clip-path="url(#p93bfab7f1e)" style="fill: none; stroke: #ecf0f1; stroke-opacity: 0.95; stroke-width: 2.5"/>
    <path d="M 335.239138 155.820662 
L 348.0976 181.207881 
" clip-path="url(#p93bfab7f1e)" style="fill: none; stroke: #ecf0f1; stroke-opacity: 0.95; stroke-width: 2.5"/>
    <path d="M 55.32032 107.683856 
L 70.157006 143.291904 
" clip-path="url(#p93bfab7f1e)" style="fill: none; stroke: #ecf0f1; stroke-opacity: 0.95; stroke-width: 2.5"/>
    <path d="M 260.726002 229.67439 
L 228.7447 216.486224 
" clip-path="url(#p93bfab7f1e)" style="fill: none; stroke: #ecf0f1; stroke-opacity: 0.95; stroke-width: 2.5"/>
    <path d="M 228.7447 216.486224 
L 211.27038 231.652615 
" clip-path="url(#p93bfab7f1e)" style="fill: none; stroke: #ecf0f1; stroke-opacity: 0.95; stroke-width: 2.5"/>
    <path d="M 211.27038 231.652615 
L 197.422806 219.783265 
" clip-path="url(#p93bfab7f1e)" style="fill: none; stroke: #ecf0f1; stroke-opacity: 0.95; stroke-width: 2.5"/>
    <path d="M 197.422806 219.783265 
L 168.079137 197.03368 
" clip-path="url(#p93bfab7f1e)" style="fill: none; stroke: #ecf0f1; stroke-opacity: 0.95; stroke-width: 2.5"/>
   </g>
   <g id="PathCollection_1">
    <defs>
     <path id="C0_0_b639738ade" d="M 0 3.162278 
C 0.838646 3.162278 1.643056 2.82908 2.236068 2.236068 
C 2.82908 1.643056 3.162278 0.838646 3.162278 -0 
C 3.162278 -0.838646 2.82908 -1.643056 2.236068 -2.236068 
C 1.643056 -2.82908 0.838646 -3.162278 0 -3.162278 
C -0.838646 -3.162278 -1.643056 -2.82908 -2.236068 -2.236068 
C -2.82908 -1.643056 -3.162278 -0.838646 -3.162278 0 
C -3.162278 0.838646 -2.82908 1.643056 -2.236068 2.236068 
C -1.643056 2.82908 -0.838646 3.162278 0 3.162278 
z
"/>
    </defs>
    <g clip-path="url(#p93bfab7f1e)">
     <use xlink:href="#C0_0_b639738ade" x="255.121031" y="360.566935" style="fill: #f39c12"/>
    </g>
    <g clip-path="url(#p93bfab7f1e)">
     <use xlink:href="#C0_0_b639738ade" x="277.211209" y="374.744213" style="fill: #f39c12"/>
    </g>
    <g clip-path="url(#p93bfab7f1e)">
     <use xlink:href="#C0_0_b639738ade" x="251.164581" y="344.411432" style="fill: #f39c12"/>
    </g>
    <g clip-path="url(#p93bfab7f1e)">
     <use xlink:href="#C0_0_b639738ade" x="47.737125" y="147.907762" style="fill: #f39c12"/>
    </g>
    <g clip-path="url(#p93bfab7f1e)">
     <use xlink:href="#C0_0_b639738ade" x="41.472746" y="141.973087" style="fill: #f39c12"/>
    </g>
    <g clip-path="url(#p93bfab7f1e)">
     <use xlink:href="#C0_0_b639738ade" x="54.660912" y="174.943502" style="fill: #f39c12"/>
    </g>
    <g clip-path="url(#p93bfab7f1e)">
     <use xlink:href="#C0_0_b639738ade" x="132.141385" y="315.727171" style="fill: #f39c12"/>
    </g>
    <g clip-path="url(#p93bfab7f1e)">
     <use xlink:href="#C0_0_b639738ade" x="113.018545" y="319.683621" style="fill: #f39c12"/>
    </g>
    <g clip-path="url(#p93bfab7f1e)">
     <use xlink:href="#C0_0_b639738ade" x="145.659255" y="326.607408" style="fill: #f39c12"/>
    </g>
    <g clip-path="url(#p93bfab7f1e)">
     <use xlink:href="#C0_0_b639738ade" x="114.667066" y="351.335219" style="fill: #f39c12"/>
    </g>
    <g clip-path="url(#p93bfab7f1e)">
     <use xlink:href="#C0_0_b639738ade" x="121.920557" y="343.092615" style="fill: #f39c12"/>
    </g>
    <g clip-path="url(#p93bfab7f1e)">
     <use xlink:href="#C0_0_b639738ade" x="113.348249" y="351.664923" style="fill: #f39c12"/>
    </g>
    <g clip-path="url(#p93bfab7f1e)">
     <use xlink:href="#C0_0_b639738ade" x="288.091445" y="363.863976" style="fill: #f39c12"/>
    </g>
    <g clip-path="url(#p93bfab7f1e)">
     <use xlink:href="#C0_0_b639738ade" x="301.279611" y="379.360071" style="fill: #f39c12"/>
    </g>
    <g clip-path="url(#p93bfab7f1e)">
     <use xlink:href="#C0_0_b639738ade" x="267.649789" y="148.237466" style="fill: #f39c12"/>
    </g>
    <g clip-path="url(#p93bfab7f1e)">
     <use xlink:href="#C0_0_b639738ade" x="258.747777" y="161.425632" style="fill: #f39c12"/>
    </g>
    <g clip-path="url(#p93bfab7f1e)">
     <use xlink:href="#C0_0_b639738ade" x="268.968605" y="154.831549" style="fill: #f39c12"/>
    </g>
    <g clip-path="url(#p93bfab7f1e)">
     <use xlink:href="#C0_0_b639738ade" x="340.514404" y="214.178295" style="fill: #f39c12"/>
    </g>
    <g clip-path="url(#p93bfab7f1e)">
     <use xlink:href="#C0_0_b639738ade" x="357.65902" y="206.924804" style="fill: #f39c12"/>
    </g>
    <g clip-path="url(#p93bfab7f1e)">
     <use xlink:href="#C0_0_b639738ade" x="342.492629" y="201.319833" style="fill: #f39c12"/>
    </g>
    <g clip-path="url(#p93bfab7f1e)">
     <use xlink:href="#C0_0_b639738ade" x="68.83819" y="199.011904" style="fill: #f39c12"/>
    </g>
    <g clip-path="url(#p93bfab7f1e)">
     <use xlink:href="#C0_0_b639738ade" x="48.396533" y="208.903029" style="fill: #f39c12"/>
    </g>
    <g clip-path="url(#p93bfab7f1e)">
     <use xlink:href="#C0_0_b639738ade" x="63.562923" y="192.747526" style="fill: #f39c12"/>
    </g>
    <g clip-path="url(#p93bfab7f1e)">
     <use xlink:href="#C0_0_b639738ade" x="181.926711" y="387.602675" style="fill: #f39c12"/>
    </g>
    <g clip-path="url(#p93bfab7f1e)">
     <use xlink:href="#C0_0_b639738ade" x="167.090025" y="371.776876" style="fill: #f39c12"/>
    </g>
    <g clip-path="url(#p93bfab7f1e)">
     <use xlink:href="#C0_0_b639738ade" x="194.125764" y="350.016402" style="fill: #f39c12"/>
    </g>
    <g clip-path="url(#p93bfab7f1e)">
     <use xlink:href="#C0_0_b639738ade" x="49.385645" y="366.831314" style="fill: #f39c12"/>
    </g>
    <g clip-path="url(#p93bfab7f1e)">
     <use xlink:href="#C0_0_b639738ade" x="76.421385" y="346.719361" style="fill: #f39c12"/>
    </g>
    <g clip-path="url(#p93bfab7f1e)">
     <use xlink:href="#C0_0_b639738ade" x="91.91748" y="325.618296" style="fill: #f39c12"/>
    </g>
    <g clip-path="url(#p93bfab7f1e)">
     <use xlink:href="#C0_0_b639738ade" x="209.951563" y="195.055455" style="fill: #f39c12"/>
    </g>
    <g clip-path="url(#p93bfab7f1e)">
     <use xlink:href="#C0_0_b639738ade" x="192.477244" y="183.845514" style="fill: #f39c12"/>
    </g>
    <g clip-path="url(#p93bfab7f1e)">
     <use xlink:href="#C0_0_b639738ade" x="219.512984" y="152.193916" style="fill: #f39c12"/>
    </g>
    <g clip-path="url(#p93bfab7f1e)">
     <use xlink:href="#C0_0_b639738ade" x="60.92529" y="268.249775" style="fill: #f39c12"/>
    </g>
    <g clip-path="url(#p93bfab7f1e)">
     <use xlink:href="#C0_0_b639738ade" x="106.424462" y="156.48007" style="fill: #f39c12"/>
    </g>
    <g clip-path="url(#p93bfab7f1e)">
     <use xlink:href="#C0_0_b639738ade" x="122.579965" y="146.91865" style="fill: #f39c12"/>
    </g>
    <g clip-path="url(#p93bfab7f1e)">
     <use xlink:href="#C0_0_b639738ade" x="78.069906" y="168.019715" style="fill: #f39c12"/>
    </g>
    <g clip-path="url(#p93bfab7f1e)">
     <use xlink:href="#C0_0_b639738ade" x="255.450735" y="166.04149" style="fill: #f39c12"/>
    </g>
    <g clip-path="url(#p93bfab7f1e)">
     <use xlink:href="#C0_0_b639738ade" x="223.469433" y="256.71013" style="fill: #f39c12"/>
    </g>
    <g clip-path="url(#p93bfab7f1e)">
     <use xlink:href="#C0_0_b639738ade" x="195.444581" y="270.227999" style="fill: #f39c12"/>
    </g>
    <g clip-path="url(#p93bfab7f1e)">
     <use xlink:href="#C0_0_b639738ade" x="236.657599" y="253.742792" style="fill: #f39c12"/>
    </g>
    <g clip-path="url(#p93bfab7f1e)">
     <use xlink:href="#C0_0_b639738ade" x="113.677953" y="246.819005" style="fill: #f39c12"/>
    </g>
    <g clip-path="url(#p93bfab7f1e)">
     <use xlink:href="#C0_0_b639738ade" x="94.225409" y="273.195337" style="fill: #f39c12"/>
    </g>
    <g clip-path="url(#p93bfab7f1e)">
     <use xlink:href="#C0_0_b639738ade" x="145.988959" y="262.974508" style="fill: #f39c12"/>
    </g>
    <g clip-path="url(#p93bfab7f1e)">
     <use xlink:href="#C0_0_b639738ade" x="238.30612" y="304.51723" style="fill: #f39c12"/>
    </g>
    <g clip-path="url(#p93bfab7f1e)">
     <use xlink:href="#C0_0_b639738ade" x="243.251682" y="309.133088" style="fill: #f39c12"/>
    </g>
    <g clip-path="url(#p93bfab7f1e)">
     <use xlink:href="#C0_0_b639738ade" x="225.777362" y="299.241964" style="fill: #f39c12"/>
    </g>
    <g clip-path="url(#p93bfab7f1e)">
     <use xlink:href="#C0_0_b639738ade" x="312.489552" y="104.716519" style="fill: #f39c12"/>
    </g>
    <g clip-path="url(#p93bfab7f1e)">
     <use xlink:href="#C0_0_b639738ade" x="367.879848" y="86.912495" style="fill: #f39c12"/>
    </g>
    <g clip-path="url(#p93bfab7f1e)">
     <use xlink:href="#C0_0_b639738ade" x="276.222096" y="81.966933" style="fill: #f39c12"/>
    </g>
    <g clip-path="url(#p93bfab7f1e)">
     <use xlink:href="#C0_0_b639738ade" x="50.045054" y="126.476993" style="fill: #f39c12"/>
    </g>
    <g clip-path="url(#p93bfab7f1e)">
     <use xlink:href="#C0_0_b639738ade" x="311.50044" y="344.411432" style="fill: #f39c12"/>
    </g>
    <g clip-path="url(#p93bfab7f1e)">
     <use xlink:href="#C0_0_b639738ade" x="327.985647" y="319.683621" style="fill: #f39c12"/>
    </g>
    <g clip-path="url(#p93bfab7f1e)">
     <use xlink:href="#C0_0_b639738ade" x="331.942097" y="364.193681" style="fill: #f39c12"/>
    </g>
    <g clip-path="url(#p93bfab7f1e)">
     <use xlink:href="#C0_0_b639738ade" x="274.90328" y="255.721017" style="fill: #f39c12"/>
    </g>
    <g clip-path="url(#p93bfab7f1e)">
     <use xlink:href="#C0_0_b639738ade" x="285.783516" y="243.19226" style="fill: #f39c12"/>
    </g>
    <g clip-path="url(#p93bfab7f1e)">
     <use xlink:href="#C0_0_b639738ade" x="270.617126" y="288.691432" style="fill: #f39c12"/>
    </g>
    <g clip-path="url(#p93bfab7f1e)">
     <use xlink:href="#C0_0_b639738ade" x="154.231563" y="304.51723" style="fill: #f39c12"/>
    </g>
    <g clip-path="url(#p93bfab7f1e)">
     <use xlink:href="#C0_0_b639738ade" x="167.749433" y="304.51723" style="fill: #f39c12"/>
    </g>
    <g clip-path="url(#p93bfab7f1e)">
     <use xlink:href="#C0_0_b639738ade" x="159.177125" y="327.596521" style="fill: #f39c12"/>
    </g>
    <g clip-path="url(#p93bfab7f1e)">
     <use xlink:href="#C0_0_b639738ade" x="362.604582" y="140.654271" style="fill: #f39c12"/>
    </g>
    <g clip-path="url(#p93bfab7f1e)">
     <use xlink:href="#C0_0_b639738ade" x="324.029197" y="139.00575" style="fill: #f39c12"/>
    </g>
    <g clip-path="url(#p93bfab7f1e)">
     <use xlink:href="#C0_0_b639738ade" x="152.912746" y="363.863976" style="fill: #f39c12"/>
    </g>
    <g clip-path="url(#p93bfab7f1e)">
     <use xlink:href="#C0_0_b639738ade" x="137.086948" y="371.447172" style="fill: #f39c12"/>
    </g>
    <g clip-path="url(#p93bfab7f1e)">
     <use xlink:href="#C0_0_b639738ade" x="70.48671" y="269.898295" style="fill: #f39c12"/>
    </g>
    <g clip-path="url(#p93bfab7f1e)">
     <use xlink:href="#C0_0_b639738ade" x="72.135231" y="277.151787" style="fill: #f39c12"/>
    </g>
    <g clip-path="url(#p93bfab7f1e)">
     <use xlink:href="#C0_0_b639738ade" x="325.348014" y="282.097349" style="fill: #f39c12"/>
    </g>
    <g clip-path="url(#p93bfab7f1e)">
     <use xlink:href="#C0_0_b639738ade" x="330.293576" y="276.162674" style="fill: #f39c12"/>
    </g>
    <g clip-path="url(#p93bfab7f1e)">
     <use xlink:href="#C0_0_b639738ade" x="265.671564" y="308.143976" style="fill: #f39c12"/>
    </g>
    <g clip-path="url(#p93bfab7f1e)">
     <use xlink:href="#C0_0_b639738ade" x="311.830144" y="383.646225" style="fill: #f39c12"/>
    </g>
    <g clip-path="url(#p93bfab7f1e)">
     <use xlink:href="#C0_0_b639738ade" x="357.65902" y="394.526462" style="fill: #f39c12"/>
    </g>
    <g clip-path="url(#p93bfab7f1e)">
     <use xlink:href="#C0_0_b639738ade" x="321.06186" y="275.173562" style="fill: #f39c12"/>
    </g>
    <g clip-path="url(#p93bfab7f1e)">
     <use xlink:href="#C0_0_b639738ade" x="220.502096" y="356.280781" style="fill: #f39c12"/>
    </g>
    <g clip-path="url(#p93bfab7f1e)">
     <use xlink:href="#C0_0_b639738ade" x="227.425883" y="324.299479" style="fill: #f39c12"/>
    </g>
    <g clip-path="url(#p93bfab7f1e)">
     <use xlink:href="#C0_0_b639738ade" x="319.413339" y="186.153443" style="fill: #f39c12"/>
    </g>
    <g clip-path="url(#p93bfab7f1e)">
     <use xlink:href="#C0_0_b639738ade" x="306.884582" y="168.679123" style="fill: #f39c12"/>
    </g>
    <g clip-path="url(#p93bfab7f1e)">
     <use xlink:href="#C0_0_b639738ade" x="248.197244" y="99.441253" style="fill: #f39c12"/>
    </g>
    <g clip-path="url(#p93bfab7f1e)">
     <use xlink:href="#C0_0_b639738ade" x="226.107066" y="107.683856" style="fill: #f39c12"/>
    </g>
    <g clip-path="url(#p93bfab7f1e)">
     <use xlink:href="#C0_0_b639738ade" x="234.34967" y="333.531195" style="fill: #f39c12"/>
    </g>
    <g clip-path="url(#p93bfab7f1e)">
     <use xlink:href="#C0_0_b639738ade" x="253.802215" y="340.454982" style="fill: #f39c12"/>
    </g>
    <g clip-path="url(#p93bfab7f1e)">
     <use xlink:href="#C0_0_b639738ade" x="116.315586" y="137.357229" style="fill: #f39c12"/>
    </g>
    <g clip-path="url(#p93bfab7f1e)">
     <use xlink:href="#C0_0_b639738ade" x="116.645291" y="120.872022" style="fill: #f39c12"/>
    </g>
    <g clip-path="url(#p93bfab7f1e)">
     <use xlink:href="#C0_0_b639738ade" x="128.184936" y="146.259241" style="fill: #f39c12"/>
    </g>
    <g clip-path="url(#p93bfab7f1e)">
     <use xlink:href="#C0_0_b639738ade" x="129.833456" y="376.06303" style="fill: #f39c12"/>
    </g>
    <g clip-path="url(#p93bfab7f1e)">
     <use xlink:href="#C0_0_b639738ade" x="174.013812" y="276.162674" style="fill: #f39c12"/>
    </g>
    <g clip-path="url(#p93bfab7f1e)">
     <use xlink:href="#C0_0_b639738ade" x="181.926711" y="197.03368" style="fill: #f39c12"/>
    </g>
    <g clip-path="url(#p93bfab7f1e)">
     <use xlink:href="#C0_0_b639738ade" x="269.957718" y="179.55936" style="fill: #f39c12"/>
    </g>
    <g clip-path="url(#p93bfab7f1e)">
     <use xlink:href="#C0_0_b639738ade" x="128.844344" y="351.335219" style="fill: #f39c12"/>
    </g>
    <g clip-path="url(#p93bfab7f1e)">
     <use xlink:href="#C0_0_b639738ade" x="130.492865" y="85.923383" style="fill: #f39c12"/>
    </g>
    <g clip-path="url(#p93bfab7f1e)">
     <use xlink:href="#C0_0_b639738ade" x="173.024699" y="99.770957" style="fill: #f39c12"/>
    </g>
    <g clip-path="url(#p93bfab7f1e)">
     <use xlink:href="#C0_0_b639738ade" x="124.228486" y="70.427288" style="fill: #f39c12"/>
    </g>
    <g clip-path="url(#p93bfab7f1e)">
     <use xlink:href="#C0_0_b639738ade" x="335.239138" y="155.820662" style="fill: #f39c12"/>
    </g>
    <g clip-path="url(#p93bfab7f1e)">
     <use xlink:href="#C0_0_b639738ade" x="110.710616" y="89.879833" style="fill: #f39c12"/>
    </g>
    <g clip-path="url(#p93bfab7f1e)">
     <use xlink:href="#C0_0_b639738ade" x="55.32032" y="107.683856" style="fill: #f39c12"/>
    </g>
    <g clip-path="url(#p93bfab7f1e)">
     <use xlink:href="#C0_0_b639738ade" x="348.0976" y="181.207881" style="fill: #f39c12"/>
    </g>
    <g clip-path="url(#p93bfab7f1e)">
     <use xlink:href="#C0_0_b639738ade" x="260.726002" y="229.67439" style="fill: #f39c12"/>
    </g>
    <g clip-path="url(#p93bfab7f1e)">
     <use xlink:href="#C0_0_b639738ade" x="228.7447" y="216.486224" style="fill: #f39c12"/>
    </g>
    <g clip-path="url(#p93bfab7f1e)">
     <use xlink:href="#C0_0_b639738ade" x="211.27038" y="231.652615" style="fill: #f39c12"/>
    </g>
    <g clip-path="url(#p93bfab7f1e)">
     <use xlink:href="#C0_0_b639738ade" x="197.422806" y="219.783265" style="fill: #f39c12"/>
    </g>
    <g clip-path="url(#p93bfab7f1e)">
     <use xlink:href="#C0_0_b639738ade" x="70.157006" y="143.291904" style="fill: #f39c12"/>
    </g>
    <g clip-path="url(#p93bfab7f1e)">
     <use xlink:href="#C0_0_b639738ade" x="168.079137" y="197.03368" style="fill: #f39c12"/>
    </g>
   </g>
   <g id="text_1">
    <!-- Cost: 7502 -->
    <g style="fill: #ecf0f1" transform="translate(144.424735 22.396875) scale(0.2 -0.2)">
     <defs>
      <path id="DejaVuSans-Bold-43" d="M 4288 256 
Q 3956 84 3597 -3 
Q 3238 -91 2847 -91 
Q 1681 -91 1000 561 
Q 319 1213 319 2328 
Q 319 3447 1000 4098 
Q 1681 4750 2847 4750 
Q 3238 4750 3597 4662 
Q 3956 4575 4288 4403 
L 4288 3438 
Q 3953 3666 3628 3772 
Q 3303 3878 2944 3878 
Q 2300 3878 1931 3465 
Q 1563 3053 1563 2328 
Q 1563 1606 1931 1193 
Q 2300 781 2944 781 
Q 3303 781 3628 887 
Q 3953 994 4288 1222 
L 4288 256 
z
" transform="scale(0.015625)"/>
      <path id="DejaVuSans-Bold-6f" d="M 2203 2784 
Q 1831 2784 1636 2517 
Q 1441 2250 1441 1747 
Q 1441 1244 1636 976 
Q 1831 709 2203 709 
Q 2569 709 2762 976 
Q 2956 1244 2956 1747 
Q 2956 2250 2762 2517 
Q 2569 2784 2203 2784 
z
M 2203 3584 
Q 3106 3584 3614 3096 
Q 4122 2609 4122 1747 
Q 4122 884 3614 396 
Q 3106 -91 2203 -91 
Q 1297 -91 786 396 
Q 275 884 275 1747 
Q 275 2609 786 3096 
Q 1297 3584 2203 3584 
z
" transform="scale(0.015625)"/>
      <path id="DejaVuSans-Bold-73" d="M 3272 3391 
L 3272 2541 
Q 2913 2691 2578 2766 
Q 2244 2841 1947 2841 
Q 1628 2841 1473 2761 
Q 1319 2681 1319 2516 
Q 1319 2381 1436 2309 
Q 1553 2238 1856 2203 
L 2053 2175 
Q 2913 2066 3209 1816 
Q 3506 1566 3506 1031 
Q 3506 472 3093 190 
Q 2681 -91 1863 -91 
Q 1516 -91 1145 -36 
Q 775 19 384 128 
L 384 978 
Q 719 816 1070 734 
Q 1422 653 1784 653 
Q 2113 653 2278 743 
Q 2444 834 2444 1013 
Q 2444 1163 2330 1236 
Q 2216 1309 1875 1350 
L 1678 1375 
Q 931 1469 631 1722 
Q 331 1975 331 2491 
Q 331 3047 712 3315 
Q 1094 3584 1881 3584 
Q 2191 3584 2531 3537 
Q 2872 3491 3272 3391 
z
" transform="scale(0.015625)"/>
      <path id="DejaVuSans-Bold-74" d="M 1759 4494 
L 1759 3500 
L 2913 3500 
L 2913 2700 
L 1759 2700 
L 1759 1216 
Q 1759 972 1856 886 
Q 1953 800 2241 800 
L 2816 800 
L 2816 0 
L 1856 0 
Q 1194 0 917 276 
Q 641 553 641 1216 
L 641 2700 
L 84 2700 
L 84 3500 
L 641 3500 
L 641 4494 
L 1759 4494 
z
" transform="scale(0.015625)"/>
      <path id="DejaVuSans-Bold-3a" d="M 716 3500 
L 1844 3500 
L 1844 2291 
L 716 2291 
L 716 3500 
z
M 716 1209 
L 1844 1209 
L 1844 0 
L 716 0 
L 716 1209 
z
" transform="scale(0.015625)"/>
      <path id="DejaVuSans-Bold-20" transform="scale(0.015625)"/>
      <path id="DejaVuSans-Bold-37" d="M 428 4666 
L 3944 4666 
L 3944 3988 
L 2125 0 
L 953 0 
L 2675 3781 
L 428 3781 
L 428 4666 
z
" transform="scale(0.015625)"/>
      <path id="DejaVuSans-Bold-35" d="M 678 4666 
L 3669 4666 
L 3669 3781 
L 1638 3781 
L 1638 3059 
Q 1775 3097 1914 3117 
Q 2053 3138 2203 3138 
Q 3056 3138 3531 2711 
Q 4006 2284 4006 1522 
Q 4006 766 3489 337 
Q 2972 -91 2053 -91 
Q 1656 -91 1267 -14 
Q 878 63 494 219 
L 494 1166 
Q 875 947 1217 837 
Q 1559 728 1863 728 
Q 2300 728 2551 942 
Q 2803 1156 2803 1522 
Q 2803 1891 2551 2103 
Q 2300 2316 1863 2316 
Q 1603 2316 1309 2248 
Q 1016 2181 678 2041 
L 678 4666 
z
" transform="scale(0.015625)"/>
      <path id="DejaVuSans-Bold-30" d="M 2944 2338 
Q 2944 3213 2780 3570 
Q 2616 3928 2228 3928 
Q 1841 3928 1675 3570 
Q 1509 3213 1509 2338 
Q 1509 1453 1675 1090 
Q 1841 728 2228 728 
Q 2613 728 2778 1090 
Q 2944 1453 2944 2338 
z
M 4147 2328 
Q 4147 1169 3647 539 
Q 3147 -91 2228 -91 
Q 1306 -91 806 539 
Q 306 1169 306 2328 
Q 306 3491 806 4120 
Q 1306 4750 2228 4750 
Q 3147 4750 3647 4120 
Q 4147 3491 4147 2328 
z
" transform="scale(0.015625)"/>
      <path id="DejaVuSans-Bold-32" d="M 1844 884 
L 3897 884 
L 3897 0 
L 506 0 
L 506 884 
L 2209 2388 
Q 2438 2594 2547 2791 
Q 2656 2988 2656 3200 
Q 2656 3528 2436 3728 
Q 2216 3928 1850 3928 
Q 1569 3928 1234 3808 
Q 900 3688 519 3450 
L 519 4475 
Q 925 4609 1322 4679 
Q 1719 4750 2100 4750 
Q 2938 4750 3402 4381 
Q 3866 4013 3866 3353 
Q 3866 2972 3669 2642 
Q 3472 2313 2841 1759 
L 1844 884 
z
" transform="scale(0.015625)"/>
     </defs>
     <use xlink:href="#DejaVuSans-Bold-43"/>
     <use xlink:href="#DejaVuSans-Bold-6f" transform="translate(73.388672 0)"/>
     <use xlink:href="#DejaVuSans-Bold-73" transform="translate(142.089844 0)"/>
     <use xlink:href="#DejaVuSans-Bold-74" transform="translate(201.611328 0)"/>
     <use xlink:href="#DejaVuSans-Bold-3a" transform="translate(249.414062 0)"/>
     <use xlink:href="#DejaVuSans-Bold-20" transform="translate(289.404297 0)"/>
     <use xlink:href="#DejaVuSans-Bold-37" transform="translate(324.21875 0)"/>
     <use xlink:href="#DejaVuSans-Bold-35" transform="translate(393.798828 0)"/>
     <use xlink:href="#DejaVuSans-Bold-30" transform="translate(463.378906 0)"/>
     <use xlink:href="#DejaVuSans-Bold-32" transform="translate(532.958984 0)"/>
    </g>
   </g>
  </g>
 </g>
 <defs>
  <clipPath id="p93bfab7f1e">
   <rect x="7.2" y="36.396875" width="394.952594" height="392.16"/>
  </clipPath>
 </defs>
</svg>
